<svg xmlns="http://www.w3.org/2000/svg" viewBox="0 0 1200 700"><defs><linearGradient id="sky" x2="0" y2="1"><stop stop-color="#d7e8ef"/><stop offset="1" stop-color="#e7b07d"/></linearGradient><linearGradient id="ground" x2="0" y2="1"><stop stop-color="#567f62"/><stop offset="1" stop-color="#2d5640"/></linearGradient></defs><rect x="0.0" y="0.0" width="1200.0" height="700.0" rx="0" fill="url(#sky)" stroke="none" stroke-width="0"/><rect x="0.0" y="410.0" width="1200.0" height="290.0" rx="0" fill="url(#ground)" stroke="none" stroke-width="0"/><polygon points="-100.0,410.0 50.0,313.0 200.0,410.0" fill="#557060" stroke="none" stroke-width="0"/><polygon points="180.0,410.0 330.0,307.0 480.0,410.0" fill="#557060" stroke="none" stroke-width="0"/><polygon points="460.0,410.0 610.0,220.0 760.0,410.0" fill="#557060" stroke="none" stroke-width="0"/><polygon points="740.0,410.0 890.0,244.0 1040.0,410.0" fill="#557060" stroke="none" stroke-width="0"/><polygon points="1020.0,410.0 1170.0,330.0 1320.0,410.0" fill="#557060" stroke="none" stroke-width="0"/><polyline points="752.0,700.0 854.0,459.0" fill="none" stroke="#30383c" stroke-width="5" opacity="0.9" stroke-linecap="round" /><polyline points="744.0,700.0 381.0,493.0" fill="none" stroke="#30383c" stroke-width="7" opacity="0.9" stroke-linecap="round" /><polyline points="406.0,700.0 802.0,492.0" fill="none" stroke="#30383c" stroke-width="7" opacity="0.9" stroke-linecap="round" /><polyline points="381.0,700.0 512.0,430.0" fill="none" stroke="#30383c" stroke-width="5" opacity="0.9" stroke-linecap="round" /><polyline points="287.0,700.0 475.0,464.0" fill="none" stroke="#30383c" stroke-width="5" opacity="0.9" stroke-linecap="round" /><polyline points="845.0,700.0 444.0,437.0" fill="none" stroke="#30383c" stroke-width="5" opacity="0.9" stroke-linecap="round" /><polyline points="519.0,700.0 771.0,411.0" fill="none" stroke="#30383c" stroke-width="7" opacity="0.9" stroke-linecap="round" /><rect x="469.0" y="498.0" width="26.0" height="58.0" rx="2" fill="#e8e0cf" stroke="#213640" stroke-width="1"/><rect x="472.0" y="503.0" width="20.0" height="4.0" rx="0" fill="#86b6c2" stroke="none" stroke-width="0"/><rect x="448.0" y="621.0" width="46.0" height="15.0" rx="2" fill="#b9c8cc" stroke="#213640" stroke-width="1"/><rect x="152.0" y="474.0" width="45.0" height="77.0" rx="2" fill="#c8d8dd" stroke="#213640" stroke-width="1"/><rect x="155.0" y="479.0" width="39.0" height="4.0" rx="0" fill="#86b6c2" stroke="none" stroke-width="0"/><rect x="88.0" y="486.0" width="31.0" height="29.0" rx="2" fill="#e4d2bd" stroke="#213640" stroke-width="1"/><rect x="47.0" y="397.0" width="42.0" height="89.0" rx="2" fill="#c8d8dd" stroke="#213640" stroke-width="1"/><rect x="50.0" y="402.0" width="36.0" height="4.0" rx="0" fill="#86b6c2" stroke="none" stroke-width="0"/><rect x="455.0" y="514.0" width="18.0" height="25.0" rx="2" fill="#c8d8dd" stroke="#213640" stroke-width="1"/><rect x="75.0" y="495.0" width="20.0" height="88.0" rx="2" fill="#b9c8cc" stroke="#213640" stroke-width="1"/><rect x="78.0" y="500.0" width="14.0" height="4.0" rx="0" fill="#86b6c2" stroke="none" stroke-width="0"/><rect x="1140.0" y="482.0" width="31.0" height="23.0" rx="2" fill="#b9c8cc" stroke="#213640" stroke-width="1"/><rect x="433.0" y="592.0" width="42.0" height="26.0" rx="2" fill="#e4d2bd" stroke="#213640" stroke-width="1"/><rect x="337.0" y="479.0" width="48.0" height="20.0" rx="2" fill="#e8e0cf" stroke="#213640" stroke-width="1"/><rect x="592.0" y="563.0" width="39.0" height="34.0" rx="2" fill="#d7b987" stroke="#213640" stroke-width="1"/><rect x="110.0" y="420.0" width="45.0" height="66.0" rx="2" fill="#c8d8dd" stroke="#213640" stroke-width="1"/><rect x="113.0" y="425.0" width="39.0" height="4.0" rx="0" fill="#86b6c2" stroke="none" stroke-width="0"/><rect x="371.0" y="591.0" width="34.0" height="20.0" rx="2" fill="#d7b987" stroke="#213640" stroke-width="1"/><rect x="1109.0" y="580.0" width="36.0" height="26.0" rx="2" fill="#d7b987" stroke="#213640" stroke-width="1"/><rect x="265.0" y="532.0" width="29.0" height="72.0" rx="2" fill="#c8d8dd" stroke="#213640" stroke-width="1"/><rect x="268.0" y="537.0" width="23.0" height="4.0" rx="0" fill="#86b6c2" stroke="none" stroke-width="0"/><rect x="863.0" y="417.0" width="48.0" height="88.0" rx="2" fill="#e8e0cf" stroke="#213640" stroke-width="1"/><rect x="866.0" y="422.0" width="42.0" height="4.0" rx="0" fill="#86b6c2" stroke="none" stroke-width="0"/><rect x="816.0" y="595.0" width="28.0" height="15.0" rx="2" fill="#b9c8cc" stroke="#213640" stroke-width="1"/><rect x="268.0" y="438.0" width="25.0" height="71.0" rx="2" fill="#d7b987" stroke="#213640" stroke-width="1"/><rect x="271.0" y="443.0" width="19.0" height="4.0" rx="0" fill="#86b6c2" stroke="none" stroke-width="0"/><rect x="705.0" y="426.0" width="27.0" height="51.0" rx="2" fill="#e8e0cf" stroke="#213640" stroke-width="1"/><rect x="708.0" y="431.0" width="21.0" height="4.0" rx="0" fill="#86b6c2" stroke="none" stroke-width="0"/><rect x="1099.0" y="406.0" width="18.0" height="63.0" rx="2" fill="#e4d2bd" stroke="#213640" stroke-width="1"/><rect x="1102.0" y="411.0" width="12.0" height="4.0" rx="0" fill="#86b6c2" stroke="none" stroke-width="0"/><rect x="917.0" y="536.0" width="29.0" height="46.0" rx="2" fill="#e4d2bd" stroke="#213640" stroke-width="1"/><rect x="920.0" y="541.0" width="23.0" height="4.0" rx="0" fill="#86b6c2" stroke="none" stroke-width="0"/><rect x="175.0" y="519.0" width="38.0" height="44.0" rx="2" fill="#e8e0cf" stroke="#213640" stroke-width="1"/><rect x="178.0" y="524.0" width="32.0" height="4.0" rx="0" fill="#86b6c2" stroke="none" stroke-width="0"/><rect x="861.0" y="499.0" width="29.0" height="86.0" rx="2" fill="#d7b987" stroke="#213640" stroke-width="1"/><rect x="864.0" y="504.0" width="23.0" height="4.0" rx="0" fill="#86b6c2" stroke="none" stroke-width="0"/><rect x="324.0" y="589.0" width="27.0" height="36.0" rx="2" fill="#d7b987" stroke="#213640" stroke-width="1"/><rect x="100.0" y="430.0" width="48.0" height="37.0" rx="2" fill="#d7b987" stroke="#213640" stroke-width="1"/><rect x="376.0" y="452.0" width="37.0" height="33.0" rx="2" fill="#e8e0cf" stroke="#213640" stroke-width="1"/><rect x="139.0" y="429.0" width="32.0" height="41.0" rx="2" fill="#b9c8cc" stroke="#213640" stroke-width="1"/><rect x="142.0" y="434.0" width="26.0" height="4.0" rx="0" fill="#86b6c2" stroke="none" stroke-width="0"/><rect x="642.0" y="551.0" width="18.0" height="60.0" rx="2" fill="#d7b987" stroke="#213640" stroke-width="1"/><rect x="645.0" y="556.0" width="12.0" height="4.0" rx="0" fill="#86b6c2" stroke="none" stroke-width="0"/><rect x="328.0" y="528.0" width="35.0" height="50.0" rx="2" fill="#c8d8dd" stroke="#213640" stroke-width="1"/><rect x="331.0" y="533.0" width="29.0" height="4.0" rx="0" fill="#86b6c2" stroke="none" stroke-width="0"/><rect x="217.0" y="594.0" width="35.0" height="52.0" rx="2" fill="#e8e0cf" stroke="#213640" stroke-width="1"/><rect x="220.0" y="599.0" width="29.0" height="4.0" rx="0" fill="#86b6c2" stroke="none" stroke-width="0"/><rect x="174.0" y="529.0" width="32.0" height="33.0" rx="2" fill="#e4d2bd" stroke="#213640" stroke-width="1"/><rect x="824.0" y="569.0" width="46.0" height="36.0" rx="2" fill="#d7b987" stroke="#213640" stroke-width="1"/><rect x="1052.0" y="523.0" width="21.0" height="21.0" rx="2" fill="#d7b987" stroke="#213640" stroke-width="1"/><rect x="1123.0" y="462.0" width="23.0" height="25.0" rx="2" fill="#c8d8dd" stroke="#213640" stroke-width="1"/><rect x="495.0" y="421.0" width="24.0" height="37.0" rx="2" fill="#b9c8cc" stroke="#213640" stroke-width="1"/><rect x="975.0" y="522.0" width="35.0" height="84.0" rx="2" fill="#b9c8cc" stroke="#213640" stroke-width="1"/><rect x="978.0" y="527.0" width="29.0" height="4.0" rx="0" fill="#86b6c2" stroke="none" stroke-width="0"/><rect x="210.0" y="423.0" width="35.0" height="76.0" rx="2" fill="#e4d2bd" stroke="#213640" stroke-width="1"/><rect x="213.0" y="428.0" width="29.0" height="4.0" rx="0" fill="#86b6c2" stroke="none" stroke-width="0"/><rect x="577.0" y="574.0" width="20.0" height="18.0" rx="2" fill="#e4d2bd" stroke="#213640" stroke-width="1"/><rect x="932.0" y="512.0" width="27.0" height="82.0" rx="2" fill="#e4d2bd" stroke="#213640" stroke-width="1"/><rect x="935.0" y="517.0" width="21.0" height="4.0" rx="0" fill="#86b6c2" stroke="none" stroke-width="0"/><rect x="1140.0" y="596.0" width="47.0" height="23.0" rx="2" fill="#e4d2bd" stroke="#213640" stroke-width="1"/><rect x="655.0" y="428.0" width="41.0" height="43.0" rx="2" fill="#c8d8dd" stroke="#213640" stroke-width="1"/><rect x="658.0" y="433.0" width="35.0" height="4.0" rx="0" fill="#86b6c2" stroke="none" stroke-width="0"/><rect x="251.0" y="403.0" width="40.0" height="77.0" rx="2" fill="#b9c8cc" stroke="#213640" stroke-width="1"/><rect x="254.0" y="408.0" width="34.0" height="4.0" rx="0" fill="#86b6c2" stroke="none" stroke-width="0"/><rect x="163.0" y="559.0" width="46.0" height="21.0" rx="2" fill="#e4d2bd" stroke="#213640" stroke-width="1"/><rect x="99.0" y="477.0" width="25.0" height="73.0" rx="2" fill="#c8d8dd" stroke="#213640" stroke-width="1"/><rect x="102.0" y="482.0" width="19.0" height="4.0" rx="0" fill="#86b6c2" stroke="none" stroke-width="0"/><rect x="800.0" y="563.0" width="36.0" height="78.0" rx="2" fill="#c8d8dd" stroke="#213640" stroke-width="1"/><rect x="803.0" y="568.0" width="30.0" height="4.0" rx="0" fill="#86b6c2" stroke="none" stroke-width="0"/><rect x="113.0" y="589.0" width="37.0" height="25.0" rx="2" fill="#e4d2bd" stroke="#213640" stroke-width="1"/><rect x="136.0" y="561.0" width="31.0" height="67.0" rx="2" fill="#e4d2bd" stroke="#213640" stroke-width="1"/><rect x="139.0" y="566.0" width="25.0" height="4.0" rx="0" fill="#86b6c2" stroke="none" stroke-width="0"/><rect x="181.0" y="456.0" width="24.0" height="19.0" rx="2" fill="#e4d2bd" stroke="#213640" stroke-width="1"/><rect x="411.0" y="458.0" width="20.0" height="18.0" rx="2" fill="#d7b987" stroke="#213640" stroke-width="1"/><rect x="1003.0" y="520.0" width="35.0" height="75.0" rx="2" fill="#e8e0cf" stroke="#213640" stroke-width="1"/><rect x="1006.0" y="525.0" width="29.0" height="4.0" rx="0" fill="#86b6c2" stroke="none" stroke-width="0"/><rect x="914.0" y="349.0" width="65.0" height="90.0" rx="0" fill="#6e7f86" stroke="none" stroke-width="0"/><rect x="938.0" y="324.0" width="18.0" height="25.0" rx="0" fill="#d9b04d" stroke="none" stroke-width="0"/><rect x="461.0" y="395.0" width="80.0" height="45.0" rx="0" fill="#bfc8c4" stroke="none" stroke-width="0"/><circle cx="501.0" cy="395.0" r="28.0" fill="#5d7d6d"/><rect x="921.0" y="416.0" width="90.0" height="55.0" rx="0" fill="#b8c8cb" stroke="none" stroke-width="0"/><rect x="953.0" y="376.0" width="26.0" height="40.0" rx="0" fill="#59798b" stroke="none" stroke-width="0"/><rect x="128.0" y="359.0" width="24.0" height="130.0" rx="0" fill="#4d6771" stroke="none" stroke-width="0"/><rect x="121.0" y="344.0" width="38.0" height="15.0" rx="0" fill="#d4b15d" stroke="none" stroke-width="0"/><circle cx="934.0" cy="621.0" r="7.0" fill="#2d6b4b"/><rect x="932.0" y="621.0" width="4.0" height="10.0" rx="0" fill="#614a35" stroke="none" stroke-width="0"/><circle cx="805.0" cy="592.0" r="7.0" fill="#2d6b4b"/><rect x="803.0" y="592.0" width="4.0" height="10.0" rx="0" fill="#614a35" stroke="none" stroke-width="0"/><circle cx="232.0" cy="559.0" r="8.0" fill="#2d6b4b"/><rect x="230.0" y="559.0" width="4.0" height="10.0" rx="0" fill="#614a35" stroke="none" stroke-width="0"/><circle cx="939.0" cy="669.0" r="7.0" fill="#2d6b4b"/><rect x="937.0" y="669.0" width="4.0" height="10.0" rx="0" fill="#614a35" stroke="none" stroke-width="0"/><circle cx="408.0" cy="526.0" r="6.0" fill="#2d6b4b"/><rect x="406.0" y="526.0" width="4.0" height="10.0" rx="0" fill="#614a35" stroke="none" stroke-width="0"/><circle cx="241.0" cy="483.0" r="6.0" fill="#2d6b4b"/><rect x="239.0" y="483.0" width="4.0" height="10.0" rx="0" fill="#614a35" stroke="none" stroke-width="0"/><circle cx="167.0" cy="635.0" r="6.0" fill="#2d6b4b"/><rect x="165.0" y="635.0" width="4.0" height="10.0" rx="0" fill="#614a35" stroke="none" stroke-width="0"/><circle cx="777.0" cy="496.0" r="5.0" fill="#2d6b4b"/><rect x="775.0" y="496.0" width="4.0" height="10.0" rx="0" fill="#614a35" stroke="none" stroke-width="0"/><circle cx="972.0" cy="630.0" r="13.0" fill="#2d6b4b"/><rect x="970.0" y="630.0" width="4.0" height="10.0" rx="0" fill="#614a35" stroke="none" stroke-width="0"/><circle cx="425.0" cy="564.0" r="6.0" fill="#2d6b4b"/><rect x="423.0" y="564.0" width="4.0" height="10.0" rx="0" fill="#614a35" stroke="none" stroke-width="0"/><circle cx="498.0" cy="471.0" r="9.0" fill="#2d6b4b"/><rect x="496.0" y="471.0" width="4.0" height="10.0" rx="0" fill="#614a35" stroke="none" stroke-width="0"/><circle cx="1075.0" cy="644.0" r="8.0" fill="#2d6b4b"/><rect x="1073.0" y="644.0" width="4.0" height="10.0" rx="0" fill="#614a35" stroke="none" stroke-width="0"/><circle cx="46.0" cy="582.0" r="9.0" fill="#2d6b4b"/><rect x="44.0" y="582.0" width="4.0" height="10.0" rx="0" fill="#614a35" stroke="none" stroke-width="0"/><circle cx="60.0" cy="496.0" r="13.0" fill="#2d6b4b"/><rect x="58.0" y="496.0" width="4.0" height="10.0" rx="0" fill="#614a35" stroke="none" stroke-width="0"/><circle cx="869.0" cy="484.0" r="9.0" fill="#2d6b4b"/><rect x="867.0" y="484.0" width="4.0" height="10.0" rx="0" fill="#614a35" stroke="none" stroke-width="0"/><circle cx="988.0" cy="550.0" r="8.0" fill="#2d6b4b"/><rect x="986.0" y="550.0" width="4.0" height="10.0" rx="0" fill="#614a35" stroke="none" stroke-width="0"/><circle cx="135.0" cy="644.0" r="9.0" fill="#2d6b4b"/><rect x="133.0" y="644.0" width="4.0" height="10.0" rx="0" fill="#614a35" stroke="none" stroke-width="0"/><circle cx="285.0" cy="546.0" r="5.0" fill="#2d6b4b"/><rect x="283.0" y="546.0" width="4.0" height="10.0" rx="0" fill="#614a35" stroke="none" stroke-width="0"/><circle cx="397.0" cy="560.0" r="11.0" fill="#2d6b4b"/><rect x="395.0" y="560.0" width="4.0" height="10.0" rx="0" fill="#614a35" stroke="none" stroke-width="0"/><circle cx="29.0" cy="547.0" r="6.0" fill="#2d6b4b"/><rect x="27.0" y="547.0" width="4.0" height="10.0" rx="0" fill="#614a35" stroke="none" stroke-width="0"/><circle cx="75.0" cy="551.0" r="12.0" fill="#2d6b4b"/><rect x="73.0" y="551.0" width="4.0" height="10.0" rx="0" fill="#614a35" stroke="none" stroke-width="0"/><circle cx="521.0" cy="576.0" r="10.0" fill="#2d6b4b"/><rect x="519.0" y="576.0" width="4.0" height="10.0" rx="0" fill="#614a35" stroke="none" stroke-width="0"/><circle cx="1022.0" cy="614.0" r="10.0" fill="#2d6b4b"/><rect x="1020.0" y="614.0" width="4.0" height="10.0" rx="0" fill="#614a35" stroke="none" stroke-width="0"/><circle cx="832.0" cy="580.0" r="8.0" fill="#2d6b4b"/><rect x="830.0" y="580.0" width="4.0" height="10.0" rx="0" fill="#614a35" stroke="none" stroke-width="0"/><circle cx="175.0" cy="540.0" r="9.0" fill="#2d6b4b"/><rect x="173.0" y="540.0" width="4.0" height="10.0" rx="0" fill="#614a35" stroke="none" stroke-width="0"/><circle cx="960.0" cy="589.0" r="12.0" fill="#2d6b4b"/><rect x="958.0" y="589.0" width="4.0" height="10.0" rx="0" fill="#614a35" stroke="none" stroke-width="0"/><circle cx="915.0" cy="568.0" r="7.0" fill="#2d6b4b"/><rect x="913.0" y="568.0" width="4.0" height="10.0" rx="0" fill="#614a35" stroke="none" stroke-width="0"/><circle cx="689.0" cy="572.0" r="5.0" fill="#2d6b4b"/><rect x="687.0" y="572.0" width="4.0" height="10.0" rx="0" fill="#614a35" stroke="none" stroke-width="0"/><circle cx="680.0" cy="493.0" r="7.0" fill="#2d6b4b"/><rect x="678.0" y="493.0" width="4.0" height="10.0" rx="0" fill="#614a35" stroke="none" stroke-width="0"/><circle cx="665.0" cy="609.0" r="5.0" fill="#2d6b4b"/><rect x="663.0" y="609.0" width="4.0" height="10.0" rx="0" fill="#614a35" stroke="none" stroke-width="0"/><circle cx="401.0" cy="524.0" r="10.0" fill="#2d6b4b"/><rect x="399.0" y="524.0" width="4.0" height="10.0" rx="0" fill="#614a35" stroke="none" stroke-width="0"/><circle cx="296.0" cy="630.0" r="6.0" fill="#2d6b4b"/><rect x="294.0" y="630.0" width="4.0" height="10.0" rx="0" fill="#614a35" stroke="none" stroke-width="0"/><circle cx="706.0" cy="584.0" r="11.0" fill="#2d6b4b"/><rect x="704.0" y="584.0" width="4.0" height="10.0" rx="0" fill="#614a35" stroke="none" stroke-width="0"/><circle cx="447.0" cy="648.0" r="13.0" fill="#2d6b4b"/><rect x="445.0" y="648.0" width="4.0" height="10.0" rx="0" fill="#614a35" stroke="none" stroke-width="0"/><circle cx="701.0" cy="489.0" r="5.0" fill="#2d6b4b"/><rect x="699.0" y="489.0" width="4.0" height="10.0" rx="0" fill="#614a35" stroke="none" stroke-width="0"/><circle cx="845.0" cy="190.0" r="24.0" fill="#fff0b0"/></svg>