<svg xmlns="http://www.w3.org/2000/svg" viewBox="0 0 1200 700"><defs><linearGradient id="sky" x2="0" y2="1"><stop stop-color="#f2c48e"/><stop offset="1" stop-color="#e7b07d"/></linearGradient><linearGradient id="ground" x2="0" y2="1"><stop stop-color="#567f62"/><stop offset="1" stop-color="#2d5640"/></linearGradient></defs><rect x="0.0" y="0.0" width="1200.0" height="700.0" rx="0" fill="url(#sky)" stroke="none" stroke-width="0"/><rect x="0.0" y="410.0" width="1200.0" height="290.0" rx="0" fill="url(#ground)" stroke="none" stroke-width="0"/><polygon points="-100.0,410.0 50.0,258.0 200.0,410.0" fill="#557060" stroke="none" stroke-width="0"/><polygon points="180.0,410.0 330.0,264.0 480.0,410.0" fill="#557060" stroke="none" stroke-width="0"/><polygon points="460.0,410.0 610.0,270.0 760.0,410.0" fill="#557060" stroke="none" stroke-width="0"/><polygon points="740.0,410.0 890.0,310.0 1040.0,410.0" fill="#557060" stroke="none" stroke-width="0"/><polygon points="1020.0,410.0 1170.0,223.0 1320.0,410.0" fill="#557060" stroke="none" stroke-width="0"/><polyline points="662.0,400.0 449.0,500.0 643.0,700.0" fill="none" stroke="#4a9bb4" stroke-width="34" opacity="0.95" stroke-linecap="round" /><polyline points="662.0,400.0 449.0,500.0 643.0,700.0" fill="none" stroke="#7cc6d3" stroke-width="17" opacity="0.8" stroke-linecap="round" /><polyline points="753.0,700.0 403.0,405.0" fill="none" stroke="#30383c" stroke-width="5" opacity="0.9" stroke-linecap="round" /><polyline points="397.0,700.0 503.0,477.0" fill="none" stroke="#30383c" stroke-width="5" opacity="0.9" stroke-linecap="round" /><polyline points="902.0,700.0 834.0,495.0" fill="none" stroke="#30383c" stroke-width="5" opacity="0.9" stroke-linecap="round" /><polyline points="303.0,700.0 498.0,459.0" fill="none" stroke="#30383c" stroke-width="5" opacity="0.9" stroke-linecap="round" /><polyline points="947.0,700.0 711.0,452.0" fill="none" stroke="#30383c" stroke-width="5" opacity="0.9" stroke-linecap="round" /><polyline points="618.0,700.0 508.0,488.0" fill="none" stroke="#30383c" stroke-width="5" opacity="0.9" stroke-linecap="round" /><polyline points="509.0,700.0 523.0,429.0" fill="none" stroke="#30383c" stroke-width="5" opacity="0.9" stroke-linecap="round" /><rect x="1025.0" y="405.0" width="30.0" height="51.0" rx="2" fill="#d7b987" stroke="#213640" stroke-width="1"/><rect x="1028.0" y="410.0" width="24.0" height="4.0" rx="0" fill="#86b6c2" stroke="none" stroke-width="0"/><rect x="627.0" y="597.0" width="42.0" height="27.0" rx="2" fill="#e4d2bd" stroke="#213640" stroke-width="1"/><rect x="1126.0" y="406.0" width="29.0" height="63.0" rx="2" fill="#c8d8dd" stroke="#213640" stroke-width="1"/><rect x="1129.0" y="411.0" width="23.0" height="4.0" rx="0" fill="#86b6c2" stroke="none" stroke-width="0"/><rect x="668.0" y="514.0" width="40.0" height="24.0" rx="2" fill="#e8e0cf" stroke="#213640" stroke-width="1"/><rect x="1054.0" y="528.0" width="22.0" height="52.0" rx="2" fill="#d7b987" stroke="#213640" stroke-width="1"/><rect x="1057.0" y="533.0" width="16.0" height="4.0" rx="0" fill="#86b6c2" stroke="none" stroke-width="0"/><rect x="324.0" y="604.0" width="29.0" height="43.0" rx="2" fill="#e4d2bd" stroke="#213640" stroke-width="1"/><rect x="327.0" y="609.0" width="23.0" height="4.0" rx="0" fill="#86b6c2" stroke="none" stroke-width="0"/><rect x="1035.0" y="454.0" width="23.0" height="55.0" rx="2" fill="#e8e0cf" stroke="#213640" stroke-width="1"/><rect x="1038.0" y="459.0" width="17.0" height="4.0" rx="0" fill="#86b6c2" stroke="none" stroke-width="0"/><rect x="132.0" y="388.0" width="22.0" height="85.0" rx="2" fill="#e4d2bd" stroke="#213640" stroke-width="1"/><rect x="135.0" y="393.0" width="16.0" height="4.0" rx="0" fill="#86b6c2" stroke="none" stroke-width="0"/><rect x="765.0" y="552.0" width="39.0" height="27.0" rx="2" fill="#e8e0cf" stroke="#213640" stroke-width="1"/><rect x="417.0" y="500.0" width="28.0" height="84.0" rx="2" fill="#e8e0cf" stroke="#213640" stroke-width="1"/><rect x="420.0" y="505.0" width="22.0" height="4.0" rx="0" fill="#86b6c2" stroke="none" stroke-width="0"/><rect x="90.0" y="603.0" width="34.0" height="28.0" rx="2" fill="#b9c8cc" stroke="#213640" stroke-width="1"/><rect x="870.0" y="552.0" width="24.0" height="43.0" rx="2" fill="#d7b987" stroke="#213640" stroke-width="1"/><rect x="873.0" y="557.0" width="18.0" height="4.0" rx="0" fill="#86b6c2" stroke="none" stroke-width="0"/><rect x="984.0" y="507.0" width="35.0" height="54.0" rx="2" fill="#c8d8dd" stroke="#213640" stroke-width="1"/><rect x="987.0" y="512.0" width="29.0" height="4.0" rx="0" fill="#86b6c2" stroke="none" stroke-width="0"/><rect x="460.0" y="552.0" width="48.0" height="67.0" rx="2" fill="#e4d2bd" stroke="#213640" stroke-width="1"/><rect x="463.0" y="557.0" width="42.0" height="4.0" rx="0" fill="#86b6c2" stroke="none" stroke-width="0"/><rect x="841.0" y="504.0" width="23.0" height="89.0" rx="2" fill="#b9c8cc" stroke="#213640" stroke-width="1"/><rect x="844.0" y="509.0" width="17.0" height="4.0" rx="0" fill="#86b6c2" stroke="none" stroke-width="0"/><rect x="178.0" y="592.0" width="35.0" height="58.0" rx="2" fill="#c8d8dd" stroke="#213640" stroke-width="1"/><rect x="181.0" y="597.0" width="29.0" height="4.0" rx="0" fill="#86b6c2" stroke="none" stroke-width="0"/><rect x="711.0" y="524.0" width="24.0" height="81.0" rx="2" fill="#b9c8cc" stroke="#213640" stroke-width="1"/><rect x="714.0" y="529.0" width="18.0" height="4.0" rx="0" fill="#86b6c2" stroke="none" stroke-width="0"/><rect x="117.0" y="424.0" width="38.0" height="54.0" rx="2" fill="#b9c8cc" stroke="#213640" stroke-width="1"/><rect x="120.0" y="429.0" width="32.0" height="4.0" rx="0" fill="#86b6c2" stroke="none" stroke-width="0"/><rect x="47.0" y="464.0" width="45.0" height="39.0" rx="2" fill="#e4d2bd" stroke="#213640" stroke-width="1"/><rect x="310.0" y="462.0" width="39.0" height="74.0" rx="2" fill="#e4d2bd" stroke="#213640" stroke-width="1"/><rect x="313.0" y="467.0" width="33.0" height="4.0" rx="0" fill="#86b6c2" stroke="none" stroke-width="0"/><rect x="181.0" y="449.0" width="31.0" height="58.0" rx="2" fill="#c8d8dd" stroke="#213640" stroke-width="1"/><rect x="184.0" y="454.0" width="25.0" height="4.0" rx="0" fill="#86b6c2" stroke="none" stroke-width="0"/><rect x="824.0" y="526.0" width="27.0" height="29.0" rx="2" fill="#e8e0cf" stroke="#213640" stroke-width="1"/><rect x="1086.0" y="476.0" width="27.0" height="69.0" rx="2" fill="#e4d2bd" stroke="#213640" stroke-width="1"/><rect x="1089.0" y="481.0" width="21.0" height="4.0" rx="0" fill="#86b6c2" stroke="none" stroke-width="0"/><rect x="1084.0" y="505.0" width="18.0" height="90.0" rx="2" fill="#d7b987" stroke="#213640" stroke-width="1"/><rect x="1087.0" y="510.0" width="12.0" height="4.0" rx="0" fill="#86b6c2" stroke="none" stroke-width="0"/><rect x="524.0" y="484.0" width="26.0" height="51.0" rx="2" fill="#d7b987" stroke="#213640" stroke-width="1"/><rect x="527.0" y="489.0" width="20.0" height="4.0" rx="0" fill="#86b6c2" stroke="none" stroke-width="0"/><rect x="430.0" y="482.0" width="18.0" height="58.0" rx="2" fill="#c8d8dd" stroke="#213640" stroke-width="1"/><rect x="433.0" y="487.0" width="12.0" height="4.0" rx="0" fill="#86b6c2" stroke="none" stroke-width="0"/><rect x="468.0" y="544.0" width="48.0" height="69.0" rx="2" fill="#d7b987" stroke="#213640" stroke-width="1"/><rect x="471.0" y="549.0" width="42.0" height="4.0" rx="0" fill="#86b6c2" stroke="none" stroke-width="0"/><rect x="934.0" y="531.0" width="32.0" height="42.0" rx="2" fill="#b9c8cc" stroke="#213640" stroke-width="1"/><rect x="937.0" y="536.0" width="26.0" height="4.0" rx="0" fill="#86b6c2" stroke="none" stroke-width="0"/><rect x="980.0" y="502.0" width="21.0" height="18.0" rx="2" fill="#d7b987" stroke="#213640" stroke-width="1"/><rect x="212.0" y="409.0" width="25.0" height="75.0" rx="2" fill="#d7b987" stroke="#213640" stroke-width="1"/><rect x="215.0" y="414.0" width="19.0" height="4.0" rx="0" fill="#86b6c2" stroke="none" stroke-width="0"/><rect x="986.0" y="478.0" width="44.0" height="42.0" rx="2" fill="#b9c8cc" stroke="#213640" stroke-width="1"/><rect x="989.0" y="483.0" width="38.0" height="4.0" rx="0" fill="#86b6c2" stroke="none" stroke-width="0"/><rect x="802.0" y="442.0" width="31.0" height="28.0" rx="2" fill="#e4d2bd" stroke="#213640" stroke-width="1"/><rect x="655.0" y="428.0" width="43.0" height="47.0" rx="2" fill="#e8e0cf" stroke="#213640" stroke-width="1"/><rect x="658.0" y="433.0" width="37.0" height="4.0" rx="0" fill="#86b6c2" stroke="none" stroke-width="0"/><rect x="162.0" y="547.0" width="19.0" height="17.0" rx="2" fill="#c8d8dd" stroke="#213640" stroke-width="1"/><rect x="498.0" y="393.0" width="45.0" height="77.0" rx="2" fill="#e8e0cf" stroke="#213640" stroke-width="1"/><rect x="501.0" y="398.0" width="39.0" height="4.0" rx="0" fill="#86b6c2" stroke="none" stroke-width="0"/><rect x="378.0" y="503.0" width="29.0" height="40.0" rx="2" fill="#c8d8dd" stroke="#213640" stroke-width="1"/><rect x="973.0" y="592.0" width="45.0" height="18.0" rx="2" fill="#c8d8dd" stroke="#213640" stroke-width="1"/><rect x="606.0" y="502.0" width="36.0" height="19.0" rx="2" fill="#c8d8dd" stroke="#213640" stroke-width="1"/><rect x="117.0" y="468.0" width="27.0" height="64.0" rx="2" fill="#e4d2bd" stroke="#213640" stroke-width="1"/><rect x="120.0" y="473.0" width="21.0" height="4.0" rx="0" fill="#86b6c2" stroke="none" stroke-width="0"/><rect x="44.0" y="403.0" width="20.0" height="73.0" rx="2" fill="#e8e0cf" stroke="#213640" stroke-width="1"/><rect x="47.0" y="408.0" width="14.0" height="4.0" rx="0" fill="#86b6c2" stroke="none" stroke-width="0"/><rect x="308.0" y="507.0" width="23.0" height="78.0" rx="2" fill="#c8d8dd" stroke="#213640" stroke-width="1"/><rect x="311.0" y="512.0" width="17.0" height="4.0" rx="0" fill="#86b6c2" stroke="none" stroke-width="0"/><rect x="429.0" y="628.0" width="31.0" height="17.0" rx="2" fill="#e4d2bd" stroke="#213640" stroke-width="1"/><rect x="294.0" y="475.0" width="37.0" height="66.0" rx="2" fill="#e4d2bd" stroke="#213640" stroke-width="1"/><rect x="297.0" y="480.0" width="31.0" height="4.0" rx="0" fill="#86b6c2" stroke="none" stroke-width="0"/><rect x="1012.0" y="615.0" width="37.0" height="19.0" rx="2" fill="#b9c8cc" stroke="#213640" stroke-width="1"/><rect x="960.0" y="541.0" width="36.0" height="33.0" rx="2" fill="#e4d2bd" stroke="#213640" stroke-width="1"/><rect x="1069.0" y="383.0" width="55.0" height="75.0" rx="0" fill="#bfcbd0" stroke="none" stroke-width="0"/><polygon points="1063.0,383.0 1096.0,353.0 1130.0,383.0" fill="#6f8f9c" stroke="none" stroke-width="0"/><rect x="789.0" y="360.0" width="65.0" height="90.0" rx="0" fill="#6e7f86" stroke="none" stroke-width="0"/><rect x="813.0" y="335.0" width="18.0" height="25.0" rx="0" fill="#d9b04d" stroke="none" stroke-width="0"/><rect x="1027.0" y="478.0" width="80.0" height="45.0" rx="0" fill="#bfc8c4" stroke="none" stroke-width="0"/><circle cx="1067.0" cy="478.0" r="28.0" fill="#5d7d6d"/><rect x="800.0" y="432.0" width="90.0" height="55.0" rx="0" fill="#b8c8cb" stroke="none" stroke-width="0"/><rect x="832.0" y="392.0" width="26.0" height="40.0" rx="0" fill="#59798b" stroke="none" stroke-width="0"/><circle cx="881.0" cy="566.0" r="5.0" fill="#2d6b4b"/><rect x="879.0" y="566.0" width="4.0" height="10.0" rx="0" fill="#614a35" stroke="none" stroke-width="0"/><circle cx="541.0" cy="611.0" r="7.0" fill="#2d6b4b"/><rect x="539.0" y="611.0" width="4.0" height="10.0" rx="0" fill="#614a35" stroke="none" stroke-width="0"/><circle cx="92.0" cy="649.0" r="11.0" fill="#2d6b4b"/><rect x="90.0" y="649.0" width="4.0" height="10.0" rx="0" fill="#614a35" stroke="none" stroke-width="0"/><circle cx="1069.0" cy="644.0" r="8.0" fill="#2d6b4b"/><rect x="1067.0" y="644.0" width="4.0" height="10.0" rx="0" fill="#614a35" stroke="none" stroke-width="0"/><circle cx="461.0" cy="566.0" r="10.0" fill="#2d6b4b"/><rect x="459.0" y="566.0" width="4.0" height="10.0" rx="0" fill="#614a35" stroke="none" stroke-width="0"/><circle cx="1110.0" cy="477.0" r="11.0" fill="#2d6b4b"/><rect x="1108.0" y="477.0" width="4.0" height="10.0" rx="0" fill="#614a35" stroke="none" stroke-width="0"/><circle cx="631.0" cy="656.0" r="11.0" fill="#2d6b4b"/><rect x="629.0" y="656.0" width="4.0" height="10.0" rx="0" fill="#614a35" stroke="none" stroke-width="0"/><circle cx="395.0" cy="572.0" r="11.0" fill="#2d6b4b"/><rect x="393.0" y="572.0" width="4.0" height="10.0" rx="0" fill="#614a35" stroke="none" stroke-width="0"/><circle cx="1075.0" cy="570.0" r="11.0" fill="#2d6b4b"/><rect x="1073.0" y="570.0" width="4.0" height="10.0" rx="0" fill="#614a35" stroke="none" stroke-width="0"/><circle cx="377.0" cy="547.0" r="8.0" fill="#2d6b4b"/><rect x="375.0" y="547.0" width="4.0" height="10.0" rx="0" fill="#614a35" stroke="none" stroke-width="0"/><circle cx="516.0" cy="549.0" r="13.0" fill="#2d6b4b"/><rect x="514.0" y="549.0" width="4.0" height="10.0" rx="0" fill="#614a35" stroke="none" stroke-width="0"/><circle cx="1108.0" cy="666.0" r="10.0" fill="#2d6b4b"/><rect x="1106.0" y="666.0" width="4.0" height="10.0" rx="0" fill="#614a35" stroke="none" stroke-width="0"/><circle cx="1111.0" cy="650.0" r="7.0" fill="#2d6b4b"/><rect x="1109.0" y="650.0" width="4.0" height="10.0" rx="0" fill="#614a35" stroke="none" stroke-width="0"/><circle cx="762.0" cy="585.0" r="5.0" fill="#2d6b4b"/><rect x="760.0" y="585.0" width="4.0" height="10.0" rx="0" fill="#614a35" stroke="none" stroke-width="0"/><circle cx="303.0" cy="549.0" r="9.0" fill="#2d6b4b"/><rect x="301.0" y="549.0" width="4.0" height="10.0" rx="0" fill="#614a35" stroke="none" stroke-width="0"/><circle cx="314.0" cy="606.0" r="6.0" fill="#2d6b4b"/><rect x="312.0" y="606.0" width="4.0" height="10.0" rx="0" fill="#614a35" stroke="none" stroke-width="0"/><circle cx="1170.0" cy="580.0" r="12.0" fill="#2d6b4b"/><rect x="1168.0" y="580.0" width="4.0" height="10.0" rx="0" fill="#614a35" stroke="none" stroke-width="0"/><circle cx="457.0" cy="675.0" r="8.0" fill="#2d6b4b"/><rect x="455.0" y="675.0" width="4.0" height="10.0" rx="0" fill="#614a35" stroke="none" stroke-width="0"/><circle cx="1152.0" cy="557.0" r="10.0" fill="#2d6b4b"/><rect x="1150.0" y="557.0" width="4.0" height="10.0" rx="0" fill="#614a35" stroke="none" stroke-width="0"/><circle cx="389.0" cy="565.0" r="12.0" fill="#2d6b4b"/><rect x="387.0" y="565.0" width="4.0" height="10.0" rx="0" fill="#614a35" stroke="none" stroke-width="0"/><circle cx="943.0" cy="600.0" r="8.0" fill="#2d6b4b"/><rect x="941.0" y="600.0" width="4.0" height="10.0" rx="0" fill="#614a35" stroke="none" stroke-width="0"/><circle cx="945.0" cy="650.0" r="13.0" fill="#2d6b4b"/><rect x="943.0" y="650.0" width="4.0" height="10.0" rx="0" fill="#614a35" stroke="none" stroke-width="0"/><circle cx="288.0" cy="594.0" r="9.0" fill="#2d6b4b"/><rect x="286.0" y="594.0" width="4.0" height="10.0" rx="0" fill="#614a35" stroke="none" stroke-width="0"/><circle cx="799.0" cy="587.0" r="5.0" fill="#2d6b4b"/><rect x="797.0" y="587.0" width="4.0" height="10.0" rx="0" fill="#614a35" stroke="none" stroke-width="0"/><circle cx="733.0" cy="615.0" r="6.0" fill="#2d6b4b"/><rect x="731.0" y="615.0" width="4.0" height="10.0" rx="0" fill="#614a35" stroke="none" stroke-width="0"/><circle cx="908.0" cy="626.0" r="6.0" fill="#2d6b4b"/><rect x="906.0" y="626.0" width="4.0" height="10.0" rx="0" fill="#614a35" stroke="none" stroke-width="0"/><circle cx="831.0" cy="573.0" r="5.0" fill="#2d6b4b"/><rect x="829.0" y="573.0" width="4.0" height="10.0" rx="0" fill="#614a35" stroke="none" stroke-width="0"/><circle cx="856.0" cy="533.0" r="7.0" fill="#2d6b4b"/><rect x="854.0" y="533.0" width="4.0" height="10.0" rx="0" fill="#614a35" stroke="none" stroke-width="0"/><circle cx="1037.0" cy="513.0" r="9.0" fill="#2d6b4b"/><rect x="1035.0" y="513.0" width="4.0" height="10.0" rx="0" fill="#614a35" stroke="none" stroke-width="0"/><circle cx="940.0" cy="633.0" r="9.0" fill="#2d6b4b"/><rect x="938.0" y="633.0" width="4.0" height="10.0" rx="0" fill="#614a35" stroke="none" stroke-width="0"/><circle cx="521.0" cy="574.0" r="9.0" fill="#2d6b4b"/><rect x="519.0" y="574.0" width="4.0" height="10.0" rx="0" fill="#614a35" stroke="none" stroke-width="0"/><circle cx="729.0" cy="588.0" r="9.0" fill="#2d6b4b"/><rect x="727.0" y="588.0" width="4.0" height="10.0" rx="0" fill="#614a35" stroke="none" stroke-width="0"/><circle cx="1026.0" cy="621.0" r="13.0" fill="#2d6b4b"/><rect x="1024.0" y="621.0" width="4.0" height="10.0" rx="0" fill="#614a35" stroke="none" stroke-width="0"/><circle cx="934.0" cy="661.0" r="9.0" fill="#2d6b4b"/><rect x="932.0" y="661.0" width="4.0" height="10.0" rx="0" fill="#614a35" stroke="none" stroke-width="0"/><circle cx="167.0" cy="662.0" r="5.0" fill="#2d6b4b"/><rect x="165.0" y="662.0" width="4.0" height="10.0" rx="0" fill="#614a35" stroke="none" stroke-width="0"/><polyline points="648.0,585.0 908.0,565.0" fill="none" stroke="#c8b07a" stroke-width="12" opacity="0.9" stroke-linecap="round" /><polyline points="648.0,585.0 648.0,540.0" fill="none" stroke="#a98e61" stroke-width="3" opacity="0.8" stroke-linecap="round" /><polyline points="700.0,585.0 700.0,540.0" fill="none" stroke="#a98e61" stroke-width="3" opacity="0.8" stroke-linecap="round" /><polyline points="752.0,585.0 752.0,540.0" fill="none" stroke="#a98e61" stroke-width="3" opacity="0.8" stroke-linecap="round" /><polyline points="804.0,585.0 804.0,540.0" fill="none" stroke="#a98e61" stroke-width="3" opacity="0.8" stroke-linecap="round" /><polyline points="856.0,585.0 856.0,540.0" fill="none" stroke="#a98e61" stroke-width="3" opacity="0.8" stroke-linecap="round" /><circle cx="951.0" cy="155.0" r="24.0" fill="#fff0b0"/></svg>