<svg xmlns="http://www.w3.org/2000/svg" viewBox="0 0 1200 700"><defs><linearGradient id="sky" x2="0" y2="1"><stop stop-color="#8fd0e8"/><stop offset="1" stop-color="#e7b07d"/></linearGradient><linearGradient id="ground" x2="0" y2="1"><stop stop-color="#9a9a78"/><stop offset="1" stop-color="#2d5640"/></linearGradient></defs><rect x="0.0" y="0.0" width="1200.0" height="700.0" rx="0" fill="url(#sky)" stroke="none" stroke-width="0"/><rect x="0.0" y="410.0" width="1200.0" height="290.0" rx="0" fill="url(#ground)" stroke="none" stroke-width="0"/><polygon points="-100.0,410.0 50.0,298.0 200.0,410.0" fill="#557060" stroke="none" stroke-width="0"/><polygon points="180.0,410.0 330.0,320.0 480.0,410.0" fill="#557060" stroke="none" stroke-width="0"/><polygon points="460.0,410.0 610.0,292.0 760.0,410.0" fill="#557060" stroke="none" stroke-width="0"/><polygon points="740.0,410.0 890.0,287.0 1040.0,410.0" fill="#557060" stroke="none" stroke-width="0"/><polygon points="1020.0,410.0 1170.0,328.0 1320.0,410.0" fill="#557060" stroke="none" stroke-width="0"/><polyline points="90.0,700.0 113.0,420.0" fill="none" stroke="#30383c" stroke-width="7" opacity="0.95" stroke-linecap="round" /><polyline points="180.0,700.0 109.0,420.0" fill="none" stroke="#30383c" stroke-width="9" opacity="0.95" stroke-linecap="round" /><polyline points="270.0,700.0 200.0,420.0" fill="none" stroke="#30383c" stroke-width="9" opacity="0.95" stroke-linecap="round" /><polyline points="360.0,700.0 450.0,420.0" fill="none" stroke="#30383c" stroke-width="11" opacity="0.95" stroke-linecap="round" /><polyline points="450.0,700.0 359.0,420.0" fill="none" stroke="#30383c" stroke-width="11" opacity="0.95" stroke-linecap="round" /><polyline points="540.0,700.0 457.0,420.0" fill="none" stroke="#30383c" stroke-width="7" opacity="0.95" stroke-linecap="round" /><polyline points="630.0,700.0 599.0,420.0" fill="none" stroke="#30383c" stroke-width="11" opacity="0.95" stroke-linecap="round" /><polyline points="720.0,700.0 659.0,420.0" fill="none" stroke="#30383c" stroke-width="7" opacity="0.95" stroke-linecap="round" /><polyline points="810.0,700.0 904.0,420.0" fill="none" stroke="#30383c" stroke-width="11" opacity="0.95" stroke-linecap="round" /><polyline points="900.0,700.0 909.0,420.0" fill="none" stroke="#30383c" stroke-width="7" opacity="0.95" stroke-linecap="round" /><polyline points="990.0,700.0 1046.0,420.0" fill="none" stroke="#30383c" stroke-width="9" opacity="0.95" stroke-linecap="round" /><polyline points="1080.0,700.0 1016.0,420.0" fill="none" stroke="#30383c" stroke-width="11" opacity="0.95" stroke-linecap="round" /><polyline points="1170.0,700.0 1084.0,420.0" fill="none" stroke="#30383c" stroke-width="7" opacity="0.95" stroke-linecap="round" /><polyline points="0.0,460.0 1200.0,455.0" fill="none" stroke="#30383c" stroke-width="8" opacity="0.95" stroke-linecap="round" /><polyline points="0.0,515.0 1200.0,512.0" fill="none" stroke="#30383c" stroke-width="10" opacity="0.95" stroke-linecap="round" /><polyline points="0.0,570.0 1200.0,565.0" fill="none" stroke="#30383c" stroke-width="6" opacity="0.95" stroke-linecap="round" /><polyline points="0.0,625.0 1200.0,626.0" fill="none" stroke="#30383c" stroke-width="6" opacity="0.95" stroke-linecap="round" /><polyline points="0.0,680.0 1200.0,656.0" fill="none" stroke="#30383c" stroke-width="8" opacity="0.95" stroke-linecap="round" /><rect x="689.0" y="382.0" width="38.0" height="172.0" rx="2" fill="#e4d2bd" stroke="#213640" stroke-width="1"/><rect x="692.0" y="387.0" width="32.0" height="4.0" rx="0" fill="#86b6c2" stroke="none" stroke-width="0"/><polygon points="684.0,382.0 708.0,352.0 732.0,382.0" fill="#b84a3d" stroke="none" stroke-width="0"/><rect x="560.0" y="445.0" width="29.0" height="161.0" rx="2" fill="#c8d8dd" stroke="#213640" stroke-width="1"/><rect x="563.0" y="450.0" width="23.0" height="4.0" rx="0" fill="#86b6c2" stroke="none" stroke-width="0"/><rect x="759.0" y="396.0" width="33.0" height="98.0" rx="2" fill="#e4d2bd" stroke="#213640" stroke-width="1"/><rect x="762.0" y="401.0" width="27.0" height="4.0" rx="0" fill="#86b6c2" stroke="none" stroke-width="0"/><rect x="908.0" y="397.0" width="30.0" height="133.0" rx="2" fill="#c8d8dd" stroke="#213640" stroke-width="1"/><rect x="911.0" y="402.0" width="24.0" height="4.0" rx="0" fill="#86b6c2" stroke="none" stroke-width="0"/><rect x="972.0" y="463.0" width="19.0" height="133.0" rx="2" fill="#e4d2bd" stroke="#213640" stroke-width="1"/><rect x="975.0" y="468.0" width="13.0" height="4.0" rx="0" fill="#86b6c2" stroke="none" stroke-width="0"/><rect x="99.0" y="446.0" width="42.0" height="168.0" rx="2" fill="#d7b987" stroke="#213640" stroke-width="1"/><rect x="102.0" y="451.0" width="36.0" height="4.0" rx="0" fill="#86b6c2" stroke="none" stroke-width="0"/><rect x="691.0" y="495.0" width="37.0" height="37.0" rx="2" fill="#d7b987" stroke="#213640" stroke-width="1"/><rect x="141.0" y="522.0" width="37.0" height="35.0" rx="2" fill="#e4d2bd" stroke="#213640" stroke-width="1"/><rect x="781.0" y="466.0" width="24.0" height="147.0" rx="2" fill="#d7b987" stroke="#213640" stroke-width="1"/><rect x="784.0" y="471.0" width="18.0" height="4.0" rx="0" fill="#86b6c2" stroke="none" stroke-width="0"/><rect x="594.0" y="425.0" width="33.0" height="92.0" rx="2" fill="#e8e0cf" stroke="#213640" stroke-width="1"/><rect x="597.0" y="430.0" width="27.0" height="4.0" rx="0" fill="#86b6c2" stroke="none" stroke-width="0"/><rect x="344.0" y="303.0" width="21.0" height="157.0" rx="2" fill="#c8d8dd" stroke="#213640" stroke-width="1"/><rect x="347.0" y="308.0" width="15.0" height="4.0" rx="0" fill="#86b6c2" stroke="none" stroke-width="0"/><rect x="479.0" y="420.0" width="40.0" height="51.0" rx="2" fill="#c8d8dd" stroke="#213640" stroke-width="1"/><rect x="482.0" y="425.0" width="34.0" height="4.0" rx="0" fill="#86b6c2" stroke="none" stroke-width="0"/><polygon points="474.0,420.0 499.0,390.0 524.0,420.0" fill="#b84a3d" stroke="none" stroke-width="0"/><rect x="843.0" y="460.0" width="30.0" height="149.0" rx="2" fill="#d7b987" stroke="#213640" stroke-width="1"/><rect x="846.0" y="465.0" width="24.0" height="4.0" rx="0" fill="#86b6c2" stroke="none" stroke-width="0"/><rect x="822.0" y="481.0" width="40.0" height="76.0" rx="2" fill="#e4d2bd" stroke="#213640" stroke-width="1"/><rect x="825.0" y="486.0" width="34.0" height="4.0" rx="0" fill="#86b6c2" stroke="none" stroke-width="0"/><rect x="101.0" y="332.0" width="25.0" height="141.0" rx="2" fill="#d7b987" stroke="#213640" stroke-width="1"/><rect x="104.0" y="337.0" width="19.0" height="4.0" rx="0" fill="#86b6c2" stroke="none" stroke-width="0"/><rect x="786.0" y="477.0" width="30.0" height="90.0" rx="2" fill="#e4d2bd" stroke="#213640" stroke-width="1"/><rect x="789.0" y="482.0" width="24.0" height="4.0" rx="0" fill="#86b6c2" stroke="none" stroke-width="0"/><rect x="42.0" y="586.0" width="38.0" height="43.0" rx="2" fill="#b9c8cc" stroke="#213640" stroke-width="1"/><rect x="45.0" y="591.0" width="32.0" height="4.0" rx="0" fill="#86b6c2" stroke="none" stroke-width="0"/><rect x="156.0" y="421.0" width="25.0" height="93.0" rx="2" fill="#e8e0cf" stroke="#213640" stroke-width="1"/><rect x="159.0" y="426.0" width="19.0" height="4.0" rx="0" fill="#86b6c2" stroke="none" stroke-width="0"/><rect x="140.0" y="296.0" width="38.0" height="180.0" rx="2" fill="#d7b987" stroke="#213640" stroke-width="1"/><rect x="143.0" y="301.0" width="32.0" height="4.0" rx="0" fill="#86b6c2" stroke="none" stroke-width="0"/><rect x="684.0" y="438.0" width="36.0" height="132.0" rx="2" fill="#e8e0cf" stroke="#213640" stroke-width="1"/><rect x="687.0" y="443.0" width="30.0" height="4.0" rx="0" fill="#86b6c2" stroke="none" stroke-width="0"/><rect x="868.0" y="444.0" width="19.0" height="179.0" rx="2" fill="#b9c8cc" stroke="#213640" stroke-width="1"/><rect x="871.0" y="449.0" width="13.0" height="4.0" rx="0" fill="#86b6c2" stroke="none" stroke-width="0"/><rect x="543.0" y="425.0" width="40.0" height="127.0" rx="2" fill="#d7b987" stroke="#213640" stroke-width="1"/><rect x="546.0" y="430.0" width="34.0" height="4.0" rx="0" fill="#86b6c2" stroke="none" stroke-width="0"/><rect x="207.0" y="478.0" width="25.0" height="118.0" rx="2" fill="#e8e0cf" stroke="#213640" stroke-width="1"/><rect x="210.0" y="483.0" width="19.0" height="4.0" rx="0" fill="#86b6c2" stroke="none" stroke-width="0"/><polygon points="202.0,478.0 219.5,448.0 237.0,478.0" fill="#b84a3d" stroke="none" stroke-width="0"/><rect x="872.0" y="486.0" width="36.0" height="52.0" rx="2" fill="#e4d2bd" stroke="#213640" stroke-width="1"/><rect x="875.0" y="491.0" width="30.0" height="4.0" rx="0" fill="#86b6c2" stroke="none" stroke-width="0"/><rect x="878.0" y="438.0" width="39.0" height="172.0" rx="2" fill="#c8d8dd" stroke="#213640" stroke-width="1"/><rect x="881.0" y="443.0" width="33.0" height="4.0" rx="0" fill="#86b6c2" stroke="none" stroke-width="0"/><rect x="537.0" y="408.0" width="38.0" height="68.0" rx="2" fill="#d7b987" stroke="#213640" stroke-width="1"/><rect x="540.0" y="413.0" width="32.0" height="4.0" rx="0" fill="#86b6c2" stroke="none" stroke-width="0"/><rect x="608.0" y="547.0" width="37.0" height="72.0" rx="2" fill="#e4d2bd" stroke="#213640" stroke-width="1"/><rect x="611.0" y="552.0" width="31.0" height="4.0" rx="0" fill="#86b6c2" stroke="none" stroke-width="0"/><rect x="736.0" y="425.0" width="25.0" height="132.0" rx="2" fill="#e8e0cf" stroke="#213640" stroke-width="1"/><rect x="739.0" y="430.0" width="19.0" height="4.0" rx="0" fill="#86b6c2" stroke="none" stroke-width="0"/><rect x="467.0" y="440.0" width="33.0" height="46.0" rx="2" fill="#e8e0cf" stroke="#213640" stroke-width="1"/><rect x="470.0" y="445.0" width="27.0" height="4.0" rx="0" fill="#86b6c2" stroke="none" stroke-width="0"/><rect x="883.0" y="449.0" width="38.0" height="147.0" rx="2" fill="#e4d2bd" stroke="#213640" stroke-width="1"/><rect x="886.0" y="454.0" width="32.0" height="4.0" rx="0" fill="#86b6c2" stroke="none" stroke-width="0"/><rect x="582.0" y="383.0" width="29.0" height="141.0" rx="2" fill="#c8d8dd" stroke="#213640" stroke-width="1"/><rect x="585.0" y="388.0" width="23.0" height="4.0" rx="0" fill="#86b6c2" stroke="none" stroke-width="0"/><rect x="1030.0" y="532.0" width="23.0" height="59.0" rx="2" fill="#e4d2bd" stroke="#213640" stroke-width="1"/><rect x="1033.0" y="537.0" width="17.0" height="4.0" rx="0" fill="#86b6c2" stroke="none" stroke-width="0"/><rect x="974.0" y="528.0" width="20.0" height="62.0" rx="2" fill="#e4d2bd" stroke="#213640" stroke-width="1"/><rect x="977.0" y="533.0" width="14.0" height="4.0" rx="0" fill="#86b6c2" stroke="none" stroke-width="0"/><rect x="1078.0" y="394.0" width="28.0" height="168.0" rx="2" fill="#c8d8dd" stroke="#213640" stroke-width="1"/><rect x="1081.0" y="399.0" width="22.0" height="4.0" rx="0" fill="#86b6c2" stroke="none" stroke-width="0"/><polygon points="1073.0,394.0 1092.0,364.0 1111.0,394.0" fill="#b84a3d" stroke="none" stroke-width="0"/><rect x="884.0" y="324.0" width="38.0" height="161.0" rx="2" fill="#c8d8dd" stroke="#213640" stroke-width="1"/><rect x="887.0" y="329.0" width="32.0" height="4.0" rx="0" fill="#86b6c2" stroke="none" stroke-width="0"/><rect x="885.0" y="403.0" width="37.0" height="100.0" rx="2" fill="#e8e0cf" stroke="#213640" stroke-width="1"/><rect x="888.0" y="408.0" width="31.0" height="4.0" rx="0" fill="#86b6c2" stroke="none" stroke-width="0"/><rect x="765.0" y="278.0" width="41.0" height="186.0" rx="2" fill="#b9c8cc" stroke="#213640" stroke-width="1"/><rect x="768.0" y="283.0" width="35.0" height="4.0" rx="0" fill="#86b6c2" stroke="none" stroke-width="0"/><rect x="1113.0" y="567.0" width="29.0" height="69.0" rx="2" fill="#e8e0cf" stroke="#213640" stroke-width="1"/><rect x="1116.0" y="572.0" width="23.0" height="4.0" rx="0" fill="#86b6c2" stroke="none" stroke-width="0"/><rect x="740.0" y="556.0" width="23.0" height="83.0" rx="2" fill="#e4d2bd" stroke="#213640" stroke-width="1"/><rect x="743.0" y="561.0" width="17.0" height="4.0" rx="0" fill="#86b6c2" stroke="none" stroke-width="0"/><rect x="656.0" y="298.0" width="35.0" height="167.0" rx="2" fill="#e4d2bd" stroke="#213640" stroke-width="1"/><rect x="659.0" y="303.0" width="29.0" height="4.0" rx="0" fill="#86b6c2" stroke="none" stroke-width="0"/><rect x="395.0" y="398.0" width="21.0" height="143.0" rx="2" fill="#c8d8dd" stroke="#213640" stroke-width="1"/><rect x="398.0" y="403.0" width="15.0" height="4.0" rx="0" fill="#86b6c2" stroke="none" stroke-width="0"/><rect x="371.0" y="351.0" width="41.0" height="131.0" rx="2" fill="#d7b987" stroke="#213640" stroke-width="1"/><rect x="374.0" y="356.0" width="35.0" height="4.0" rx="0" fill="#86b6c2" stroke="none" stroke-width="0"/><rect x="622.0" y="352.0" width="42.0" height="129.0" rx="2" fill="#c8d8dd" stroke="#213640" stroke-width="1"/><rect x="625.0" y="357.0" width="36.0" height="4.0" rx="0" fill="#86b6c2" stroke="none" stroke-width="0"/><rect x="954.0" y="468.0" width="42.0" height="165.0" rx="2" fill="#b9c8cc" stroke="#213640" stroke-width="1"/><rect x="957.0" y="473.0" width="36.0" height="4.0" rx="0" fill="#86b6c2" stroke="none" stroke-width="0"/><rect x="334.0" y="516.0" width="26.0" height="65.0" rx="2" fill="#e8e0cf" stroke="#213640" stroke-width="1"/><rect x="337.0" y="521.0" width="20.0" height="4.0" rx="0" fill="#86b6c2" stroke="none" stroke-width="0"/><polygon points="329.0,516.0 347.0,486.0 365.0,516.0" fill="#b84a3d" stroke="none" stroke-width="0"/><rect x="649.0" y="483.0" width="35.0" height="40.0" rx="2" fill="#c8d8dd" stroke="#213640" stroke-width="1"/><rect x="621.0" y="403.0" width="40.0" height="56.0" rx="2" fill="#e8e0cf" stroke="#213640" stroke-width="1"/><rect x="624.0" y="408.0" width="34.0" height="4.0" rx="0" fill="#86b6c2" stroke="none" stroke-width="0"/><rect x="930.0" y="329.0" width="31.0" height="187.0" rx="2" fill="#c8d8dd" stroke="#213640" stroke-width="1"/><rect x="933.0" y="334.0" width="25.0" height="4.0" rx="0" fill="#86b6c2" stroke="none" stroke-width="0"/><rect x="1067.0" y="457.0" width="33.0" height="126.0" rx="2" fill="#e8e0cf" stroke="#213640" stroke-width="1"/><rect x="1070.0" y="462.0" width="27.0" height="4.0" rx="0" fill="#86b6c2" stroke="none" stroke-width="0"/><rect x="657.0" y="351.0" width="33.0" height="152.0" rx="2" fill="#e4d2bd" stroke="#213640" stroke-width="1"/><rect x="660.0" y="356.0" width="27.0" height="4.0" rx="0" fill="#86b6c2" stroke="none" stroke-width="0"/><rect x="267.0" y="468.0" width="28.0" height="154.0" rx="2" fill="#d7b987" stroke="#213640" stroke-width="1"/><rect x="270.0" y="473.0" width="22.0" height="4.0" rx="0" fill="#86b6c2" stroke="none" stroke-width="0"/><rect x="807.0" y="421.0" width="27.0" height="83.0" rx="2" fill="#c8d8dd" stroke="#213640" stroke-width="1"/><rect x="810.0" y="426.0" width="21.0" height="4.0" rx="0" fill="#86b6c2" stroke="none" stroke-width="0"/><rect x="318.0" y="587.0" width="22.0" height="35.0" rx="2" fill="#b9c8cc" stroke="#213640" stroke-width="1"/><rect x="593.0" y="451.0" width="26.0" height="125.0" rx="2" fill="#e8e0cf" stroke="#213640" stroke-width="1"/><rect x="596.0" y="456.0" width="20.0" height="4.0" rx="0" fill="#86b6c2" stroke="none" stroke-width="0"/><rect x="215.0" y="477.0" width="38.0" height="120.0" rx="2" fill="#b9c8cc" stroke="#213640" stroke-width="1"/><rect x="218.0" y="482.0" width="32.0" height="4.0" rx="0" fill="#86b6c2" stroke="none" stroke-width="0"/><rect x="566.0" y="336.0" width="25.0" height="179.0" rx="2" fill="#e4d2bd" stroke="#213640" stroke-width="1"/><rect x="569.0" y="341.0" width="19.0" height="4.0" rx="0" fill="#86b6c2" stroke="none" stroke-width="0"/><polygon points="561.0,336.0 578.5,306.0 596.0,336.0" fill="#b84a3d" stroke="none" stroke-width="0"/><rect x="918.0" y="471.0" width="26.0" height="114.0" rx="2" fill="#d7b987" stroke="#213640" stroke-width="1"/><rect x="921.0" y="476.0" width="20.0" height="4.0" rx="0" fill="#86b6c2" stroke="none" stroke-width="0"/><rect x="793.0" y="417.0" width="23.0" height="39.0" rx="2" fill="#b9c8cc" stroke="#213640" stroke-width="1"/><rect x="1071.0" y="340.0" width="34.0" height="122.0" rx="2" fill="#d7b987" stroke="#213640" stroke-width="1"/><rect x="1074.0" y="345.0" width="28.0" height="4.0" rx="0" fill="#86b6c2" stroke="none" stroke-width="0"/><rect x="223.0" y="334.0" width="32.0" height="179.0" rx="2" fill="#c8d8dd" stroke="#213640" stroke-width="1"/><rect x="226.0" y="339.0" width="26.0" height="4.0" rx="0" fill="#86b6c2" stroke="none" stroke-width="0"/><rect x="662.0" y="501.0" width="36.0" height="92.0" rx="2" fill="#c8d8dd" stroke="#213640" stroke-width="1"/><rect x="665.0" y="506.0" width="30.0" height="4.0" rx="0" fill="#86b6c2" stroke="none" stroke-width="0"/><rect x="378.0" y="488.0" width="42.0" height="94.0" rx="2" fill="#d7b987" stroke="#213640" stroke-width="1"/><rect x="381.0" y="493.0" width="36.0" height="4.0" rx="0" fill="#86b6c2" stroke="none" stroke-width="0"/><rect x="1013.0" y="466.0" width="34.0" height="112.0" rx="2" fill="#e4d2bd" stroke="#213640" stroke-width="1"/><rect x="1016.0" y="471.0" width="28.0" height="4.0" rx="0" fill="#86b6c2" stroke="none" stroke-width="0"/><rect x="887.0" y="463.0" width="18.0" height="102.0" rx="2" fill="#b9c8cc" stroke="#213640" stroke-width="1"/><rect x="890.0" y="468.0" width="12.0" height="4.0" rx="0" fill="#86b6c2" stroke="none" stroke-width="0"/><rect x="1129.0" y="486.0" width="25.0" height="160.0" rx="2" fill="#d7b987" stroke="#213640" stroke-width="1"/><rect x="1132.0" y="491.0" width="19.0" height="4.0" rx="0" fill="#86b6c2" stroke="none" stroke-width="0"/><rect x="1112.0" y="447.0" width="39.0" height="142.0" rx="2" fill="#c8d8dd" stroke="#213640" stroke-width="1"/><rect x="1115.0" y="452.0" width="33.0" height="4.0" rx="0" fill="#86b6c2" stroke="none" stroke-width="0"/><rect x="746.0" y="472.0" width="41.0" height="93.0" rx="2" fill="#e8e0cf" stroke="#213640" stroke-width="1"/><rect x="749.0" y="477.0" width="35.0" height="4.0" rx="0" fill="#86b6c2" stroke="none" stroke-width="0"/><polygon points="741.0,472.0 766.5,442.0 792.0,472.0" fill="#b84a3d" stroke="none" stroke-width="0"/><rect x="892.0" y="343.0" width="18.0" height="168.0" rx="2" fill="#e4d2bd" stroke="#213640" stroke-width="1"/><rect x="895.0" y="348.0" width="12.0" height="4.0" rx="0" fill="#86b6c2" stroke="none" stroke-width="0"/><rect x="428.0" y="394.0" width="41.0" height="125.0" rx="2" fill="#b9c8cc" stroke="#213640" stroke-width="1"/><rect x="431.0" y="399.0" width="35.0" height="4.0" rx="0" fill="#86b6c2" stroke="none" stroke-width="0"/><rect x="515.0" y="372.0" width="26.0" height="155.0" rx="2" fill="#c8d8dd" stroke="#213640" stroke-width="1"/><rect x="518.0" y="377.0" width="20.0" height="4.0" rx="0" fill="#86b6c2" stroke="none" stroke-width="0"/><rect x="328.0" y="547.0" width="21.0" height="92.0" rx="2" fill="#d7b987" stroke="#213640" stroke-width="1"/><rect x="331.0" y="552.0" width="15.0" height="4.0" rx="0" fill="#86b6c2" stroke="none" stroke-width="0"/><rect x="691.0" y="470.0" width="32.0" height="68.0" rx="2" fill="#d7b987" stroke="#213640" stroke-width="1"/><rect x="694.0" y="475.0" width="26.0" height="4.0" rx="0" fill="#86b6c2" stroke="none" stroke-width="0"/><rect x="299.0" y="324.0" width="41.0" height="160.0" rx="2" fill="#e8e0cf" stroke="#213640" stroke-width="1"/><rect x="302.0" y="329.0" width="35.0" height="4.0" rx="0" fill="#86b6c2" stroke="none" stroke-width="0"/><rect x="590.0" y="557.0" width="39.0" height="36.0" rx="2" fill="#d7b987" stroke="#213640" stroke-width="1"/><rect x="528.0" y="338.0" width="29.0" height="134.0" rx="2" fill="#c8d8dd" stroke="#213640" stroke-width="1"/><rect x="531.0" y="343.0" width="23.0" height="4.0" rx="0" fill="#86b6c2" stroke="none" stroke-width="0"/><rect x="318.0" y="503.0" width="40.0" height="52.0" rx="2" fill="#e4d2bd" stroke="#213640" stroke-width="1"/><rect x="321.0" y="508.0" width="34.0" height="4.0" rx="0" fill="#86b6c2" stroke="none" stroke-width="0"/><rect x="397.0" y="554.0" width="23.0" height="56.0" rx="2" fill="#b9c8cc" stroke="#213640" stroke-width="1"/><rect x="400.0" y="559.0" width="17.0" height="4.0" rx="0" fill="#86b6c2" stroke="none" stroke-width="0"/><rect x="708.0" y="464.0" width="36.0" height="134.0" rx="2" fill="#c8d8dd" stroke="#213640" stroke-width="1"/><rect x="711.0" y="469.0" width="30.0" height="4.0" rx="0" fill="#86b6c2" stroke="none" stroke-width="0"/><polygon points="703.0,464.0 726.0,434.0 749.0,464.0" fill="#b84a3d" stroke="none" stroke-width="0"/><rect x="731.0" y="464.0" width="23.0" height="38.0" rx="2" fill="#e4d2bd" stroke="#213640" stroke-width="1"/><rect x="1075.0" y="284.0" width="39.0" height="174.0" rx="2" fill="#e4d2bd" stroke="#213640" stroke-width="1"/><rect x="1078.0" y="289.0" width="33.0" height="4.0" rx="0" fill="#86b6c2" stroke="none" stroke-width="0"/><rect x="394.0" y="476.0" width="25.0" height="112.0" rx="2" fill="#e4d2bd" stroke="#213640" stroke-width="1"/><rect x="397.0" y="481.0" width="19.0" height="4.0" rx="0" fill="#86b6c2" stroke="none" stroke-width="0"/><rect x="706.0" y="352.0" width="19.0" height="153.0" rx="2" fill="#b9c8cc" stroke="#213640" stroke-width="1"/><rect x="709.0" y="357.0" width="13.0" height="4.0" rx="0" fill="#86b6c2" stroke="none" stroke-width="0"/><rect x="787.0" y="538.0" width="24.0" height="107.0" rx="2" fill="#d7b987" stroke="#213640" stroke-width="1"/><rect x="790.0" y="543.0" width="18.0" height="4.0" rx="0" fill="#86b6c2" stroke="none" stroke-width="0"/><rect x="737.0" y="434.0" width="35.0" height="187.0" rx="2" fill="#d7b987" stroke="#213640" stroke-width="1"/><rect x="740.0" y="439.0" width="29.0" height="4.0" rx="0" fill="#86b6c2" stroke="none" stroke-width="0"/><rect x="812.0" y="468.0" width="37.0" height="39.0" rx="2" fill="#c8d8dd" stroke="#213640" stroke-width="1"/><rect x="737.0" y="374.0" width="36.0" height="91.0" rx="2" fill="#b9c8cc" stroke="#213640" stroke-width="1"/><rect x="740.0" y="379.0" width="30.0" height="4.0" rx="0" fill="#86b6c2" stroke="none" stroke-width="0"/><rect x="144.0" y="426.0" width="38.0" height="67.0" rx="2" fill="#d7b987" stroke="#213640" stroke-width="1"/><rect x="147.0" y="431.0" width="32.0" height="4.0" rx="0" fill="#86b6c2" stroke="none" stroke-width="0"/><rect x="883.0" y="556.0" width="40.0" height="70.0" rx="2" fill="#c8d8dd" stroke="#213640" stroke-width="1"/><rect x="886.0" y="561.0" width="34.0" height="4.0" rx="0" fill="#86b6c2" stroke="none" stroke-width="0"/><rect x="785.0" y="457.0" width="35.0" height="80.0" rx="2" fill="#e4d2bd" stroke="#213640" stroke-width="1"/><rect x="788.0" y="462.0" width="29.0" height="4.0" rx="0" fill="#86b6c2" stroke="none" stroke-width="0"/><polygon points="780.0,457.0 802.5,427.0 825.0,457.0" fill="#b84a3d" stroke="none" stroke-width="0"/><rect x="1012.0" y="470.0" width="25.0" height="153.0" rx="2" fill="#e4d2bd" stroke="#213640" stroke-width="1"/><rect x="1015.0" y="475.0" width="19.0" height="4.0" rx="0" fill="#86b6c2" stroke="none" stroke-width="0"/><rect x="332.0" y="385.0" width="38.0" height="119.0" rx="2" fill="#e4d2bd" stroke="#213640" stroke-width="1"/><rect x="335.0" y="390.0" width="32.0" height="4.0" rx="0" fill="#86b6c2" stroke="none" stroke-width="0"/><rect x="831.0" y="474.0" width="39.0" height="105.0" rx="2" fill="#b9c8cc" stroke="#213640" stroke-width="1"/><rect x="834.0" y="479.0" width="33.0" height="4.0" rx="0" fill="#86b6c2" stroke="none" stroke-width="0"/><rect x="1138.0" y="328.0" width="42.0" height="162.0" rx="2" fill="#b9c8cc" stroke="#213640" stroke-width="1"/><rect x="1141.0" y="333.0" width="36.0" height="4.0" rx="0" fill="#86b6c2" stroke="none" stroke-width="0"/><rect x="945.0" y="470.0" width="32.0" height="169.0" rx="2" fill="#c8d8dd" stroke="#213640" stroke-width="1"/><rect x="948.0" y="475.0" width="26.0" height="4.0" rx="0" fill="#86b6c2" stroke="none" stroke-width="0"/><rect x="566.0" y="543.0" width="22.0" height="100.0" rx="2" fill="#e8e0cf" stroke="#213640" stroke-width="1"/><rect x="569.0" y="548.0" width="16.0" height="4.0" rx="0" fill="#86b6c2" stroke="none" stroke-width="0"/><rect x="856.0" y="442.0" width="30.0" height="43.0" rx="2" fill="#e4d2bd" stroke="#213640" stroke-width="1"/><rect x="859.0" y="447.0" width="24.0" height="4.0" rx="0" fill="#86b6c2" stroke="none" stroke-width="0"/><rect x="131.0" y="586.0" width="41.0" height="50.0" rx="2" fill="#c8d8dd" stroke="#213640" stroke-width="1"/><rect x="134.0" y="591.0" width="35.0" height="4.0" rx="0" fill="#86b6c2" stroke="none" stroke-width="0"/><rect x="81.0" y="296.0" width="36.0" height="164.0" rx="2" fill="#e8e0cf" stroke="#213640" stroke-width="1"/><rect x="84.0" y="301.0" width="30.0" height="4.0" rx="0" fill="#86b6c2" stroke="none" stroke-width="0"/><rect x="444.0" y="403.0" width="18.0" height="110.0" rx="2" fill="#c8d8dd" stroke="#213640" stroke-width="1"/><rect x="447.0" y="408.0" width="12.0" height="4.0" rx="0" fill="#86b6c2" stroke="none" stroke-width="0"/><rect x="600.0" y="472.0" width="34.0" height="86.0" rx="2" fill="#b9c8cc" stroke="#213640" stroke-width="1"/><rect x="603.0" y="477.0" width="28.0" height="4.0" rx="0" fill="#86b6c2" stroke="none" stroke-width="0"/><polygon points="595.0,472.0 617.0,442.0 639.0,472.0" fill="#b84a3d" stroke="none" stroke-width="0"/><rect x="121.0" y="433.0" width="70.0" height="75.0" rx="0" fill="#caa96b" stroke="none" stroke-width="0"/><polygon points="111.0,433.0 156.0,403.0 201.0,433.0" fill="#b74439" stroke="none" stroke-width="0"/><rect x="131.0" y="458.0" width="50.0" height="5.0" rx="0" fill="#b74439" stroke="none" stroke-width="0"/><rect x="278.0" y="414.0" width="80.0" height="45.0" rx="0" fill="#bfc8c4" stroke="none" stroke-width="0"/><circle cx="318.0" cy="414.0" r="28.0" fill="#5d7d6d"/><rect x="387.0" y="434.0" width="90.0" height="55.0" rx="0" fill="#b8c8cb" stroke="none" stroke-width="0"/><rect x="419.0" y="394.0" width="26.0" height="40.0" rx="0" fill="#59798b" stroke="none" stroke-width="0"/><circle cx="1048.0" cy="561.0" r="6.0" fill="#2d6b4b"/><rect x="1046.0" y="561.0" width="4.0" height="10.0" rx="0" fill="#614a35" stroke="none" stroke-width="0"/><circle cx="996.0" cy="631.0" r="6.0" fill="#2d6b4b"/><rect x="994.0" y="631.0" width="4.0" height="10.0" rx="0" fill="#614a35" stroke="none" stroke-width="0"/><circle cx="100.0" cy="535.0" r="7.0" fill="#2d6b4b"/><rect x="98.0" y="535.0" width="4.0" height="10.0" rx="0" fill="#614a35" stroke="none" stroke-width="0"/><circle cx="428.0" cy="481.0" r="11.0" fill="#2d6b4b"/><rect x="426.0" y="481.0" width="4.0" height="10.0" rx="0" fill="#614a35" stroke="none" stroke-width="0"/><circle cx="875.0" cy="494.0" r="9.0" fill="#2d6b4b"/><rect x="873.0" y="494.0" width="4.0" height="10.0" rx="0" fill="#614a35" stroke="none" stroke-width="0"/><circle cx="1167.0" cy="525.0" r="5.0" fill="#2d6b4b"/><rect x="1165.0" y="525.0" width="4.0" height="10.0" rx="0" fill="#614a35" stroke="none" stroke-width="0"/><circle cx="461.0" cy="585.0" r="10.0" fill="#2d6b4b"/><rect x="459.0" y="585.0" width="4.0" height="10.0" rx="0" fill="#614a35" stroke="none" stroke-width="0"/><circle cx="507.0" cy="650.0" r="8.0" fill="#2d6b4b"/><rect x="505.0" y="650.0" width="4.0" height="10.0" rx="0" fill="#614a35" stroke="none" stroke-width="0"/><circle cx="837.0" cy="638.0" r="10.0" fill="#2d6b4b"/><rect x="835.0" y="638.0" width="4.0" height="10.0" rx="0" fill="#614a35" stroke="none" stroke-width="0"/><circle cx="852.0" cy="605.0" r="12.0" fill="#2d6b4b"/><rect x="850.0" y="605.0" width="4.0" height="10.0" rx="0" fill="#614a35" stroke="none" stroke-width="0"/><circle cx="353.0" cy="576.0" r="6.0" fill="#2d6b4b"/><rect x="351.0" y="576.0" width="4.0" height="10.0" rx="0" fill="#614a35" stroke="none" stroke-width="0"/><circle cx="345.0" cy="613.0" r="8.0" fill="#2d6b4b"/><rect x="343.0" y="613.0" width="4.0" height="10.0" rx="0" fill="#614a35" stroke="none" stroke-width="0"/><circle cx="858.0" cy="491.0" r="6.0" fill="#2d6b4b"/><rect x="856.0" y="491.0" width="4.0" height="10.0" rx="0" fill="#614a35" stroke="none" stroke-width="0"/><circle cx="721.0" cy="628.0" r="5.0" fill="#2d6b4b"/><rect x="719.0" y="628.0" width="4.0" height="10.0" rx="0" fill="#614a35" stroke="none" stroke-width="0"/><circle cx="734.0" cy="516.0" r="8.0" fill="#2d6b4b"/><rect x="732.0" y="516.0" width="4.0" height="10.0" rx="0" fill="#614a35" stroke="none" stroke-width="0"/><circle cx="632.0" cy="540.0" r="8.0" fill="#2d6b4b"/><rect x="630.0" y="540.0" width="4.0" height="10.0" rx="0" fill="#614a35" stroke="none" stroke-width="0"/><circle cx="151.0" cy="618.0" r="13.0" fill="#2d6b4b"/><rect x="149.0" y="618.0" width="4.0" height="10.0" rx="0" fill="#614a35" stroke="none" stroke-width="0"/><circle cx="126.0" cy="481.0" r="9.0" fill="#2d6b4b"/><rect x="124.0" y="481.0" width="4.0" height="10.0" rx="0" fill="#614a35" stroke="none" stroke-width="0"/><circle cx="737.0" cy="509.0" r="6.0" fill="#2d6b4b"/><rect x="735.0" y="509.0" width="4.0" height="10.0" rx="0" fill="#614a35" stroke="none" stroke-width="0"/><circle cx="354.0" cy="670.0" r="8.0" fill="#2d6b4b"/><rect x="352.0" y="670.0" width="4.0" height="10.0" rx="0" fill="#614a35" stroke="none" stroke-width="0"/><circle cx="340.0" cy="473.0" r="13.0" fill="#2d6b4b"/><rect x="338.0" y="473.0" width="4.0" height="10.0" rx="0" fill="#614a35" stroke="none" stroke-width="0"/><circle cx="909.0" cy="483.0" r="8.0" fill="#2d6b4b"/><rect x="907.0" y="483.0" width="4.0" height="10.0" rx="0" fill="#614a35" stroke="none" stroke-width="0"/><circle cx="442.0" cy="531.0" r="6.0" fill="#2d6b4b"/><rect x="440.0" y="531.0" width="4.0" height="10.0" rx="0" fill="#614a35" stroke="none" stroke-width="0"/><circle cx="416.0" cy="530.0" r="11.0" fill="#2d6b4b"/><rect x="414.0" y="530.0" width="4.0" height="10.0" rx="0" fill="#614a35" stroke="none" stroke-width="0"/><circle cx="657.0" cy="517.0" r="11.0" fill="#2d6b4b"/><rect x="655.0" y="517.0" width="4.0" height="10.0" rx="0" fill="#614a35" stroke="none" stroke-width="0"/><circle cx="262.0" cy="538.0" r="6.0" fill="#2d6b4b"/><rect x="260.0" y="538.0" width="4.0" height="10.0" rx="0" fill="#614a35" stroke="none" stroke-width="0"/><circle cx="569.0" cy="673.0" r="5.0" fill="#2d6b4b"/><rect x="567.0" y="673.0" width="4.0" height="10.0" rx="0" fill="#614a35" stroke="none" stroke-width="0"/><circle cx="346.0" cy="546.0" r="13.0" fill="#2d6b4b"/><rect x="344.0" y="546.0" width="4.0" height="10.0" rx="0" fill="#614a35" stroke="none" stroke-width="0"/><circle cx="720.0" cy="575.0" r="13.0" fill="#2d6b4b"/><rect x="718.0" y="575.0" width="4.0" height="10.0" rx="0" fill="#614a35" stroke="none" stroke-width="0"/><circle cx="1075.0" cy="496.0" r="13.0" fill="#2d6b4b"/><rect x="1073.0" y="496.0" width="4.0" height="10.0" rx="0" fill="#614a35" stroke="none" stroke-width="0"/><circle cx="266.0" cy="584.0" r="10.0" fill="#2d6b4b"/><rect x="264.0" y="584.0" width="4.0" height="10.0" rx="0" fill="#614a35" stroke="none" stroke-width="0"/><circle cx="421.0" cy="521.0" r="13.0" fill="#2d6b4b"/><rect x="419.0" y="521.0" width="4.0" height="10.0" rx="0" fill="#614a35" stroke="none" stroke-width="0"/><circle cx="404.0" cy="603.0" r="11.0" fill="#2d6b4b"/><rect x="402.0" y="603.0" width="4.0" height="10.0" rx="0" fill="#614a35" stroke="none" stroke-width="0"/><circle cx="647.0" cy="541.0" r="5.0" fill="#2d6b4b"/><rect x="645.0" y="541.0" width="4.0" height="10.0" rx="0" fill="#614a35" stroke="none" stroke-width="0"/><circle cx="832.0" cy="638.0" r="8.0" fill="#2d6b4b"/><rect x="830.0" y="638.0" width="4.0" height="10.0" rx="0" fill="#614a35" stroke="none" stroke-width="0"/><polyline points="531.0,587.0 791.0,567.0" fill="none" stroke="#c8b07a" stroke-width="12" opacity="0.9" stroke-linecap="round" /><polyline points="531.0,587.0 531.0,542.0" fill="none" stroke="#a98e61" stroke-width="3" opacity="0.8" stroke-linecap="round" /><polyline points="583.0,587.0 583.0,542.0" fill="none" stroke="#a98e61" stroke-width="3" opacity="0.8" stroke-linecap="round" /><polyline points="635.0,587.0 635.0,542.0" fill="none" stroke="#a98e61" stroke-width="3" opacity="0.8" stroke-linecap="round" /><polyline points="687.0,587.0 687.0,542.0" fill="none" stroke="#a98e61" stroke-width="3" opacity="0.8" stroke-linecap="round" /><polyline points="739.0,587.0 739.0,542.0" fill="none" stroke="#a98e61" stroke-width="3" opacity="0.8" stroke-linecap="round" /><circle cx="414.0" cy="173.0" r="24.0" fill="#fff0b0"/></svg>