<svg xmlns="http://www.w3.org/2000/svg" viewBox="0 0 1200 700"><defs><linearGradient id="sky" x2="0" y2="1"><stop stop-color="#b6d8e8"/><stop offset="1" stop-color="#e7b07d"/></linearGradient><linearGradient id="ground" x2="0" y2="1"><stop stop-color="#9a9a78"/><stop offset="1" stop-color="#2d5640"/></linearGradient></defs><rect x="0.0" y="0.0" width="1200.0" height="700.0" rx="0" fill="url(#sky)" stroke="none" stroke-width="0"/><rect x="0.0" y="410.0" width="1200.0" height="290.0" rx="0" fill="url(#ground)" stroke="none" stroke-width="0"/><polygon points="-100.0,410.0 50.0,294.0 200.0,410.0" fill="#557060" stroke="none" stroke-width="0"/><polygon points="180.0,410.0 330.0,277.0 480.0,410.0" fill="#557060" stroke="none" stroke-width="0"/><polygon points="460.0,410.0 610.0,301.0 760.0,410.0" fill="#557060" stroke="none" stroke-width="0"/><polygon points="740.0,410.0 890.0,273.0 1040.0,410.0" fill="#557060" stroke="none" stroke-width="0"/><polygon points="1020.0,410.0 1170.0,330.0 1320.0,410.0" fill="#557060" stroke="none" stroke-width="0"/><polygon points="0.0,482.0 180.0,447.0 360.0,492.0 560.0,462.0 760.0,507.0 960.0,467.0 1200.0,487.0 1200.0,700.0 0.0,700.0" fill="#6ab5c7" stroke="none" stroke-width="0"/><polyline points="570.0,532.0 731.0,531.0" fill="none" stroke="#8bd0dc" stroke-width="2" opacity="0.45" stroke-linecap="round" /><polyline points="60.0,539.0 178.0,541.0" fill="none" stroke="#8bd0dc" stroke-width="2" opacity="0.45" stroke-linecap="round" /><polyline points="330.0,597.0 487.0,598.0" fill="none" stroke="#8bd0dc" stroke-width="2" opacity="0.45" stroke-linecap="round" /><polyline points="85.0,530.0 242.0,530.0" fill="none" stroke="#8bd0dc" stroke-width="2" opacity="0.45" stroke-linecap="round" /><polyline points="101.0,700.0 497.0,477.0" fill="none" stroke="#30383c" stroke-width="5" opacity="0.9" stroke-linecap="round" /><polyline points="1011.0,700.0 807.0,476.0" fill="none" stroke="#30383c" stroke-width="7" opacity="0.9" stroke-linecap="round" /><polyline points="519.0,700.0 657.0,446.0" fill="none" stroke="#30383c" stroke-width="7" opacity="0.9" stroke-linecap="round" /><polyline points="920.0,700.0 428.0,444.0" fill="none" stroke="#30383c" stroke-width="7" opacity="0.9" stroke-linecap="round" /><polyline points="926.0,700.0 516.0,472.0" fill="none" stroke="#30383c" stroke-width="7" opacity="0.9" stroke-linecap="round" /><polyline points="150.0,700.0 629.0,410.0" fill="none" stroke="#30383c" stroke-width="5" opacity="0.9" stroke-linecap="round" /><polyline points="824.0,700.0 580.0,462.0" fill="none" stroke="#30383c" stroke-width="5" opacity="0.9" stroke-linecap="round" /><rect x="672.0" y="459.0" width="28.0" height="73.0" rx="2" fill="#b9c8cc" stroke="#213640" stroke-width="1"/><rect x="675.0" y="464.0" width="22.0" height="4.0" rx="0" fill="#86b6c2" stroke="none" stroke-width="0"/><rect x="174.0" y="421.0" width="40.0" height="76.0" rx="2" fill="#e8e0cf" stroke="#213640" stroke-width="1"/><rect x="177.0" y="426.0" width="34.0" height="4.0" rx="0" fill="#86b6c2" stroke="none" stroke-width="0"/><rect x="951.0" y="505.0" width="18.0" height="75.0" rx="2" fill="#e8e0cf" stroke="#213640" stroke-width="1"/><rect x="954.0" y="510.0" width="12.0" height="4.0" rx="0" fill="#86b6c2" stroke="none" stroke-width="0"/><rect x="970.0" y="533.0" width="20.0" height="78.0" rx="2" fill="#e8e0cf" stroke="#213640" stroke-width="1"/><rect x="973.0" y="538.0" width="14.0" height="4.0" rx="0" fill="#86b6c2" stroke="none" stroke-width="0"/><rect x="334.0" y="570.0" width="25.0" height="66.0" rx="2" fill="#d7b987" stroke="#213640" stroke-width="1"/><rect x="337.0" y="575.0" width="19.0" height="4.0" rx="0" fill="#86b6c2" stroke="none" stroke-width="0"/><rect x="107.0" y="527.0" width="19.0" height="66.0" rx="2" fill="#e4d2bd" stroke="#213640" stroke-width="1"/><rect x="110.0" y="532.0" width="13.0" height="4.0" rx="0" fill="#86b6c2" stroke="none" stroke-width="0"/><rect x="694.0" y="553.0" width="34.0" height="24.0" rx="2" fill="#c8d8dd" stroke="#213640" stroke-width="1"/><rect x="695.0" y="454.0" width="40.0" height="26.0" rx="2" fill="#e4d2bd" stroke="#213640" stroke-width="1"/><rect x="288.0" y="452.0" width="18.0" height="65.0" rx="2" fill="#e8e0cf" stroke="#213640" stroke-width="1"/><rect x="291.0" y="457.0" width="12.0" height="4.0" rx="0" fill="#86b6c2" stroke="none" stroke-width="0"/><rect x="272.0" y="622.0" width="39.0" height="21.0" rx="2" fill="#b9c8cc" stroke="#213640" stroke-width="1"/><rect x="353.0" y="571.0" width="40.0" height="47.0" rx="2" fill="#c8d8dd" stroke="#213640" stroke-width="1"/><rect x="356.0" y="576.0" width="34.0" height="4.0" rx="0" fill="#86b6c2" stroke="none" stroke-width="0"/><rect x="404.0" y="559.0" width="18.0" height="45.0" rx="2" fill="#e4d2bd" stroke="#213640" stroke-width="1"/><rect x="407.0" y="564.0" width="12.0" height="4.0" rx="0" fill="#86b6c2" stroke="none" stroke-width="0"/><rect x="540.0" y="451.0" width="21.0" height="33.0" rx="2" fill="#d7b987" stroke="#213640" stroke-width="1"/><rect x="835.0" y="493.0" width="19.0" height="66.0" rx="2" fill="#b9c8cc" stroke="#213640" stroke-width="1"/><rect x="838.0" y="498.0" width="13.0" height="4.0" rx="0" fill="#86b6c2" stroke="none" stroke-width="0"/><rect x="995.0" y="553.0" width="26.0" height="19.0" rx="2" fill="#e8e0cf" stroke="#213640" stroke-width="1"/><rect x="102.0" y="567.0" width="24.0" height="69.0" rx="2" fill="#d7b987" stroke="#213640" stroke-width="1"/><rect x="105.0" y="572.0" width="18.0" height="4.0" rx="0" fill="#86b6c2" stroke="none" stroke-width="0"/><rect x="1069.0" y="511.0" width="21.0" height="42.0" rx="2" fill="#e8e0cf" stroke="#213640" stroke-width="1"/><rect x="1072.0" y="516.0" width="15.0" height="4.0" rx="0" fill="#86b6c2" stroke="none" stroke-width="0"/><rect x="891.0" y="565.0" width="21.0" height="51.0" rx="2" fill="#e8e0cf" stroke="#213640" stroke-width="1"/><rect x="894.0" y="570.0" width="15.0" height="4.0" rx="0" fill="#86b6c2" stroke="none" stroke-width="0"/><rect x="973.0" y="500.0" width="22.0" height="66.0" rx="2" fill="#c8d8dd" stroke="#213640" stroke-width="1"/><rect x="976.0" y="505.0" width="16.0" height="4.0" rx="0" fill="#86b6c2" stroke="none" stroke-width="0"/><rect x="297.0" y="422.0" width="46.0" height="66.0" rx="2" fill="#b9c8cc" stroke="#213640" stroke-width="1"/><rect x="300.0" y="427.0" width="40.0" height="4.0" rx="0" fill="#86b6c2" stroke="none" stroke-width="0"/><rect x="1066.0" y="474.0" width="30.0" height="38.0" rx="2" fill="#d7b987" stroke="#213640" stroke-width="1"/><rect x="1055.0" y="432.0" width="45.0" height="67.0" rx="2" fill="#c8d8dd" stroke="#213640" stroke-width="1"/><rect x="1058.0" y="437.0" width="39.0" height="4.0" rx="0" fill="#86b6c2" stroke="none" stroke-width="0"/><rect x="913.0" y="407.0" width="33.0" height="53.0" rx="2" fill="#e4d2bd" stroke="#213640" stroke-width="1"/><rect x="916.0" y="412.0" width="27.0" height="4.0" rx="0" fill="#86b6c2" stroke="none" stroke-width="0"/><rect x="644.0" y="462.0" width="45.0" height="24.0" rx="2" fill="#d7b987" stroke="#213640" stroke-width="1"/><rect x="1061.0" y="441.0" width="35.0" height="75.0" rx="2" fill="#c8d8dd" stroke="#213640" stroke-width="1"/><rect x="1064.0" y="446.0" width="29.0" height="4.0" rx="0" fill="#86b6c2" stroke="none" stroke-width="0"/><rect x="945.0" y="506.0" width="22.0" height="77.0" rx="2" fill="#e4d2bd" stroke="#213640" stroke-width="1"/><rect x="948.0" y="511.0" width="16.0" height="4.0" rx="0" fill="#86b6c2" stroke="none" stroke-width="0"/><rect x="202.0" y="622.0" width="38.0" height="28.0" rx="2" fill="#d7b987" stroke="#213640" stroke-width="1"/><rect x="159.0" y="495.0" width="20.0" height="78.0" rx="2" fill="#e8e0cf" stroke="#213640" stroke-width="1"/><rect x="162.0" y="500.0" width="14.0" height="4.0" rx="0" fill="#86b6c2" stroke="none" stroke-width="0"/><rect x="1091.0" y="504.0" width="35.0" height="36.0" rx="2" fill="#e8e0cf" stroke="#213640" stroke-width="1"/><rect x="786.0" y="493.0" width="27.0" height="65.0" rx="2" fill="#e8e0cf" stroke="#213640" stroke-width="1"/><rect x="789.0" y="498.0" width="21.0" height="4.0" rx="0" fill="#86b6c2" stroke="none" stroke-width="0"/><rect x="496.0" y="462.0" width="32.0" height="41.0" rx="2" fill="#e8e0cf" stroke="#213640" stroke-width="1"/><rect x="499.0" y="467.0" width="26.0" height="4.0" rx="0" fill="#86b6c2" stroke="none" stroke-width="0"/><rect x="40.0" y="446.0" width="28.0" height="65.0" rx="2" fill="#e4d2bd" stroke="#213640" stroke-width="1"/><rect x="43.0" y="451.0" width="22.0" height="4.0" rx="0" fill="#86b6c2" stroke="none" stroke-width="0"/><rect x="456.0" y="452.0" width="26.0" height="17.0" rx="2" fill="#b9c8cc" stroke="#213640" stroke-width="1"/><rect x="158.0" y="409.0" width="39.0" height="83.0" rx="2" fill="#c8d8dd" stroke="#213640" stroke-width="1"/><rect x="161.0" y="414.0" width="33.0" height="4.0" rx="0" fill="#86b6c2" stroke="none" stroke-width="0"/><rect x="463.0" y="499.0" width="43.0" height="84.0" rx="2" fill="#d7b987" stroke="#213640" stroke-width="1"/><rect x="466.0" y="504.0" width="37.0" height="4.0" rx="0" fill="#86b6c2" stroke="none" stroke-width="0"/><rect x="1092.0" y="382.0" width="37.0" height="80.0" rx="2" fill="#c8d8dd" stroke="#213640" stroke-width="1"/><rect x="1095.0" y="387.0" width="31.0" height="4.0" rx="0" fill="#86b6c2" stroke="none" stroke-width="0"/><rect x="1005.0" y="544.0" width="33.0" height="59.0" rx="2" fill="#c8d8dd" stroke="#213640" stroke-width="1"/><rect x="1008.0" y="549.0" width="27.0" height="4.0" rx="0" fill="#86b6c2" stroke="none" stroke-width="0"/><rect x="983.0" y="609.0" width="40.0" height="37.0" rx="2" fill="#e8e0cf" stroke="#213640" stroke-width="1"/><rect x="428.0" y="398.0" width="20.0" height="62.0" rx="2" fill="#d7b987" stroke="#213640" stroke-width="1"/><rect x="431.0" y="403.0" width="14.0" height="4.0" rx="0" fill="#86b6c2" stroke="none" stroke-width="0"/><rect x="238.0" y="456.0" width="19.0" height="38.0" rx="2" fill="#e4d2bd" stroke="#213640" stroke-width="1"/><rect x="280.0" y="595.0" width="48.0" height="44.0" rx="2" fill="#d7b987" stroke="#213640" stroke-width="1"/><rect x="283.0" y="600.0" width="42.0" height="4.0" rx="0" fill="#86b6c2" stroke="none" stroke-width="0"/><rect x="456.0" y="574.0" width="31.0" height="26.0" rx="2" fill="#c8d8dd" stroke="#213640" stroke-width="1"/><rect x="223.0" y="554.0" width="20.0" height="19.0" rx="2" fill="#e4d2bd" stroke="#213640" stroke-width="1"/><rect x="348.0" y="459.0" width="39.0" height="35.0" rx="2" fill="#c8d8dd" stroke="#213640" stroke-width="1"/><rect x="895.0" y="405.0" width="42.0" height="60.0" rx="2" fill="#e8e0cf" stroke="#213640" stroke-width="1"/><rect x="898.0" y="410.0" width="36.0" height="4.0" rx="0" fill="#86b6c2" stroke="none" stroke-width="0"/><rect x="865.0" y="529.0" width="26.0" height="30.0" rx="2" fill="#e4d2bd" stroke="#213640" stroke-width="1"/><rect x="824.0" y="547.0" width="24.0" height="60.0" rx="2" fill="#b9c8cc" stroke="#213640" stroke-width="1"/><rect x="827.0" y="552.0" width="18.0" height="4.0" rx="0" fill="#86b6c2" stroke="none" stroke-width="0"/><rect x="806.0" y="506.0" width="18.0" height="59.0" rx="2" fill="#c8d8dd" stroke="#213640" stroke-width="1"/><rect x="809.0" y="511.0" width="12.0" height="4.0" rx="0" fill="#86b6c2" stroke="none" stroke-width="0"/><rect x="204.0" y="445.0" width="48.0" height="64.0" rx="2" fill="#b9c8cc" stroke="#213640" stroke-width="1"/><rect x="207.0" y="450.0" width="42.0" height="4.0" rx="0" fill="#86b6c2" stroke="none" stroke-width="0"/><rect x="152.0" y="539.0" width="24.0" height="67.0" rx="2" fill="#e4d2bd" stroke="#213640" stroke-width="1"/><rect x="155.0" y="544.0" width="18.0" height="4.0" rx="0" fill="#86b6c2" stroke="none" stroke-width="0"/><rect x="739.0" y="400.0" width="34.0" height="66.0" rx="2" fill="#d7b987" stroke="#213640" stroke-width="1"/><rect x="742.0" y="405.0" width="28.0" height="4.0" rx="0" fill="#86b6c2" stroke="none" stroke-width="0"/><rect x="83.0" y="553.0" width="22.0" height="68.0" rx="2" fill="#c8d8dd" stroke="#213640" stroke-width="1"/><rect x="86.0" y="558.0" width="16.0" height="4.0" rx="0" fill="#86b6c2" stroke="none" stroke-width="0"/><rect x="699.0" y="475.0" width="30.0" height="22.0" rx="2" fill="#b9c8cc" stroke="#213640" stroke-width="1"/><rect x="127.0" y="485.0" width="38.0" height="72.0" rx="2" fill="#e8e0cf" stroke="#213640" stroke-width="1"/><rect x="130.0" y="490.0" width="32.0" height="4.0" rx="0" fill="#86b6c2" stroke="none" stroke-width="0"/><rect x="333.0" y="416.0" width="23.0" height="39.0" rx="2" fill="#e4d2bd" stroke="#213640" stroke-width="1"/><rect x="642.0" y="522.0" width="39.0" height="90.0" rx="2" fill="#b9c8cc" stroke="#213640" stroke-width="1"/><rect x="645.0" y="527.0" width="33.0" height="4.0" rx="0" fill="#86b6c2" stroke="none" stroke-width="0"/><rect x="93.0" y="387.0" width="21.0" height="81.0" rx="2" fill="#e4d2bd" stroke="#213640" stroke-width="1"/><rect x="96.0" y="392.0" width="15.0" height="4.0" rx="0" fill="#86b6c2" stroke="none" stroke-width="0"/><rect x="42.0" y="462.0" width="28.0" height="25.0" rx="2" fill="#e4d2bd" stroke="#213640" stroke-width="1"/><rect x="1134.0" y="499.0" width="32.0" height="33.0" rx="2" fill="#e4d2bd" stroke="#213640" stroke-width="1"/><rect x="919.0" y="460.0" width="36.0" height="67.0" rx="2" fill="#e4d2bd" stroke="#213640" stroke-width="1"/><rect x="922.0" y="465.0" width="30.0" height="4.0" rx="0" fill="#86b6c2" stroke="none" stroke-width="0"/><rect x="208.0" y="598.0" width="42.0" height="33.0" rx="2" fill="#e4d2bd" stroke="#213640" stroke-width="1"/><rect x="127.0" y="478.0" width="26.0" height="53.0" rx="2" fill="#b9c8cc" stroke="#213640" stroke-width="1"/><rect x="130.0" y="483.0" width="20.0" height="4.0" rx="0" fill="#86b6c2" stroke="none" stroke-width="0"/><rect x="686.0" y="426.0" width="46.0" height="48.0" rx="2" fill="#b9c8cc" stroke="#213640" stroke-width="1"/><rect x="689.0" y="431.0" width="40.0" height="4.0" rx="0" fill="#86b6c2" stroke="none" stroke-width="0"/><rect x="668.0" y="534.0" width="48.0" height="87.0" rx="2" fill="#b9c8cc" stroke="#213640" stroke-width="1"/><rect x="671.0" y="539.0" width="42.0" height="4.0" rx="0" fill="#86b6c2" stroke="none" stroke-width="0"/><rect x="84.0" y="429.0" width="21.0" height="57.0" rx="2" fill="#b9c8cc" stroke="#213640" stroke-width="1"/><rect x="87.0" y="434.0" width="15.0" height="4.0" rx="0" fill="#86b6c2" stroke="none" stroke-width="0"/><rect x="599.0" y="528.0" width="27.0" height="42.0" rx="2" fill="#d7b987" stroke="#213640" stroke-width="1"/><rect x="602.0" y="533.0" width="21.0" height="4.0" rx="0" fill="#86b6c2" stroke="none" stroke-width="0"/><rect x="69.0" y="561.0" width="40.0" height="15.0" rx="2" fill="#c8d8dd" stroke="#213640" stroke-width="1"/><rect x="208.0" y="472.0" width="22.0" height="90.0" rx="2" fill="#c8d8dd" stroke="#213640" stroke-width="1"/><rect x="211.0" y="477.0" width="16.0" height="4.0" rx="0" fill="#86b6c2" stroke="none" stroke-width="0"/><rect x="728.0" y="531.0" width="36.0" height="28.0" rx="2" fill="#d7b987" stroke="#213640" stroke-width="1"/><rect x="62.0" y="474.0" width="23.0" height="62.0" rx="2" fill="#b9c8cc" stroke="#213640" stroke-width="1"/><rect x="65.0" y="479.0" width="17.0" height="4.0" rx="0" fill="#86b6c2" stroke="none" stroke-width="0"/><rect x="417.0" y="431.0" width="80.0" height="45.0" rx="0" fill="#bfc8c4" stroke="none" stroke-width="0"/><circle cx="457.0" cy="431.0" r="28.0" fill="#5d7d6d"/><rect x="890.0" y="402.0" width="90.0" height="55.0" rx="0" fill="#b8c8cb" stroke="none" stroke-width="0"/><rect x="922.0" y="362.0" width="26.0" height="40.0" rx="0" fill="#59798b" stroke="none" stroke-width="0"/><rect x="281.0" y="383.0" width="24.0" height="130.0" rx="0" fill="#4d6771" stroke="none" stroke-width="0"/><rect x="274.0" y="368.0" width="38.0" height="15.0" rx="0" fill="#d4b15d" stroke="none" stroke-width="0"/><circle cx="352.0" cy="508.0" r="30.0" fill="#e8d8bd"/><rect x="327.0" y="508.0" width="50.0" height="25.0" rx="0" fill="#d6c6a9" stroke="none" stroke-width="0"/><circle cx="1087.0" cy="480.0" r="13.0" fill="#2d6b4b"/><rect x="1085.0" y="480.0" width="4.0" height="10.0" rx="0" fill="#614a35" stroke="none" stroke-width="0"/><circle cx="186.0" cy="541.0" r="5.0" fill="#2d6b4b"/><rect x="184.0" y="541.0" width="4.0" height="10.0" rx="0" fill="#614a35" stroke="none" stroke-width="0"/><circle cx="55.0" cy="611.0" r="6.0" fill="#2d6b4b"/><rect x="53.0" y="611.0" width="4.0" height="10.0" rx="0" fill="#614a35" stroke="none" stroke-width="0"/><circle cx="565.0" cy="519.0" r="6.0" fill="#2d6b4b"/><rect x="563.0" y="519.0" width="4.0" height="10.0" rx="0" fill="#614a35" stroke="none" stroke-width="0"/><circle cx="259.0" cy="597.0" r="12.0" fill="#2d6b4b"/><rect x="257.0" y="597.0" width="4.0" height="10.0" rx="0" fill="#614a35" stroke="none" stroke-width="0"/><circle cx="747.0" cy="475.0" r="5.0" fill="#2d6b4b"/><rect x="745.0" y="475.0" width="4.0" height="10.0" rx="0" fill="#614a35" stroke="none" stroke-width="0"/><circle cx="149.0" cy="651.0" r="9.0" fill="#2d6b4b"/><rect x="147.0" y="651.0" width="4.0" height="10.0" rx="0" fill="#614a35" stroke="none" stroke-width="0"/><circle cx="874.0" cy="500.0" r="10.0" fill="#2d6b4b"/><rect x="872.0" y="500.0" width="4.0" height="10.0" rx="0" fill="#614a35" stroke="none" stroke-width="0"/><circle cx="874.0" cy="622.0" r="12.0" fill="#2d6b4b"/><rect x="872.0" y="622.0" width="4.0" height="10.0" rx="0" fill="#614a35" stroke="none" stroke-width="0"/><circle cx="783.0" cy="530.0" r="8.0" fill="#2d6b4b"/><rect x="781.0" y="530.0" width="4.0" height="10.0" rx="0" fill="#614a35" stroke="none" stroke-width="0"/><circle cx="639.0" cy="510.0" r="8.0" fill="#2d6b4b"/><rect x="637.0" y="510.0" width="4.0" height="10.0" rx="0" fill="#614a35" stroke="none" stroke-width="0"/><circle cx="388.0" cy="514.0" r="11.0" fill="#2d6b4b"/><rect x="386.0" y="514.0" width="4.0" height="10.0" rx="0" fill="#614a35" stroke="none" stroke-width="0"/><circle cx="738.0" cy="488.0" r="7.0" fill="#2d6b4b"/><rect x="736.0" y="488.0" width="4.0" height="10.0" rx="0" fill="#614a35" stroke="none" stroke-width="0"/><circle cx="71.0" cy="635.0" r="8.0" fill="#2d6b4b"/><rect x="69.0" y="635.0" width="4.0" height="10.0" rx="0" fill="#614a35" stroke="none" stroke-width="0"/><circle cx="310.0" cy="664.0" r="11.0" fill="#2d6b4b"/><rect x="308.0" y="664.0" width="4.0" height="10.0" rx="0" fill="#614a35" stroke="none" stroke-width="0"/><circle cx="201.0" cy="649.0" r="9.0" fill="#2d6b4b"/><rect x="199.0" y="649.0" width="4.0" height="10.0" rx="0" fill="#614a35" stroke="none" stroke-width="0"/><circle cx="607.0" cy="579.0" r="10.0" fill="#2d6b4b"/><rect x="605.0" y="579.0" width="4.0" height="10.0" rx="0" fill="#614a35" stroke="none" stroke-width="0"/><circle cx="681.0" cy="671.0" r="11.0" fill="#2d6b4b"/><rect x="679.0" y="671.0" width="4.0" height="10.0" rx="0" fill="#614a35" stroke="none" stroke-width="0"/><circle cx="416.0" cy="555.0" r="8.0" fill="#2d6b4b"/><rect x="414.0" y="555.0" width="4.0" height="10.0" rx="0" fill="#614a35" stroke="none" stroke-width="0"/><circle cx="956.0" cy="476.0" r="13.0" fill="#2d6b4b"/><rect x="954.0" y="476.0" width="4.0" height="10.0" rx="0" fill="#614a35" stroke="none" stroke-width="0"/><circle cx="54.0" cy="559.0" r="5.0" fill="#2d6b4b"/><rect x="52.0" y="559.0" width="4.0" height="10.0" rx="0" fill="#614a35" stroke="none" stroke-width="0"/><circle cx="913.0" cy="608.0" r="11.0" fill="#2d6b4b"/><rect x="911.0" y="608.0" width="4.0" height="10.0" rx="0" fill="#614a35" stroke="none" stroke-width="0"/><circle cx="1059.0" cy="574.0" r="6.0" fill="#2d6b4b"/><rect x="1057.0" y="574.0" width="4.0" height="10.0" rx="0" fill="#614a35" stroke="none" stroke-width="0"/><circle cx="1097.0" cy="506.0" r="8.0" fill="#2d6b4b"/><rect x="1095.0" y="506.0" width="4.0" height="10.0" rx="0" fill="#614a35" stroke="none" stroke-width="0"/><circle cx="1104.0" cy="532.0" r="5.0" fill="#2d6b4b"/><rect x="1102.0" y="532.0" width="4.0" height="10.0" rx="0" fill="#614a35" stroke="none" stroke-width="0"/><circle cx="369.0" cy="481.0" r="7.0" fill="#2d6b4b"/><rect x="367.0" y="481.0" width="4.0" height="10.0" rx="0" fill="#614a35" stroke="none" stroke-width="0"/><circle cx="553.0" cy="526.0" r="10.0" fill="#2d6b4b"/><rect x="551.0" y="526.0" width="4.0" height="10.0" rx="0" fill="#614a35" stroke="none" stroke-width="0"/><circle cx="1009.0" cy="479.0" r="12.0" fill="#2d6b4b"/><rect x="1007.0" y="479.0" width="4.0" height="10.0" rx="0" fill="#614a35" stroke="none" stroke-width="0"/><circle cx="282.0" cy="532.0" r="10.0" fill="#2d6b4b"/><rect x="280.0" y="532.0" width="4.0" height="10.0" rx="0" fill="#614a35" stroke="none" stroke-width="0"/><circle cx="975.0" cy="577.0" r="10.0" fill="#2d6b4b"/><rect x="973.0" y="577.0" width="4.0" height="10.0" rx="0" fill="#614a35" stroke="none" stroke-width="0"/><circle cx="699.0" cy="532.0" r="9.0" fill="#2d6b4b"/><rect x="697.0" y="532.0" width="4.0" height="10.0" rx="0" fill="#614a35" stroke="none" stroke-width="0"/><circle cx="862.0" cy="634.0" r="5.0" fill="#2d6b4b"/><rect x="860.0" y="634.0" width="4.0" height="10.0" rx="0" fill="#614a35" stroke="none" stroke-width="0"/><circle cx="847.0" cy="470.0" r="8.0" fill="#2d6b4b"/><rect x="845.0" y="470.0" width="4.0" height="10.0" rx="0" fill="#614a35" stroke="none" stroke-width="0"/><circle cx="899.0" cy="633.0" r="7.0" fill="#2d6b4b"/><rect x="897.0" y="633.0" width="4.0" height="10.0" rx="0" fill="#614a35" stroke="none" stroke-width="0"/><circle cx="30.0" cy="524.0" r="7.0" fill="#2d6b4b"/><rect x="28.0" y="524.0" width="4.0" height="10.0" rx="0" fill="#614a35" stroke="none" stroke-width="0"/><polyline points="178.0,575.0 438.0,555.0" fill="none" stroke="#c8b07a" stroke-width="12" opacity="0.9" stroke-linecap="round" /><polyline points="178.0,575.0 178.0,530.0" fill="none" stroke="#a98e61" stroke-width="3" opacity="0.8" stroke-linecap="round" /><polyline points="230.0,575.0 230.0,530.0" fill="none" stroke="#a98e61" stroke-width="3" opacity="0.8" stroke-linecap="round" /><polyline points="282.0,575.0 282.0,530.0" fill="none" stroke="#a98e61" stroke-width="3" opacity="0.8" stroke-linecap="round" /><polyline points="334.0,575.0 334.0,530.0" fill="none" stroke="#a98e61" stroke-width="3" opacity="0.8" stroke-linecap="round" /><polyline points="386.0,575.0 386.0,530.0" fill="none" stroke="#a98e61" stroke-width="3" opacity="0.8" stroke-linecap="round" /><circle cx="258.0" cy="185.0" r="24.0" fill="#fff0b0"/></svg>