<svg xmlns="http://www.w3.org/2000/svg" viewBox="0 0 1200 700"><defs><linearGradient id="sky" x2="0" y2="1"><stop stop-color="#8fd0e8"/><stop offset="1" stop-color="#e7b07d"/></linearGradient><linearGradient id="ground" x2="0" y2="1"><stop stop-color="#8b7b5b"/><stop offset="1" stop-color="#2d5640"/></linearGradient></defs><rect x="0.0" y="0.0" width="1200.0" height="700.0" rx="0" fill="url(#sky)" stroke="none" stroke-width="0"/><rect x="0.0" y="410.0" width="1200.0" height="290.0" rx="0" fill="url(#ground)" stroke="none" stroke-width="0"/><polygon points="-100.0,410.0 50.0,229.0 200.0,410.0" fill="#557060" stroke="none" stroke-width="0"/><polygon points="180.0,410.0 330.0,242.0 480.0,410.0" fill="#557060" stroke="none" stroke-width="0"/><polygon points="460.0,410.0 610.0,223.0 760.0,410.0" fill="#557060" stroke="none" stroke-width="0"/><polygon points="740.0,410.0 890.0,236.0 1040.0,410.0" fill="#557060" stroke="none" stroke-width="0"/><polygon points="1020.0,410.0 1170.0,247.0 1320.0,410.0" fill="#557060" stroke="none" stroke-width="0"/><polyline points="90.0,700.0 -3.0,420.0" fill="none" stroke="#30383c" stroke-width="9" opacity="0.95" stroke-linecap="round" /><polyline points="220.0,700.0 318.0,420.0" fill="none" stroke="#30383c" stroke-width="7" opacity="0.95" stroke-linecap="round" /><polyline points="350.0,700.0 416.0,420.0" fill="none" stroke="#30383c" stroke-width="7" opacity="0.95" stroke-linecap="round" /><polyline points="480.0,700.0 420.0,420.0" fill="none" stroke="#30383c" stroke-width="7" opacity="0.95" stroke-linecap="round" /><polyline points="610.0,700.0 605.0,420.0" fill="none" stroke="#30383c" stroke-width="9" opacity="0.95" stroke-linecap="round" /><polyline points="740.0,700.0 703.0,420.0" fill="none" stroke="#30383c" stroke-width="9" opacity="0.95" stroke-linecap="round" /><polyline points="870.0,700.0 909.0,420.0" fill="none" stroke="#30383c" stroke-width="7" opacity="0.95" stroke-linecap="round" /><polyline points="1000.0,700.0 1046.0,420.0" fill="none" stroke="#30383c" stroke-width="7" opacity="0.95" stroke-linecap="round" /><polyline points="1130.0,700.0 1033.0,420.0" fill="none" stroke="#30383c" stroke-width="11" opacity="0.95" stroke-linecap="round" /><polyline points="0.0,460.0 1200.0,461.0" fill="none" stroke="#30383c" stroke-width="8" opacity="0.95" stroke-linecap="round" /><polyline points="0.0,515.0 1200.0,501.0" fill="none" stroke="#30383c" stroke-width="8" opacity="0.95" stroke-linecap="round" /><polyline points="0.0,570.0 1200.0,555.0" fill="none" stroke="#30383c" stroke-width="6" opacity="0.95" stroke-linecap="round" /><polyline points="0.0,625.0 1200.0,608.0" fill="none" stroke="#30383c" stroke-width="10" opacity="0.95" stroke-linecap="round" /><polyline points="0.0,680.0 1200.0,694.0" fill="none" stroke="#30383c" stroke-width="8" opacity="0.95" stroke-linecap="round" /><rect x="299.0" y="400.0" width="42.0" height="88.0" rx="2" fill="#c8d8dd" stroke="#213640" stroke-width="1"/><rect x="302.0" y="405.0" width="36.0" height="4.0" rx="0" fill="#86b6c2" stroke="none" stroke-width="0"/><polygon points="294.0,400.0 320.0,370.0 346.0,400.0" fill="#b84a3d" stroke="none" stroke-width="0"/><rect x="379.0" y="412.0" width="35.0" height="85.0" rx="2" fill="#c8d8dd" stroke="#213640" stroke-width="1"/><rect x="382.0" y="417.0" width="29.0" height="4.0" rx="0" fill="#86b6c2" stroke="none" stroke-width="0"/><rect x="412.0" y="520.0" width="18.0" height="111.0" rx="2" fill="#d7b987" stroke="#213640" stroke-width="1"/><rect x="415.0" y="525.0" width="12.0" height="4.0" rx="0" fill="#86b6c2" stroke="none" stroke-width="0"/><rect x="889.0" y="395.0" width="20.0" height="102.0" rx="2" fill="#d7b987" stroke="#213640" stroke-width="1"/><rect x="892.0" y="400.0" width="14.0" height="4.0" rx="0" fill="#86b6c2" stroke="none" stroke-width="0"/><rect x="657.0" y="422.0" width="39.0" height="187.0" rx="2" fill="#d7b987" stroke="#213640" stroke-width="1"/><rect x="660.0" y="427.0" width="33.0" height="4.0" rx="0" fill="#86b6c2" stroke="none" stroke-width="0"/><rect x="175.0" y="376.0" width="40.0" height="158.0" rx="2" fill="#d7b987" stroke="#213640" stroke-width="1"/><rect x="178.0" y="381.0" width="34.0" height="4.0" rx="0" fill="#86b6c2" stroke="none" stroke-width="0"/><rect x="418.0" y="529.0" width="26.0" height="49.0" rx="2" fill="#e8e0cf" stroke="#213640" stroke-width="1"/><rect x="421.0" y="534.0" width="20.0" height="4.0" rx="0" fill="#86b6c2" stroke="none" stroke-width="0"/><rect x="772.0" y="416.0" width="29.0" height="142.0" rx="2" fill="#b9c8cc" stroke="#213640" stroke-width="1"/><rect x="775.0" y="421.0" width="23.0" height="4.0" rx="0" fill="#86b6c2" stroke="none" stroke-width="0"/><rect x="58.0" y="485.0" width="21.0" height="85.0" rx="2" fill="#c8d8dd" stroke="#213640" stroke-width="1"/><rect x="61.0" y="490.0" width="15.0" height="4.0" rx="0" fill="#86b6c2" stroke="none" stroke-width="0"/><rect x="986.0" y="374.0" width="26.0" height="169.0" rx="2" fill="#b9c8cc" stroke="#213640" stroke-width="1"/><rect x="989.0" y="379.0" width="20.0" height="4.0" rx="0" fill="#86b6c2" stroke="none" stroke-width="0"/><rect x="261.0" y="495.0" width="19.0" height="110.0" rx="2" fill="#b9c8cc" stroke="#213640" stroke-width="1"/><rect x="264.0" y="500.0" width="13.0" height="4.0" rx="0" fill="#86b6c2" stroke="none" stroke-width="0"/><rect x="226.0" y="381.0" width="22.0" height="127.0" rx="2" fill="#d7b987" stroke="#213640" stroke-width="1"/><rect x="229.0" y="386.0" width="16.0" height="4.0" rx="0" fill="#86b6c2" stroke="none" stroke-width="0"/><polygon points="221.0,381.0 237.0,351.0 253.0,381.0" fill="#b84a3d" stroke="none" stroke-width="0"/><rect x="604.0" y="520.0" width="39.0" height="114.0" rx="2" fill="#d7b987" stroke="#213640" stroke-width="1"/><rect x="607.0" y="525.0" width="33.0" height="4.0" rx="0" fill="#86b6c2" stroke="none" stroke-width="0"/><rect x="667.0" y="427.0" width="41.0" height="73.0" rx="2" fill="#d7b987" stroke="#213640" stroke-width="1"/><rect x="670.0" y="432.0" width="35.0" height="4.0" rx="0" fill="#86b6c2" stroke="none" stroke-width="0"/><rect x="1030.0" y="441.0" width="37.0" height="55.0" rx="2" fill="#e4d2bd" stroke="#213640" stroke-width="1"/><rect x="1033.0" y="446.0" width="31.0" height="4.0" rx="0" fill="#86b6c2" stroke="none" stroke-width="0"/><rect x="871.0" y="364.0" width="32.0" height="99.0" rx="2" fill="#b9c8cc" stroke="#213640" stroke-width="1"/><rect x="874.0" y="369.0" width="26.0" height="4.0" rx="0" fill="#86b6c2" stroke="none" stroke-width="0"/><rect x="338.0" y="308.0" width="28.0" height="161.0" rx="2" fill="#c8d8dd" stroke="#213640" stroke-width="1"/><rect x="341.0" y="313.0" width="22.0" height="4.0" rx="0" fill="#86b6c2" stroke="none" stroke-width="0"/><rect x="307.0" y="502.0" width="21.0" height="140.0" rx="2" fill="#c8d8dd" stroke="#213640" stroke-width="1"/><rect x="310.0" y="507.0" width="15.0" height="4.0" rx="0" fill="#86b6c2" stroke="none" stroke-width="0"/><rect x="929.0" y="408.0" width="27.0" height="142.0" rx="2" fill="#c8d8dd" stroke="#213640" stroke-width="1"/><rect x="932.0" y="413.0" width="21.0" height="4.0" rx="0" fill="#86b6c2" stroke="none" stroke-width="0"/><rect x="968.0" y="445.0" width="32.0" height="168.0" rx="2" fill="#b9c8cc" stroke="#213640" stroke-width="1"/><rect x="971.0" y="450.0" width="26.0" height="4.0" rx="0" fill="#86b6c2" stroke="none" stroke-width="0"/><rect x="690.0" y="422.0" width="30.0" height="155.0" rx="2" fill="#c8d8dd" stroke="#213640" stroke-width="1"/><rect x="693.0" y="427.0" width="24.0" height="4.0" rx="0" fill="#86b6c2" stroke="none" stroke-width="0"/><rect x="270.0" y="471.0" width="38.0" height="80.0" rx="2" fill="#b9c8cc" stroke="#213640" stroke-width="1"/><rect x="273.0" y="476.0" width="32.0" height="4.0" rx="0" fill="#86b6c2" stroke="none" stroke-width="0"/><rect x="733.0" y="397.0" width="34.0" height="104.0" rx="2" fill="#e4d2bd" stroke="#213640" stroke-width="1"/><rect x="736.0" y="402.0" width="28.0" height="4.0" rx="0" fill="#86b6c2" stroke="none" stroke-width="0"/><polygon points="728.0,397.0 750.0,367.0 772.0,397.0" fill="#b84a3d" stroke="none" stroke-width="0"/><rect x="1069.0" y="362.0" width="39.0" height="185.0" rx="2" fill="#e8e0cf" stroke="#213640" stroke-width="1"/><rect x="1072.0" y="367.0" width="33.0" height="4.0" rx="0" fill="#86b6c2" stroke="none" stroke-width="0"/><rect x="666.0" y="389.0" width="26.0" height="159.0" rx="2" fill="#d7b987" stroke="#213640" stroke-width="1"/><rect x="669.0" y="394.0" width="20.0" height="4.0" rx="0" fill="#86b6c2" stroke="none" stroke-width="0"/><rect x="736.0" y="584.0" width="33.0" height="37.0" rx="2" fill="#e4d2bd" stroke="#213640" stroke-width="1"/><rect x="553.0" y="385.0" width="27.0" height="153.0" rx="2" fill="#e4d2bd" stroke="#213640" stroke-width="1"/><rect x="556.0" y="390.0" width="21.0" height="4.0" rx="0" fill="#86b6c2" stroke="none" stroke-width="0"/><rect x="770.0" y="405.0" width="29.0" height="139.0" rx="2" fill="#c8d8dd" stroke="#213640" stroke-width="1"/><rect x="773.0" y="410.0" width="23.0" height="4.0" rx="0" fill="#86b6c2" stroke="none" stroke-width="0"/><rect x="961.0" y="381.0" width="22.0" height="167.0" rx="2" fill="#e4d2bd" stroke="#213640" stroke-width="1"/><rect x="964.0" y="386.0" width="16.0" height="4.0" rx="0" fill="#86b6c2" stroke="none" stroke-width="0"/><rect x="380.0" y="348.0" width="27.0" height="157.0" rx="2" fill="#e8e0cf" stroke="#213640" stroke-width="1"/><rect x="383.0" y="353.0" width="21.0" height="4.0" rx="0" fill="#86b6c2" stroke="none" stroke-width="0"/><rect x="893.0" y="331.0" width="39.0" height="167.0" rx="2" fill="#b9c8cc" stroke="#213640" stroke-width="1"/><rect x="896.0" y="336.0" width="33.0" height="4.0" rx="0" fill="#86b6c2" stroke="none" stroke-width="0"/><rect x="659.0" y="572.0" width="24.0" height="42.0" rx="2" fill="#c8d8dd" stroke="#213640" stroke-width="1"/><rect x="662.0" y="577.0" width="18.0" height="4.0" rx="0" fill="#86b6c2" stroke="none" stroke-width="0"/><rect x="943.0" y="523.0" width="42.0" height="91.0" rx="2" fill="#c8d8dd" stroke="#213640" stroke-width="1"/><rect x="946.0" y="528.0" width="36.0" height="4.0" rx="0" fill="#86b6c2" stroke="none" stroke-width="0"/><rect x="125.0" y="527.0" width="22.0" height="48.0" rx="2" fill="#e8e0cf" stroke="#213640" stroke-width="1"/><rect x="128.0" y="532.0" width="16.0" height="4.0" rx="0" fill="#86b6c2" stroke="none" stroke-width="0"/><polygon points="120.0,527.0 136.0,497.0 152.0,527.0" fill="#b84a3d" stroke="none" stroke-width="0"/><rect x="689.0" y="326.0" width="19.0" height="175.0" rx="2" fill="#b9c8cc" stroke="#213640" stroke-width="1"/><rect x="692.0" y="331.0" width="13.0" height="4.0" rx="0" fill="#86b6c2" stroke="none" stroke-width="0"/><rect x="992.0" y="358.0" width="24.0" height="186.0" rx="2" fill="#c8d8dd" stroke="#213640" stroke-width="1"/><rect x="995.0" y="363.0" width="18.0" height="4.0" rx="0" fill="#86b6c2" stroke="none" stroke-width="0"/><rect x="805.0" y="349.0" width="31.0" height="106.0" rx="2" fill="#e8e0cf" stroke="#213640" stroke-width="1"/><rect x="808.0" y="354.0" width="25.0" height="4.0" rx="0" fill="#86b6c2" stroke="none" stroke-width="0"/><rect x="805.0" y="405.0" width="27.0" height="59.0" rx="2" fill="#e4d2bd" stroke="#213640" stroke-width="1"/><rect x="808.0" y="410.0" width="21.0" height="4.0" rx="0" fill="#86b6c2" stroke="none" stroke-width="0"/><rect x="1089.0" y="431.0" width="29.0" height="110.0" rx="2" fill="#c8d8dd" stroke="#213640" stroke-width="1"/><rect x="1092.0" y="436.0" width="23.0" height="4.0" rx="0" fill="#86b6c2" stroke="none" stroke-width="0"/><rect x="898.0" y="387.0" width="29.0" height="172.0" rx="2" fill="#b9c8cc" stroke="#213640" stroke-width="1"/><rect x="901.0" y="392.0" width="23.0" height="4.0" rx="0" fill="#86b6c2" stroke="none" stroke-width="0"/><rect x="331.0" y="316.0" width="33.0" height="179.0" rx="2" fill="#c8d8dd" stroke="#213640" stroke-width="1"/><rect x="334.0" y="321.0" width="27.0" height="4.0" rx="0" fill="#86b6c2" stroke="none" stroke-width="0"/><rect x="312.0" y="575.0" width="30.0" height="35.0" rx="2" fill="#e8e0cf" stroke="#213640" stroke-width="1"/><rect x="707.0" y="528.0" width="28.0" height="71.0" rx="2" fill="#e4d2bd" stroke="#213640" stroke-width="1"/><rect x="710.0" y="533.0" width="22.0" height="4.0" rx="0" fill="#86b6c2" stroke="none" stroke-width="0"/><rect x="809.0" y="403.0" width="27.0" height="161.0" rx="2" fill="#b9c8cc" stroke="#213640" stroke-width="1"/><rect x="812.0" y="408.0" width="21.0" height="4.0" rx="0" fill="#86b6c2" stroke="none" stroke-width="0"/><rect x="817.0" y="366.0" width="37.0" height="187.0" rx="2" fill="#d7b987" stroke="#213640" stroke-width="1"/><rect x="820.0" y="371.0" width="31.0" height="4.0" rx="0" fill="#86b6c2" stroke="none" stroke-width="0"/><polygon points="812.0,366.0 835.5,336.0 859.0,366.0" fill="#b84a3d" stroke="none" stroke-width="0"/><rect x="656.0" y="542.0" width="28.0" height="40.0" rx="2" fill="#d7b987" stroke="#213640" stroke-width="1"/><rect x="1047.0" y="487.0" width="21.0" height="41.0" rx="2" fill="#e4d2bd" stroke="#213640" stroke-width="1"/><rect x="1050.0" y="492.0" width="15.0" height="4.0" rx="0" fill="#86b6c2" stroke="none" stroke-width="0"/><rect x="948.0" y="448.0" width="30.0" height="69.0" rx="2" fill="#e8e0cf" stroke="#213640" stroke-width="1"/><rect x="951.0" y="453.0" width="24.0" height="4.0" rx="0" fill="#86b6c2" stroke="none" stroke-width="0"/><rect x="1023.0" y="494.0" width="33.0" height="97.0" rx="2" fill="#e8e0cf" stroke="#213640" stroke-width="1"/><rect x="1026.0" y="499.0" width="27.0" height="4.0" rx="0" fill="#86b6c2" stroke="none" stroke-width="0"/><rect x="543.0" y="472.0" width="27.0" height="108.0" rx="2" fill="#b9c8cc" stroke="#213640" stroke-width="1"/><rect x="546.0" y="477.0" width="21.0" height="4.0" rx="0" fill="#86b6c2" stroke="none" stroke-width="0"/><rect x="1012.0" y="548.0" width="42.0" height="39.0" rx="2" fill="#c8d8dd" stroke="#213640" stroke-width="1"/><rect x="655.0" y="417.0" width="41.0" height="110.0" rx="2" fill="#e4d2bd" stroke="#213640" stroke-width="1"/><rect x="658.0" y="422.0" width="35.0" height="4.0" rx="0" fill="#86b6c2" stroke="none" stroke-width="0"/><rect x="94.0" y="387.0" width="22.0" height="186.0" rx="2" fill="#e8e0cf" stroke="#213640" stroke-width="1"/><rect x="97.0" y="392.0" width="16.0" height="4.0" rx="0" fill="#86b6c2" stroke="none" stroke-width="0"/><rect x="45.0" y="457.0" width="39.0" height="62.0" rx="2" fill="#e4d2bd" stroke="#213640" stroke-width="1"/><rect x="48.0" y="462.0" width="33.0" height="4.0" rx="0" fill="#86b6c2" stroke="none" stroke-width="0"/><rect x="431.0" y="271.0" width="36.0" height="187.0" rx="2" fill="#b9c8cc" stroke="#213640" stroke-width="1"/><rect x="434.0" y="276.0" width="30.0" height="4.0" rx="0" fill="#86b6c2" stroke="none" stroke-width="0"/><rect x="829.0" y="466.0" width="32.0" height="110.0" rx="2" fill="#e8e0cf" stroke="#213640" stroke-width="1"/><rect x="832.0" y="471.0" width="26.0" height="4.0" rx="0" fill="#86b6c2" stroke="none" stroke-width="0"/><polygon points="824.0,466.0 845.0,436.0 866.0,466.0" fill="#b84a3d" stroke="none" stroke-width="0"/><rect x="661.0" y="271.0" width="27.0" height="184.0" rx="2" fill="#b9c8cc" stroke="#213640" stroke-width="1"/><rect x="664.0" y="276.0" width="21.0" height="4.0" rx="0" fill="#86b6c2" stroke="none" stroke-width="0"/><rect x="676.0" y="316.0" width="33.0" height="175.0" rx="2" fill="#d7b987" stroke="#213640" stroke-width="1"/><rect x="679.0" y="321.0" width="27.0" height="4.0" rx="0" fill="#86b6c2" stroke="none" stroke-width="0"/><rect x="354.0" y="516.0" width="20.0" height="47.0" rx="2" fill="#c8d8dd" stroke="#213640" stroke-width="1"/><rect x="357.0" y="521.0" width="14.0" height="4.0" rx="0" fill="#86b6c2" stroke="none" stroke-width="0"/><rect x="587.0" y="435.0" width="28.0" height="41.0" rx="2" fill="#b9c8cc" stroke="#213640" stroke-width="1"/><rect x="590.0" y="440.0" width="22.0" height="4.0" rx="0" fill="#86b6c2" stroke="none" stroke-width="0"/><rect x="180.0" y="511.0" width="21.0" height="47.0" rx="2" fill="#e8e0cf" stroke="#213640" stroke-width="1"/><rect x="183.0" y="516.0" width="15.0" height="4.0" rx="0" fill="#86b6c2" stroke="none" stroke-width="0"/><rect x="488.0" y="543.0" width="27.0" height="69.0" rx="2" fill="#b9c8cc" stroke="#213640" stroke-width="1"/><rect x="491.0" y="548.0" width="21.0" height="4.0" rx="0" fill="#86b6c2" stroke="none" stroke-width="0"/><rect x="346.0" y="361.0" width="23.0" height="140.0" rx="2" fill="#e8e0cf" stroke="#213640" stroke-width="1"/><rect x="349.0" y="366.0" width="17.0" height="4.0" rx="0" fill="#86b6c2" stroke="none" stroke-width="0"/><rect x="476.0" y="334.0" width="41.0" height="132.0" rx="2" fill="#e8e0cf" stroke="#213640" stroke-width="1"/><rect x="479.0" y="339.0" width="35.0" height="4.0" rx="0" fill="#86b6c2" stroke="none" stroke-width="0"/><rect x="613.0" y="404.0" width="41.0" height="65.0" rx="2" fill="#b9c8cc" stroke="#213640" stroke-width="1"/><rect x="616.0" y="409.0" width="35.0" height="4.0" rx="0" fill="#86b6c2" stroke="none" stroke-width="0"/><rect x="315.0" y="342.0" width="39.0" height="115.0" rx="2" fill="#e4d2bd" stroke="#213640" stroke-width="1"/><rect x="318.0" y="347.0" width="33.0" height="4.0" rx="0" fill="#86b6c2" stroke="none" stroke-width="0"/><rect x="1042.0" y="531.0" width="22.0" height="49.0" rx="2" fill="#d7b987" stroke="#213640" stroke-width="1"/><rect x="1045.0" y="536.0" width="16.0" height="4.0" rx="0" fill="#86b6c2" stroke="none" stroke-width="0"/><polygon points="1037.0,531.0 1053.0,501.0 1069.0,531.0" fill="#b84a3d" stroke="none" stroke-width="0"/><rect x="349.0" y="491.0" width="35.0" height="109.0" rx="2" fill="#e4d2bd" stroke="#213640" stroke-width="1"/><rect x="352.0" y="496.0" width="29.0" height="4.0" rx="0" fill="#86b6c2" stroke="none" stroke-width="0"/><rect x="491.0" y="427.0" width="26.0" height="95.0" rx="2" fill="#d7b987" stroke="#213640" stroke-width="1"/><rect x="494.0" y="432.0" width="20.0" height="4.0" rx="0" fill="#86b6c2" stroke="none" stroke-width="0"/><rect x="1098.0" y="359.0" width="32.0" height="130.0" rx="2" fill="#b9c8cc" stroke="#213640" stroke-width="1"/><rect x="1101.0" y="364.0" width="26.0" height="4.0" rx="0" fill="#86b6c2" stroke="none" stroke-width="0"/><rect x="407.0" y="366.0" width="20.0" height="122.0" rx="2" fill="#e4d2bd" stroke="#213640" stroke-width="1"/><rect x="410.0" y="371.0" width="14.0" height="4.0" rx="0" fill="#86b6c2" stroke="none" stroke-width="0"/><rect x="113.0" y="314.0" width="37.0" height="164.0" rx="2" fill="#b9c8cc" stroke="#213640" stroke-width="1"/><rect x="116.0" y="319.0" width="31.0" height="4.0" rx="0" fill="#86b6c2" stroke="none" stroke-width="0"/><rect x="528.0" y="397.0" width="28.0" height="157.0" rx="2" fill="#e8e0cf" stroke="#213640" stroke-width="1"/><rect x="531.0" y="402.0" width="22.0" height="4.0" rx="0" fill="#86b6c2" stroke="none" stroke-width="0"/><rect x="1126.0" y="414.0" width="22.0" height="48.0" rx="2" fill="#b9c8cc" stroke="#213640" stroke-width="1"/><rect x="1129.0" y="419.0" width="16.0" height="4.0" rx="0" fill="#86b6c2" stroke="none" stroke-width="0"/><rect x="496.0" y="486.0" width="24.0" height="160.0" rx="2" fill="#c8d8dd" stroke="#213640" stroke-width="1"/><rect x="499.0" y="491.0" width="18.0" height="4.0" rx="0" fill="#86b6c2" stroke="none" stroke-width="0"/><rect x="809.0" y="436.0" width="28.0" height="109.0" rx="2" fill="#e4d2bd" stroke="#213640" stroke-width="1"/><rect x="812.0" y="441.0" width="22.0" height="4.0" rx="0" fill="#86b6c2" stroke="none" stroke-width="0"/><rect x="754.0" y="427.0" width="38.0" height="126.0" rx="2" fill="#d7b987" stroke="#213640" stroke-width="1"/><rect x="757.0" y="432.0" width="32.0" height="4.0" rx="0" fill="#86b6c2" stroke="none" stroke-width="0"/><rect x="927.0" y="361.0" width="36.0" height="186.0" rx="2" fill="#c8d8dd" stroke="#213640" stroke-width="1"/><rect x="930.0" y="366.0" width="30.0" height="4.0" rx="0" fill="#86b6c2" stroke="none" stroke-width="0"/><polygon points="922.0,361.0 945.0,331.0 968.0,361.0" fill="#b84a3d" stroke="none" stroke-width="0"/><rect x="409.0" y="512.0" width="19.0" height="44.0" rx="2" fill="#c8d8dd" stroke="#213640" stroke-width="1"/><rect x="412.0" y="517.0" width="13.0" height="4.0" rx="0" fill="#86b6c2" stroke="none" stroke-width="0"/><rect x="454.0" y="347.0" width="39.0" height="158.0" rx="2" fill="#d7b987" stroke="#213640" stroke-width="1"/><rect x="457.0" y="352.0" width="33.0" height="4.0" rx="0" fill="#86b6c2" stroke="none" stroke-width="0"/><rect x="40.0" y="420.0" width="28.0" height="144.0" rx="2" fill="#b9c8cc" stroke="#213640" stroke-width="1"/><rect x="43.0" y="425.0" width="22.0" height="4.0" rx="0" fill="#86b6c2" stroke="none" stroke-width="0"/><rect x="985.0" y="405.0" width="20.0" height="75.0" rx="2" fill="#d7b987" stroke="#213640" stroke-width="1"/><rect x="988.0" y="410.0" width="14.0" height="4.0" rx="0" fill="#86b6c2" stroke="none" stroke-width="0"/><rect x="829.0" y="475.0" width="21.0" height="100.0" rx="2" fill="#d7b987" stroke="#213640" stroke-width="1"/><rect x="832.0" y="480.0" width="15.0" height="4.0" rx="0" fill="#86b6c2" stroke="none" stroke-width="0"/><rect x="370.0" y="604.0" width="33.0" height="43.0" rx="2" fill="#e8e0cf" stroke="#213640" stroke-width="1"/><rect x="373.0" y="609.0" width="27.0" height="4.0" rx="0" fill="#86b6c2" stroke="none" stroke-width="0"/><rect x="745.0" y="597.0" width="40.0" height="50.0" rx="2" fill="#e8e0cf" stroke="#213640" stroke-width="1"/><rect x="748.0" y="602.0" width="34.0" height="4.0" rx="0" fill="#86b6c2" stroke="none" stroke-width="0"/><rect x="975.0" y="510.0" width="39.0" height="65.0" rx="2" fill="#d7b987" stroke="#213640" stroke-width="1"/><rect x="978.0" y="515.0" width="33.0" height="4.0" rx="0" fill="#86b6c2" stroke="none" stroke-width="0"/><rect x="636.0" y="495.0" width="19.0" height="76.0" rx="2" fill="#c8d8dd" stroke="#213640" stroke-width="1"/><rect x="639.0" y="500.0" width="13.0" height="4.0" rx="0" fill="#86b6c2" stroke="none" stroke-width="0"/><rect x="91.0" y="465.0" width="40.0" height="137.0" rx="2" fill="#d7b987" stroke="#213640" stroke-width="1"/><rect x="94.0" y="470.0" width="34.0" height="4.0" rx="0" fill="#86b6c2" stroke="none" stroke-width="0"/><rect x="678.0" y="395.0" width="20.0" height="107.0" rx="2" fill="#b9c8cc" stroke="#213640" stroke-width="1"/><rect x="681.0" y="400.0" width="14.0" height="4.0" rx="0" fill="#86b6c2" stroke="none" stroke-width="0"/><polygon points="673.0,395.0 688.0,365.0 703.0,395.0" fill="#b84a3d" stroke="none" stroke-width="0"/><rect x="374.0" y="470.0" width="38.0" height="46.0" rx="2" fill="#e4d2bd" stroke="#213640" stroke-width="1"/><rect x="377.0" y="475.0" width="32.0" height="4.0" rx="0" fill="#86b6c2" stroke="none" stroke-width="0"/><rect x="921.0" y="487.0" width="19.0" height="153.0" rx="2" fill="#b9c8cc" stroke="#213640" stroke-width="1"/><rect x="924.0" y="492.0" width="13.0" height="4.0" rx="0" fill="#86b6c2" stroke="none" stroke-width="0"/><rect x="880.0" y="323.0" width="34.0" height="175.0" rx="2" fill="#e4d2bd" stroke="#213640" stroke-width="1"/><rect x="883.0" y="328.0" width="28.0" height="4.0" rx="0" fill="#86b6c2" stroke="none" stroke-width="0"/><rect x="756.0" y="384.0" width="33.0" height="95.0" rx="2" fill="#e8e0cf" stroke="#213640" stroke-width="1"/><rect x="759.0" y="389.0" width="27.0" height="4.0" rx="0" fill="#86b6c2" stroke="none" stroke-width="0"/><rect x="1005.0" y="421.0" width="33.0" height="47.0" rx="2" fill="#b9c8cc" stroke="#213640" stroke-width="1"/><rect x="1008.0" y="426.0" width="27.0" height="4.0" rx="0" fill="#86b6c2" stroke="none" stroke-width="0"/><rect x="163.0" y="318.0" width="27.0" height="149.0" rx="2" fill="#e8e0cf" stroke="#213640" stroke-width="1"/><rect x="166.0" y="323.0" width="21.0" height="4.0" rx="0" fill="#86b6c2" stroke="none" stroke-width="0"/><rect x="117.0" y="366.0" width="24.0" height="138.0" rx="2" fill="#e4d2bd" stroke="#213640" stroke-width="1"/><rect x="120.0" y="371.0" width="18.0" height="4.0" rx="0" fill="#86b6c2" stroke="none" stroke-width="0"/><rect x="518.0" y="414.0" width="20.0" height="62.0" rx="2" fill="#e4d2bd" stroke="#213640" stroke-width="1"/><rect x="521.0" y="419.0" width="14.0" height="4.0" rx="0" fill="#86b6c2" stroke="none" stroke-width="0"/><rect x="371.0" y="569.0" width="32.0" height="39.0" rx="2" fill="#e4d2bd" stroke="#213640" stroke-width="1"/><rect x="772.0" y="448.0" width="34.0" height="131.0" rx="2" fill="#c8d8dd" stroke="#213640" stroke-width="1"/><rect x="775.0" y="453.0" width="28.0" height="4.0" rx="0" fill="#86b6c2" stroke="none" stroke-width="0"/><rect x="65.0" y="556.0" width="35.0" height="92.0" rx="2" fill="#e8e0cf" stroke="#213640" stroke-width="1"/><rect x="68.0" y="561.0" width="29.0" height="4.0" rx="0" fill="#86b6c2" stroke="none" stroke-width="0"/><polygon points="60.0,556.0 82.5,526.0 105.0,556.0" fill="#b84a3d" stroke="none" stroke-width="0"/><rect x="439.0" y="421.0" width="70.0" height="75.0" rx="0" fill="#caa96b" stroke="none" stroke-width="0"/><polygon points="429.0,421.0 474.0,391.0 519.0,421.0" fill="#b74439" stroke="none" stroke-width="0"/><rect x="449.0" y="446.0" width="50.0" height="5.0" rx="0" fill="#b74439" stroke="none" stroke-width="0"/><rect x="209.0" y="399.0" width="24.0" height="130.0" rx="0" fill="#4d6771" stroke="none" stroke-width="0"/><rect x="202.0" y="384.0" width="38.0" height="15.0" rx="0" fill="#d4b15d" stroke="none" stroke-width="0"/><circle cx="554.0" cy="679.0" r="11.0" fill="#2d6b4b"/><rect x="552.0" y="679.0" width="4.0" height="10.0" rx="0" fill="#614a35" stroke="none" stroke-width="0"/><circle cx="655.0" cy="503.0" r="7.0" fill="#2d6b4b"/><rect x="653.0" y="503.0" width="4.0" height="10.0" rx="0" fill="#614a35" stroke="none" stroke-width="0"/><circle cx="1114.0" cy="490.0" r="12.0" fill="#2d6b4b"/><rect x="1112.0" y="490.0" width="4.0" height="10.0" rx="0" fill="#614a35" stroke="none" stroke-width="0"/><circle cx="516.0" cy="648.0" r="6.0" fill="#2d6b4b"/><rect x="514.0" y="648.0" width="4.0" height="10.0" rx="0" fill="#614a35" stroke="none" stroke-width="0"/><circle cx="892.0" cy="617.0" r="8.0" fill="#2d6b4b"/><rect x="890.0" y="617.0" width="4.0" height="10.0" rx="0" fill="#614a35" stroke="none" stroke-width="0"/><circle cx="579.0" cy="485.0" r="12.0" fill="#2d6b4b"/><rect x="577.0" y="485.0" width="4.0" height="10.0" rx="0" fill="#614a35" stroke="none" stroke-width="0"/><circle cx="524.0" cy="482.0" r="8.0" fill="#2d6b4b"/><rect x="522.0" y="482.0" width="4.0" height="10.0" rx="0" fill="#614a35" stroke="none" stroke-width="0"/><circle cx="600.0" cy="565.0" r="6.0" fill="#2d6b4b"/><rect x="598.0" y="565.0" width="4.0" height="10.0" rx="0" fill="#614a35" stroke="none" stroke-width="0"/><circle cx="162.0" cy="577.0" r="10.0" fill="#2d6b4b"/><rect x="160.0" y="577.0" width="4.0" height="10.0" rx="0" fill="#614a35" stroke="none" stroke-width="0"/><circle cx="792.0" cy="662.0" r="13.0" fill="#2d6b4b"/><rect x="790.0" y="662.0" width="4.0" height="10.0" rx="0" fill="#614a35" stroke="none" stroke-width="0"/><circle cx="15.0" cy="543.0" r="7.0" fill="#2d6b4b"/><rect x="13.0" y="543.0" width="4.0" height="10.0" rx="0" fill="#614a35" stroke="none" stroke-width="0"/><circle cx="72.0" cy="583.0" r="7.0" fill="#2d6b4b"/><rect x="70.0" y="583.0" width="4.0" height="10.0" rx="0" fill="#614a35" stroke="none" stroke-width="0"/><circle cx="53.0" cy="656.0" r="5.0" fill="#2d6b4b"/><rect x="51.0" y="656.0" width="4.0" height="10.0" rx="0" fill="#614a35" stroke="none" stroke-width="0"/><circle cx="890.0" cy="538.0" r="6.0" fill="#2d6b4b"/><rect x="888.0" y="538.0" width="4.0" height="10.0" rx="0" fill="#614a35" stroke="none" stroke-width="0"/><circle cx="798.0" cy="613.0" r="7.0" fill="#2d6b4b"/><rect x="796.0" y="613.0" width="4.0" height="10.0" rx="0" fill="#614a35" stroke="none" stroke-width="0"/><circle cx="672.0" cy="486.0" r="9.0" fill="#2d6b4b"/><rect x="670.0" y="486.0" width="4.0" height="10.0" rx="0" fill="#614a35" stroke="none" stroke-width="0"/><circle cx="361.0" cy="505.0" r="9.0" fill="#2d6b4b"/><rect x="359.0" y="505.0" width="4.0" height="10.0" rx="0" fill="#614a35" stroke="none" stroke-width="0"/><circle cx="1034.0" cy="643.0" r="10.0" fill="#2d6b4b"/><rect x="1032.0" y="643.0" width="4.0" height="10.0" rx="0" fill="#614a35" stroke="none" stroke-width="0"/><circle cx="599.0" cy="478.0" r="6.0" fill="#2d6b4b"/><rect x="597.0" y="478.0" width="4.0" height="10.0" rx="0" fill="#614a35" stroke="none" stroke-width="0"/><circle cx="1125.0" cy="665.0" r="13.0" fill="#2d6b4b"/><rect x="1123.0" y="665.0" width="4.0" height="10.0" rx="0" fill="#614a35" stroke="none" stroke-width="0"/><circle cx="72.0" cy="477.0" r="6.0" fill="#2d6b4b"/><rect x="70.0" y="477.0" width="4.0" height="10.0" rx="0" fill="#614a35" stroke="none" stroke-width="0"/><circle cx="118.0" cy="503.0" r="10.0" fill="#2d6b4b"/><rect x="116.0" y="503.0" width="4.0" height="10.0" rx="0" fill="#614a35" stroke="none" stroke-width="0"/><circle cx="907.0" cy="536.0" r="5.0" fill="#2d6b4b"/><rect x="905.0" y="536.0" width="4.0" height="10.0" rx="0" fill="#614a35" stroke="none" stroke-width="0"/><circle cx="488.0" cy="605.0" r="11.0" fill="#2d6b4b"/><rect x="486.0" y="605.0" width="4.0" height="10.0" rx="0" fill="#614a35" stroke="none" stroke-width="0"/><circle cx="271.0" cy="562.0" r="8.0" fill="#2d6b4b"/><rect x="269.0" y="562.0" width="4.0" height="10.0" rx="0" fill="#614a35" stroke="none" stroke-width="0"/><circle cx="691.0" cy="561.0" r="5.0" fill="#2d6b4b"/><rect x="689.0" y="561.0" width="4.0" height="10.0" rx="0" fill="#614a35" stroke="none" stroke-width="0"/><circle cx="349.0" cy="619.0" r="7.0" fill="#2d6b4b"/><rect x="347.0" y="619.0" width="4.0" height="10.0" rx="0" fill="#614a35" stroke="none" stroke-width="0"/><circle cx="210.0" cy="538.0" r="13.0" fill="#2d6b4b"/><rect x="208.0" y="538.0" width="4.0" height="10.0" rx="0" fill="#614a35" stroke="none" stroke-width="0"/><circle cx="365.0" cy="631.0" r="7.0" fill="#2d6b4b"/><rect x="363.0" y="631.0" width="4.0" height="10.0" rx="0" fill="#614a35" stroke="none" stroke-width="0"/><circle cx="928.0" cy="665.0" r="11.0" fill="#2d6b4b"/><rect x="926.0" y="665.0" width="4.0" height="10.0" rx="0" fill="#614a35" stroke="none" stroke-width="0"/><circle cx="894.0" cy="500.0" r="10.0" fill="#2d6b4b"/><rect x="892.0" y="500.0" width="4.0" height="10.0" rx="0" fill="#614a35" stroke="none" stroke-width="0"/><circle cx="664.0" cy="584.0" r="8.0" fill="#2d6b4b"/><rect x="662.0" y="584.0" width="4.0" height="10.0" rx="0" fill="#614a35" stroke="none" stroke-width="0"/><circle cx="959.0" cy="622.0" r="11.0" fill="#2d6b4b"/><rect x="957.0" y="622.0" width="4.0" height="10.0" rx="0" fill="#614a35" stroke="none" stroke-width="0"/><circle cx="366.0" cy="583.0" r="5.0" fill="#2d6b4b"/><rect x="364.0" y="583.0" width="4.0" height="10.0" rx="0" fill="#614a35" stroke="none" stroke-width="0"/><circle cx="343.0" cy="606.0" r="12.0" fill="#2d6b4b"/><rect x="341.0" y="606.0" width="4.0" height="10.0" rx="0" fill="#614a35" stroke="none" stroke-width="0"/><polyline points="653.0,576.0 913.0,556.0" fill="none" stroke="#c8b07a" stroke-width="12" opacity="0.9" stroke-linecap="round" /><polyline points="653.0,576.0 653.0,531.0" fill="none" stroke="#a98e61" stroke-width="3" opacity="0.8" stroke-linecap="round" /><polyline points="705.0,576.0 705.0,531.0" fill="none" stroke="#a98e61" stroke-width="3" opacity="0.8" stroke-linecap="round" /><polyline points="757.0,576.0 757.0,531.0" fill="none" stroke="#a98e61" stroke-width="3" opacity="0.8" stroke-linecap="round" /><polyline points="809.0,576.0 809.0,531.0" fill="none" stroke="#a98e61" stroke-width="3" opacity="0.8" stroke-linecap="round" /><polyline points="861.0,576.0 861.0,531.0" fill="none" stroke="#a98e61" stroke-width="3" opacity="0.8" stroke-linecap="round" /><circle cx="161.0" cy="133.0" r="24.0" fill="#fff0b0"/></svg>