<svg xmlns="http://www.w3.org/2000/svg" viewBox="0 0 1200 700"><defs><linearGradient id="sky" x2="0" y2="1"><stop stop-color="#f2c48e"/><stop offset="1" stop-color="#e7b07d"/></linearGradient><linearGradient id="ground" x2="0" y2="1"><stop stop-color="#567f62"/><stop offset="1" stop-color="#2d5640"/></linearGradient></defs><rect x="0.0" y="0.0" width="1200.0" height="700.0" rx="0" fill="url(#sky)" stroke="none" stroke-width="0"/><rect x="0.0" y="410.0" width="1200.0" height="290.0" rx="0" fill="url(#ground)" stroke="none" stroke-width="0"/><polygon points="-100.0,410.0 50.0,305.0 200.0,410.0" fill="#36596b" stroke="none" stroke-width="0"/><polygon points="180.0,410.0 330.0,321.0 480.0,410.0" fill="#36596b" stroke="none" stroke-width="0"/><polygon points="460.0,410.0 610.0,322.0 760.0,410.0" fill="#36596b" stroke="none" stroke-width="0"/><polygon points="740.0,410.0 890.0,298.0 1040.0,410.0" fill="#36596b" stroke="none" stroke-width="0"/><polygon points="1020.0,410.0 1170.0,225.0 1320.0,410.0" fill="#36596b" stroke="none" stroke-width="0"/><polyline points="588.0,400.0 515.0,500.0 479.0,700.0" fill="none" stroke="#4a9bb4" stroke-width="34" opacity="0.95" stroke-linecap="round" /><polyline points="588.0,400.0 515.0,500.0 479.0,700.0" fill="none" stroke="#7cc6d3" stroke-width="17" opacity="0.8" stroke-linecap="round" /><polyline points="822.0,700.0 752.0,423.0" fill="none" stroke="#30383c" stroke-width="5" opacity="0.9" stroke-linecap="round" /><polyline points="551.0,700.0 842.0,409.0" fill="none" stroke="#30383c" stroke-width="5" opacity="0.9" stroke-linecap="round" /><polyline points="930.0,700.0 767.0,494.0" fill="none" stroke="#30383c" stroke-width="5" opacity="0.9" stroke-linecap="round" /><polyline points="960.0,700.0 698.0,401.0" fill="none" stroke="#30383c" stroke-width="7" opacity="0.9" stroke-linecap="round" /><polyline points="578.0,700.0 480.0,478.0" fill="none" stroke="#30383c" stroke-width="7" opacity="0.9" stroke-linecap="round" /><polyline points="525.0,700.0 484.0,412.0" fill="none" stroke="#30383c" stroke-width="7" opacity="0.9" stroke-linecap="round" /><polyline points="678.0,700.0 378.0,499.0" fill="none" stroke="#30383c" stroke-width="5" opacity="0.9" stroke-linecap="round" /><rect x="388.0" y="538.0" width="40.0" height="34.0" rx="2" fill="#d7b987" stroke="#213640" stroke-width="1"/><rect x="144.0" y="483.0" width="48.0" height="16.0" rx="2" fill="#b9c8cc" stroke="#213640" stroke-width="1"/><rect x="349.0" y="455.0" width="46.0" height="88.0" rx="2" fill="#e4d2bd" stroke="#213640" stroke-width="1"/><rect x="352.0" y="460.0" width="40.0" height="4.0" rx="0" fill="#86b6c2" stroke="none" stroke-width="0"/><rect x="891.0" y="400.0" width="27.0" height="71.0" rx="2" fill="#b9c8cc" stroke="#213640" stroke-width="1"/><rect x="894.0" y="405.0" width="21.0" height="4.0" rx="0" fill="#86b6c2" stroke="none" stroke-width="0"/><rect x="762.0" y="423.0" width="29.0" height="35.0" rx="2" fill="#d7b987" stroke="#213640" stroke-width="1"/><rect x="403.0" y="497.0" width="29.0" height="81.0" rx="2" fill="#e8e0cf" stroke="#213640" stroke-width="1"/><rect x="406.0" y="502.0" width="23.0" height="4.0" rx="0" fill="#86b6c2" stroke="none" stroke-width="0"/><rect x="1099.0" y="477.0" width="23.0" height="41.0" rx="2" fill="#b9c8cc" stroke="#213640" stroke-width="1"/><rect x="1102.0" y="482.0" width="17.0" height="4.0" rx="0" fill="#86b6c2" stroke="none" stroke-width="0"/><rect x="227.0" y="518.0" width="28.0" height="22.0" rx="2" fill="#b9c8cc" stroke="#213640" stroke-width="1"/><rect x="743.0" y="564.0" width="21.0" height="53.0" rx="2" fill="#d7b987" stroke="#213640" stroke-width="1"/><rect x="746.0" y="569.0" width="15.0" height="4.0" rx="0" fill="#86b6c2" stroke="none" stroke-width="0"/><rect x="208.0" y="457.0" width="32.0" height="74.0" rx="2" fill="#d7b987" stroke="#213640" stroke-width="1"/><rect x="211.0" y="462.0" width="26.0" height="4.0" rx="0" fill="#86b6c2" stroke="none" stroke-width="0"/><rect x="1091.0" y="468.0" width="36.0" height="17.0" rx="2" fill="#d7b987" stroke="#213640" stroke-width="1"/><rect x="483.0" y="493.0" width="35.0" height="84.0" rx="2" fill="#e8e0cf" stroke="#213640" stroke-width="1"/><rect x="486.0" y="498.0" width="29.0" height="4.0" rx="0" fill="#86b6c2" stroke="none" stroke-width="0"/><rect x="47.0" y="544.0" width="19.0" height="62.0" rx="2" fill="#c8d8dd" stroke="#213640" stroke-width="1"/><rect x="50.0" y="549.0" width="13.0" height="4.0" rx="0" fill="#86b6c2" stroke="none" stroke-width="0"/><rect x="646.0" y="607.0" width="37.0" height="27.0" rx="2" fill="#e8e0cf" stroke="#213640" stroke-width="1"/><rect x="906.0" y="487.0" width="41.0" height="73.0" rx="2" fill="#e8e0cf" stroke="#213640" stroke-width="1"/><rect x="909.0" y="492.0" width="35.0" height="4.0" rx="0" fill="#86b6c2" stroke="none" stroke-width="0"/><rect x="410.0" y="529.0" width="41.0" height="16.0" rx="2" fill="#e4d2bd" stroke="#213640" stroke-width="1"/><rect x="429.0" y="474.0" width="30.0" height="39.0" rx="2" fill="#d7b987" stroke="#213640" stroke-width="1"/><rect x="825.0" y="451.0" width="29.0" height="20.0" rx="2" fill="#c8d8dd" stroke="#213640" stroke-width="1"/><rect x="168.0" y="431.0" width="27.0" height="44.0" rx="2" fill="#c8d8dd" stroke="#213640" stroke-width="1"/><rect x="171.0" y="436.0" width="21.0" height="4.0" rx="0" fill="#86b6c2" stroke="none" stroke-width="0"/><rect x="986.0" y="533.0" width="44.0" height="76.0" rx="2" fill="#e8e0cf" stroke="#213640" stroke-width="1"/><rect x="989.0" y="538.0" width="38.0" height="4.0" rx="0" fill="#86b6c2" stroke="none" stroke-width="0"/><rect x="516.0" y="557.0" width="29.0" height="50.0" rx="2" fill="#e8e0cf" stroke="#213640" stroke-width="1"/><rect x="519.0" y="562.0" width="23.0" height="4.0" rx="0" fill="#86b6c2" stroke="none" stroke-width="0"/><rect x="1045.0" y="413.0" width="27.0" height="83.0" rx="2" fill="#b9c8cc" stroke="#213640" stroke-width="1"/><rect x="1048.0" y="418.0" width="21.0" height="4.0" rx="0" fill="#86b6c2" stroke="none" stroke-width="0"/><rect x="477.0" y="513.0" width="43.0" height="53.0" rx="2" fill="#c8d8dd" stroke="#213640" stroke-width="1"/><rect x="480.0" y="518.0" width="37.0" height="4.0" rx="0" fill="#86b6c2" stroke="none" stroke-width="0"/><rect x="1083.0" y="436.0" width="40.0" height="57.0" rx="2" fill="#e4d2bd" stroke="#213640" stroke-width="1"/><rect x="1086.0" y="441.0" width="34.0" height="4.0" rx="0" fill="#86b6c2" stroke="none" stroke-width="0"/><rect x="158.0" y="438.0" width="21.0" height="75.0" rx="2" fill="#e4d2bd" stroke="#213640" stroke-width="1"/><rect x="161.0" y="443.0" width="15.0" height="4.0" rx="0" fill="#86b6c2" stroke="none" stroke-width="0"/><rect x="742.0" y="429.0" width="65.0" height="90.0" rx="0" fill="#6e7f86" stroke="none" stroke-width="0"/><rect x="766.0" y="404.0" width="18.0" height="25.0" rx="0" fill="#d9b04d" stroke="none" stroke-width="0"/><rect x="201.0" y="416.0" width="80.0" height="45.0" rx="0" fill="#bfc8c4" stroke="none" stroke-width="0"/><circle cx="241.0" cy="416.0" r="28.0" fill="#5d7d6d"/><rect x="564.0" y="415.0" width="90.0" height="55.0" rx="0" fill="#b8c8cb" stroke="none" stroke-width="0"/><rect x="596.0" y="375.0" width="26.0" height="40.0" rx="0" fill="#59798b" stroke="none" stroke-width="0"/><rect x="433.0" y="305.0" width="24.0" height="130.0" rx="0" fill="#4d6771" stroke="none" stroke-width="0"/><rect x="426.0" y="290.0" width="38.0" height="15.0" rx="0" fill="#d4b15d" stroke="none" stroke-width="0"/><circle cx="273.0" cy="496.0" r="11.0" fill="#2d6b4b"/><rect x="271.0" y="496.0" width="4.0" height="10.0" rx="0" fill="#614a35" stroke="none" stroke-width="0"/><circle cx="192.0" cy="565.0" r="8.0" fill="#2d6b4b"/><rect x="190.0" y="565.0" width="4.0" height="10.0" rx="0" fill="#614a35" stroke="none" stroke-width="0"/><circle cx="354.0" cy="662.0" r="13.0" fill="#2d6b4b"/><rect x="352.0" y="662.0" width="4.0" height="10.0" rx="0" fill="#614a35" stroke="none" stroke-width="0"/><circle cx="56.0" cy="517.0" r="12.0" fill="#2d6b4b"/><rect x="54.0" y="517.0" width="4.0" height="10.0" rx="0" fill="#614a35" stroke="none" stroke-width="0"/><circle cx="118.0" cy="618.0" r="13.0" fill="#2d6b4b"/><rect x="116.0" y="618.0" width="4.0" height="10.0" rx="0" fill="#614a35" stroke="none" stroke-width="0"/><circle cx="924.0" cy="624.0" r="5.0" fill="#2d6b4b"/><rect x="922.0" y="624.0" width="4.0" height="10.0" rx="0" fill="#614a35" stroke="none" stroke-width="0"/><circle cx="469.0" cy="541.0" r="13.0" fill="#2d6b4b"/><rect x="467.0" y="541.0" width="4.0" height="10.0" rx="0" fill="#614a35" stroke="none" stroke-width="0"/><circle cx="430.0" cy="494.0" r="13.0" fill="#2d6b4b"/><rect x="428.0" y="494.0" width="4.0" height="10.0" rx="0" fill="#614a35" stroke="none" stroke-width="0"/><circle cx="1133.0" cy="666.0" r="12.0" fill="#2d6b4b"/><rect x="1131.0" y="666.0" width="4.0" height="10.0" rx="0" fill="#614a35" stroke="none" stroke-width="0"/><circle cx="763.0" cy="554.0" r="13.0" fill="#2d6b4b"/><rect x="761.0" y="554.0" width="4.0" height="10.0" rx="0" fill="#614a35" stroke="none" stroke-width="0"/><circle cx="441.0" cy="570.0" r="8.0" fill="#2d6b4b"/><rect x="439.0" y="570.0" width="4.0" height="10.0" rx="0" fill="#614a35" stroke="none" stroke-width="0"/><circle cx="346.0" cy="472.0" r="10.0" fill="#2d6b4b"/><rect x="344.0" y="472.0" width="4.0" height="10.0" rx="0" fill="#614a35" stroke="none" stroke-width="0"/><circle cx="507.0" cy="603.0" r="8.0" fill="#2d6b4b"/><rect x="505.0" y="603.0" width="4.0" height="10.0" rx="0" fill="#614a35" stroke="none" stroke-width="0"/><circle cx="674.0" cy="567.0" r="12.0" fill="#2d6b4b"/><rect x="672.0" y="567.0" width="4.0" height="10.0" rx="0" fill="#614a35" stroke="none" stroke-width="0"/><circle cx="707.0" cy="486.0" r="8.0" fill="#2d6b4b"/><rect x="705.0" y="486.0" width="4.0" height="10.0" rx="0" fill="#614a35" stroke="none" stroke-width="0"/><circle cx="165.0" cy="619.0" r="5.0" fill="#2d6b4b"/><rect x="163.0" y="619.0" width="4.0" height="10.0" rx="0" fill="#614a35" stroke="none" stroke-width="0"/><circle cx="281.0" cy="482.0" r="12.0" fill="#2d6b4b"/><rect x="279.0" y="482.0" width="4.0" height="10.0" rx="0" fill="#614a35" stroke="none" stroke-width="0"/><circle cx="1130.0" cy="493.0" r="12.0" fill="#2d6b4b"/><rect x="1128.0" y="493.0" width="4.0" height="10.0" rx="0" fill="#614a35" stroke="none" stroke-width="0"/><circle cx="227.0" cy="638.0" r="7.0" fill="#2d6b4b"/><rect x="225.0" y="638.0" width="4.0" height="10.0" rx="0" fill="#614a35" stroke="none" stroke-width="0"/><circle cx="644.0" cy="638.0" r="12.0" fill="#2d6b4b"/><rect x="642.0" y="638.0" width="4.0" height="10.0" rx="0" fill="#614a35" stroke="none" stroke-width="0"/><circle cx="694.0" cy="653.0" r="13.0" fill="#2d6b4b"/><rect x="692.0" y="653.0" width="4.0" height="10.0" rx="0" fill="#614a35" stroke="none" stroke-width="0"/><circle cx="1121.0" cy="567.0" r="10.0" fill="#2d6b4b"/><rect x="1119.0" y="567.0" width="4.0" height="10.0" rx="0" fill="#614a35" stroke="none" stroke-width="0"/><circle cx="144.0" cy="597.0" r="10.0" fill="#2d6b4b"/><rect x="142.0" y="597.0" width="4.0" height="10.0" rx="0" fill="#614a35" stroke="none" stroke-width="0"/><circle cx="755.0" cy="660.0" r="12.0" fill="#2d6b4b"/><rect x="753.0" y="660.0" width="4.0" height="10.0" rx="0" fill="#614a35" stroke="none" stroke-width="0"/><circle cx="631.0" cy="674.0" r="12.0" fill="#2d6b4b"/><rect x="629.0" y="674.0" width="4.0" height="10.0" rx="0" fill="#614a35" stroke="none" stroke-width="0"/><circle cx="400.0" cy="627.0" r="8.0" fill="#2d6b4b"/><rect x="398.0" y="627.0" width="4.0" height="10.0" rx="0" fill="#614a35" stroke="none" stroke-width="0"/><circle cx="1096.0" cy="657.0" r="13.0" fill="#2d6b4b"/><rect x="1094.0" y="657.0" width="4.0" height="10.0" rx="0" fill="#614a35" stroke="none" stroke-width="0"/><circle cx="506.0" cy="527.0" r="10.0" fill="#2d6b4b"/><rect x="504.0" y="527.0" width="4.0" height="10.0" rx="0" fill="#614a35" stroke="none" stroke-width="0"/><circle cx="236.0" cy="548.0" r="9.0" fill="#2d6b4b"/><rect x="234.0" y="548.0" width="4.0" height="10.0" rx="0" fill="#614a35" stroke="none" stroke-width="0"/><circle cx="352.0" cy="665.0" r="11.0" fill="#2d6b4b"/><rect x="350.0" y="665.0" width="4.0" height="10.0" rx="0" fill="#614a35" stroke="none" stroke-width="0"/><circle cx="1015.0" cy="538.0" r="11.0" fill="#2d6b4b"/><rect x="1013.0" y="538.0" width="4.0" height="10.0" rx="0" fill="#614a35" stroke="none" stroke-width="0"/><circle cx="551.0" cy="477.0" r="7.0" fill="#2d6b4b"/><rect x="549.0" y="477.0" width="4.0" height="10.0" rx="0" fill="#614a35" stroke="none" stroke-width="0"/><circle cx="239.0" cy="604.0" r="12.0" fill="#2d6b4b"/><rect x="237.0" y="604.0" width="4.0" height="10.0" rx="0" fill="#614a35" stroke="none" stroke-width="0"/><circle cx="1108.0" cy="480.0" r="5.0" fill="#2d6b4b"/><rect x="1106.0" y="480.0" width="4.0" height="10.0" rx="0" fill="#614a35" stroke="none" stroke-width="0"/><circle cx="929.0" cy="531.0" r="9.0" fill="#2d6b4b"/><rect x="927.0" y="531.0" width="4.0" height="10.0" rx="0" fill="#614a35" stroke="none" stroke-width="0"/><circle cx="261.0" cy="134.0" r="24.0" fill="#fff0b0"/></svg>