<svg xmlns="http://www.w3.org/2000/svg" viewBox="0 0 1200 700"><defs><linearGradient id="sky" x2="0" y2="1"><stop stop-color="#b6d8e8"/><stop offset="1" stop-color="#e7b07d"/></linearGradient><linearGradient id="ground" x2="0" y2="1"><stop stop-color="#6c9a64"/><stop offset="1" stop-color="#2d5640"/></linearGradient></defs><rect x="0.0" y="0.0" width="1200.0" height="700.0" rx="0" fill="url(#sky)" stroke="none" stroke-width="0"/><rect x="0.0" y="410.0" width="1200.0" height="290.0" rx="0" fill="url(#ground)" stroke="none" stroke-width="0"/><polygon points="-100.0,410.0 50.0,233.0 200.0,410.0" fill="#557060" stroke="none" stroke-width="0"/><polygon points="180.0,410.0 330.0,280.0 480.0,410.0" fill="#557060" stroke="none" stroke-width="0"/><polygon points="460.0,410.0 610.0,312.0 760.0,410.0" fill="#557060" stroke="none" stroke-width="0"/><polygon points="740.0,410.0 890.0,243.0 1040.0,410.0" fill="#557060" stroke="none" stroke-width="0"/><polygon points="1020.0,410.0 1170.0,325.0 1320.0,410.0" fill="#557060" stroke="none" stroke-width="0"/><polyline points="90.0,700.0 18.0,420.0" fill="none" stroke="#30383c" stroke-width="11" opacity="0.95" stroke-linecap="round" /><polyline points="180.0,700.0 139.0,420.0" fill="none" stroke="#30383c" stroke-width="11" opacity="0.95" stroke-linecap="round" /><polyline points="270.0,700.0 363.0,420.0" fill="none" stroke="#30383c" stroke-width="7" opacity="0.95" stroke-linecap="round" /><polyline points="360.0,700.0 297.0,420.0" fill="none" stroke="#30383c" stroke-width="11" opacity="0.95" stroke-linecap="round" /><polyline points="450.0,700.0 358.0,420.0" fill="none" stroke="#30383c" stroke-width="11" opacity="0.95" stroke-linecap="round" /><polyline points="540.0,700.0 455.0,420.0" fill="none" stroke="#30383c" stroke-width="7" opacity="0.95" stroke-linecap="round" /><polyline points="630.0,700.0 589.0,420.0" fill="none" stroke="#30383c" stroke-width="11" opacity="0.95" stroke-linecap="round" /><polyline points="720.0,700.0 807.0,420.0" fill="none" stroke="#30383c" stroke-width="9" opacity="0.95" stroke-linecap="round" /><polyline points="810.0,700.0 844.0,420.0" fill="none" stroke="#30383c" stroke-width="9" opacity="0.95" stroke-linecap="round" /><polyline points="900.0,700.0 852.0,420.0" fill="none" stroke="#30383c" stroke-width="11" opacity="0.95" stroke-linecap="round" /><polyline points="990.0,700.0 913.0,420.0" fill="none" stroke="#30383c" stroke-width="7" opacity="0.95" stroke-linecap="round" /><polyline points="1080.0,700.0 985.0,420.0" fill="none" stroke="#30383c" stroke-width="9" opacity="0.95" stroke-linecap="round" /><polyline points="1170.0,700.0 1157.0,420.0" fill="none" stroke="#30383c" stroke-width="7" opacity="0.95" stroke-linecap="round" /><polyline points="0.0,460.0 1200.0,456.0" fill="none" stroke="#30383c" stroke-width="8" opacity="0.95" stroke-linecap="round" /><polyline points="0.0,515.0 1200.0,513.0" fill="none" stroke="#30383c" stroke-width="10" opacity="0.95" stroke-linecap="round" /><polyline points="0.0,570.0 1200.0,560.0" fill="none" stroke="#30383c" stroke-width="6" opacity="0.95" stroke-linecap="round" /><polyline points="0.0,625.0 1200.0,646.0" fill="none" stroke="#30383c" stroke-width="6" opacity="0.95" stroke-linecap="round" /><polyline points="0.0,680.0 1200.0,681.0" fill="none" stroke="#30383c" stroke-width="10" opacity="0.95" stroke-linecap="round" /><rect x="162.0" y="430.0" width="44.0" height="38.0" rx="2" fill="#d7b987" stroke="#213640" stroke-width="1"/><rect x="315.0" y="444.0" width="22.0" height="63.0" rx="2" fill="#e8e0cf" stroke="#213640" stroke-width="1"/><rect x="318.0" y="449.0" width="16.0" height="4.0" rx="0" fill="#86b6c2" stroke="none" stroke-width="0"/><rect x="216.0" y="572.0" width="34.0" height="71.0" rx="2" fill="#c8d8dd" stroke="#213640" stroke-width="1"/><rect x="219.0" y="577.0" width="28.0" height="4.0" rx="0" fill="#86b6c2" stroke="none" stroke-width="0"/><rect x="465.0" y="503.0" width="41.0" height="62.0" rx="2" fill="#c8d8dd" stroke="#213640" stroke-width="1"/><rect x="468.0" y="508.0" width="35.0" height="4.0" rx="0" fill="#86b6c2" stroke="none" stroke-width="0"/><rect x="717.0" y="576.0" width="44.0" height="43.0" rx="2" fill="#b9c8cc" stroke="#213640" stroke-width="1"/><rect x="720.0" y="581.0" width="38.0" height="4.0" rx="0" fill="#86b6c2" stroke="none" stroke-width="0"/><rect x="124.0" y="470.0" width="28.0" height="52.0" rx="2" fill="#d7b987" stroke="#213640" stroke-width="1"/><rect x="127.0" y="475.0" width="22.0" height="4.0" rx="0" fill="#86b6c2" stroke="none" stroke-width="0"/><rect x="851.0" y="523.0" width="38.0" height="55.0" rx="2" fill="#c8d8dd" stroke="#213640" stroke-width="1"/><rect x="854.0" y="528.0" width="32.0" height="4.0" rx="0" fill="#86b6c2" stroke="none" stroke-width="0"/><rect x="235.0" y="496.0" width="46.0" height="37.0" rx="2" fill="#e4d2bd" stroke="#213640" stroke-width="1"/><rect x="644.0" y="439.0" width="23.0" height="39.0" rx="2" fill="#e8e0cf" stroke="#213640" stroke-width="1"/><rect x="807.0" y="606.0" width="48.0" height="27.0" rx="2" fill="#b9c8cc" stroke="#213640" stroke-width="1"/><rect x="623.0" y="493.0" width="38.0" height="40.0" rx="2" fill="#e8e0cf" stroke="#213640" stroke-width="1"/><rect x="971.0" y="449.0" width="43.0" height="57.0" rx="2" fill="#b9c8cc" stroke="#213640" stroke-width="1"/><rect x="974.0" y="454.0" width="37.0" height="4.0" rx="0" fill="#86b6c2" stroke="none" stroke-width="0"/><rect x="865.0" y="437.0" width="35.0" height="30.0" rx="2" fill="#d7b987" stroke="#213640" stroke-width="1"/><rect x="242.0" y="579.0" width="21.0" height="39.0" rx="2" fill="#c8d8dd" stroke="#213640" stroke-width="1"/><rect x="726.0" y="462.0" width="40.0" height="34.0" rx="2" fill="#b9c8cc" stroke="#213640" stroke-width="1"/><rect x="158.0" y="502.0" width="37.0" height="80.0" rx="2" fill="#d7b987" stroke="#213640" stroke-width="1"/><rect x="161.0" y="507.0" width="31.0" height="4.0" rx="0" fill="#86b6c2" stroke="none" stroke-width="0"/><rect x="802.0" y="521.0" width="33.0" height="90.0" rx="2" fill="#e8e0cf" stroke="#213640" stroke-width="1"/><rect x="805.0" y="526.0" width="27.0" height="4.0" rx="0" fill="#86b6c2" stroke="none" stroke-width="0"/><rect x="269.0" y="501.0" width="22.0" height="78.0" rx="2" fill="#e8e0cf" stroke="#213640" stroke-width="1"/><rect x="272.0" y="506.0" width="16.0" height="4.0" rx="0" fill="#86b6c2" stroke="none" stroke-width="0"/><rect x="561.0" y="505.0" width="42.0" height="75.0" rx="2" fill="#d7b987" stroke="#213640" stroke-width="1"/><rect x="564.0" y="510.0" width="36.0" height="4.0" rx="0" fill="#86b6c2" stroke="none" stroke-width="0"/><rect x="526.0" y="394.0" width="21.0" height="63.0" rx="2" fill="#e4d2bd" stroke="#213640" stroke-width="1"/><rect x="529.0" y="399.0" width="15.0" height="4.0" rx="0" fill="#86b6c2" stroke="none" stroke-width="0"/><rect x="618.0" y="549.0" width="23.0" height="20.0" rx="2" fill="#c8d8dd" stroke="#213640" stroke-width="1"/><rect x="295.0" y="579.0" width="45.0" height="21.0" rx="2" fill="#e4d2bd" stroke="#213640" stroke-width="1"/><rect x="462.0" y="451.0" width="48.0" height="53.0" rx="2" fill="#c8d8dd" stroke="#213640" stroke-width="1"/><rect x="465.0" y="456.0" width="42.0" height="4.0" rx="0" fill="#86b6c2" stroke="none" stroke-width="0"/><rect x="971.0" y="517.0" width="40.0" height="80.0" rx="2" fill="#e4d2bd" stroke="#213640" stroke-width="1"/><rect x="974.0" y="522.0" width="34.0" height="4.0" rx="0" fill="#86b6c2" stroke="none" stroke-width="0"/><rect x="1071.0" y="475.0" width="25.0" height="82.0" rx="2" fill="#c8d8dd" stroke="#213640" stroke-width="1"/><rect x="1074.0" y="480.0" width="19.0" height="4.0" rx="0" fill="#86b6c2" stroke="none" stroke-width="0"/><rect x="985.0" y="459.0" width="40.0" height="74.0" rx="2" fill="#d7b987" stroke="#213640" stroke-width="1"/><rect x="988.0" y="464.0" width="34.0" height="4.0" rx="0" fill="#86b6c2" stroke="none" stroke-width="0"/><rect x="313.0" y="469.0" width="21.0" height="81.0" rx="2" fill="#d7b987" stroke="#213640" stroke-width="1"/><rect x="316.0" y="474.0" width="15.0" height="4.0" rx="0" fill="#86b6c2" stroke="none" stroke-width="0"/><rect x="432.0" y="466.0" width="40.0" height="63.0" rx="2" fill="#e4d2bd" stroke="#213640" stroke-width="1"/><rect x="435.0" y="471.0" width="34.0" height="4.0" rx="0" fill="#86b6c2" stroke="none" stroke-width="0"/><rect x="380.0" y="435.0" width="45.0" height="30.0" rx="2" fill="#b9c8cc" stroke="#213640" stroke-width="1"/><rect x="465.0" y="428.0" width="25.0" height="63.0" rx="2" fill="#d7b987" stroke="#213640" stroke-width="1"/><rect x="468.0" y="433.0" width="19.0" height="4.0" rx="0" fill="#86b6c2" stroke="none" stroke-width="0"/><rect x="459.0" y="509.0" width="46.0" height="54.0" rx="2" fill="#e4d2bd" stroke="#213640" stroke-width="1"/><rect x="462.0" y="514.0" width="40.0" height="4.0" rx="0" fill="#86b6c2" stroke="none" stroke-width="0"/><rect x="537.0" y="504.0" width="41.0" height="19.0" rx="2" fill="#e8e0cf" stroke="#213640" stroke-width="1"/><rect x="1007.0" y="562.0" width="44.0" height="50.0" rx="2" fill="#d7b987" stroke="#213640" stroke-width="1"/><rect x="1010.0" y="567.0" width="38.0" height="4.0" rx="0" fill="#86b6c2" stroke="none" stroke-width="0"/><rect x="1138.0" y="445.0" width="31.0" height="61.0" rx="2" fill="#c8d8dd" stroke="#213640" stroke-width="1"/><rect x="1141.0" y="450.0" width="25.0" height="4.0" rx="0" fill="#86b6c2" stroke="none" stroke-width="0"/><rect x="861.0" y="392.0" width="44.0" height="71.0" rx="2" fill="#b9c8cc" stroke="#213640" stroke-width="1"/><rect x="864.0" y="397.0" width="38.0" height="4.0" rx="0" fill="#86b6c2" stroke="none" stroke-width="0"/><rect x="446.0" y="460.0" width="24.0" height="56.0" rx="2" fill="#d7b987" stroke="#213640" stroke-width="1"/><rect x="449.0" y="465.0" width="18.0" height="4.0" rx="0" fill="#86b6c2" stroke="none" stroke-width="0"/><rect x="648.0" y="571.0" width="48.0" height="62.0" rx="2" fill="#e8e0cf" stroke="#213640" stroke-width="1"/><rect x="651.0" y="576.0" width="42.0" height="4.0" rx="0" fill="#86b6c2" stroke="none" stroke-width="0"/><rect x="482.0" y="395.0" width="25.0" height="76.0" rx="2" fill="#b9c8cc" stroke="#213640" stroke-width="1"/><rect x="485.0" y="400.0" width="19.0" height="4.0" rx="0" fill="#86b6c2" stroke="none" stroke-width="0"/><rect x="965.0" y="583.0" width="26.0" height="38.0" rx="2" fill="#b9c8cc" stroke="#213640" stroke-width="1"/><rect x="109.0" y="438.0" width="33.0" height="34.0" rx="2" fill="#d7b987" stroke="#213640" stroke-width="1"/><rect x="1010.0" y="406.0" width="18.0" height="50.0" rx="2" fill="#b9c8cc" stroke="#213640" stroke-width="1"/><rect x="1013.0" y="411.0" width="12.0" height="4.0" rx="0" fill="#86b6c2" stroke="none" stroke-width="0"/><rect x="598.0" y="595.0" width="27.0" height="53.0" rx="2" fill="#c8d8dd" stroke="#213640" stroke-width="1"/><rect x="601.0" y="600.0" width="21.0" height="4.0" rx="0" fill="#86b6c2" stroke="none" stroke-width="0"/><rect x="669.0" y="514.0" width="46.0" height="44.0" rx="2" fill="#c8d8dd" stroke="#213640" stroke-width="1"/><rect x="672.0" y="519.0" width="40.0" height="4.0" rx="0" fill="#86b6c2" stroke="none" stroke-width="0"/><rect x="331.0" y="561.0" width="35.0" height="55.0" rx="2" fill="#e8e0cf" stroke="#213640" stroke-width="1"/><rect x="334.0" y="566.0" width="29.0" height="4.0" rx="0" fill="#86b6c2" stroke="none" stroke-width="0"/><rect x="424.0" y="376.0" width="29.0" height="84.0" rx="2" fill="#b9c8cc" stroke="#213640" stroke-width="1"/><rect x="427.0" y="381.0" width="23.0" height="4.0" rx="0" fill="#86b6c2" stroke="none" stroke-width="0"/><rect x="666.0" y="546.0" width="33.0" height="81.0" rx="2" fill="#d7b987" stroke="#213640" stroke-width="1"/><rect x="669.0" y="551.0" width="27.0" height="4.0" rx="0" fill="#86b6c2" stroke="none" stroke-width="0"/><rect x="672.0" y="512.0" width="30.0" height="42.0" rx="2" fill="#e4d2bd" stroke="#213640" stroke-width="1"/><rect x="675.0" y="517.0" width="24.0" height="4.0" rx="0" fill="#86b6c2" stroke="none" stroke-width="0"/><rect x="493.0" y="472.0" width="19.0" height="88.0" rx="2" fill="#c8d8dd" stroke="#213640" stroke-width="1"/><rect x="496.0" y="477.0" width="13.0" height="4.0" rx="0" fill="#86b6c2" stroke="none" stroke-width="0"/><rect x="530.0" y="400.0" width="45.0" height="67.0" rx="2" fill="#d7b987" stroke="#213640" stroke-width="1"/><rect x="533.0" y="405.0" width="39.0" height="4.0" rx="0" fill="#86b6c2" stroke="none" stroke-width="0"/><rect x="598.0" y="397.0" width="43.0" height="85.0" rx="2" fill="#e8e0cf" stroke="#213640" stroke-width="1"/><rect x="601.0" y="402.0" width="37.0" height="4.0" rx="0" fill="#86b6c2" stroke="none" stroke-width="0"/><rect x="711.0" y="441.0" width="41.0" height="77.0" rx="2" fill="#b9c8cc" stroke="#213640" stroke-width="1"/><rect x="714.0" y="446.0" width="35.0" height="4.0" rx="0" fill="#86b6c2" stroke="none" stroke-width="0"/><rect x="328.0" y="412.0" width="27.0" height="55.0" rx="2" fill="#e8e0cf" stroke="#213640" stroke-width="1"/><rect x="331.0" y="417.0" width="21.0" height="4.0" rx="0" fill="#86b6c2" stroke="none" stroke-width="0"/><rect x="877.0" y="441.0" width="35.0" height="71.0" rx="2" fill="#e4d2bd" stroke="#213640" stroke-width="1"/><rect x="880.0" y="446.0" width="29.0" height="4.0" rx="0" fill="#86b6c2" stroke="none" stroke-width="0"/><rect x="329.0" y="396.0" width="18.0" height="78.0" rx="2" fill="#b9c8cc" stroke="#213640" stroke-width="1"/><rect x="332.0" y="401.0" width="12.0" height="4.0" rx="0" fill="#86b6c2" stroke="none" stroke-width="0"/><rect x="941.0" y="448.0" width="33.0" height="76.0" rx="2" fill="#e8e0cf" stroke="#213640" stroke-width="1"/><rect x="944.0" y="453.0" width="27.0" height="4.0" rx="0" fill="#86b6c2" stroke="none" stroke-width="0"/><rect x="734.0" y="489.0" width="23.0" height="26.0" rx="2" fill="#b9c8cc" stroke="#213640" stroke-width="1"/><rect x="775.0" y="382.0" width="47.0" height="87.0" rx="2" fill="#b9c8cc" stroke="#213640" stroke-width="1"/><rect x="778.0" y="387.0" width="41.0" height="4.0" rx="0" fill="#86b6c2" stroke="none" stroke-width="0"/><rect x="699.0" y="573.0" width="30.0" height="40.0" rx="2" fill="#b9c8cc" stroke="#213640" stroke-width="1"/><rect x="488.0" y="397.0" width="39.0" height="72.0" rx="2" fill="#e8e0cf" stroke="#213640" stroke-width="1"/><rect x="491.0" y="402.0" width="33.0" height="4.0" rx="0" fill="#86b6c2" stroke="none" stroke-width="0"/><rect x="884.0" y="504.0" width="42.0" height="66.0" rx="2" fill="#c8d8dd" stroke="#213640" stroke-width="1"/><rect x="887.0" y="509.0" width="36.0" height="4.0" rx="0" fill="#86b6c2" stroke="none" stroke-width="0"/><rect x="1097.0" y="491.0" width="31.0" height="45.0" rx="2" fill="#e4d2bd" stroke="#213640" stroke-width="1"/><rect x="1100.0" y="496.0" width="25.0" height="4.0" rx="0" fill="#86b6c2" stroke="none" stroke-width="0"/><rect x="567.0" y="456.0" width="32.0" height="22.0" rx="2" fill="#c8d8dd" stroke="#213640" stroke-width="1"/><rect x="668.0" y="596.0" width="45.0" height="40.0" rx="2" fill="#c8d8dd" stroke="#213640" stroke-width="1"/><rect x="820.0" y="524.0" width="25.0" height="50.0" rx="2" fill="#d7b987" stroke="#213640" stroke-width="1"/><rect x="823.0" y="529.0" width="19.0" height="4.0" rx="0" fill="#86b6c2" stroke="none" stroke-width="0"/><rect x="737.0" y="507.0" width="42.0" height="55.0" rx="2" fill="#d7b987" stroke="#213640" stroke-width="1"/><rect x="740.0" y="512.0" width="36.0" height="4.0" rx="0" fill="#86b6c2" stroke="none" stroke-width="0"/><rect x="941.0" y="568.0" width="31.0" height="58.0" rx="2" fill="#e8e0cf" stroke="#213640" stroke-width="1"/><rect x="944.0" y="573.0" width="25.0" height="4.0" rx="0" fill="#86b6c2" stroke="none" stroke-width="0"/><rect x="421.0" y="573.0" width="25.0" height="48.0" rx="2" fill="#c8d8dd" stroke="#213640" stroke-width="1"/><rect x="424.0" y="578.0" width="19.0" height="4.0" rx="0" fill="#86b6c2" stroke="none" stroke-width="0"/><rect x="278.0" y="620.0" width="45.0" height="28.0" rx="2" fill="#d7b987" stroke="#213640" stroke-width="1"/><rect x="584.0" y="553.0" width="42.0" height="72.0" rx="2" fill="#b9c8cc" stroke="#213640" stroke-width="1"/><rect x="587.0" y="558.0" width="36.0" height="4.0" rx="0" fill="#86b6c2" stroke="none" stroke-width="0"/><rect x="442.0" y="448.0" width="34.0" height="27.0" rx="2" fill="#d7b987" stroke="#213640" stroke-width="1"/><rect x="1035.0" y="544.0" width="29.0" height="33.0" rx="2" fill="#b9c8cc" stroke="#213640" stroke-width="1"/><rect x="1027.0" y="447.0" width="19.0" height="47.0" rx="2" fill="#e4d2bd" stroke="#213640" stroke-width="1"/><rect x="1030.0" y="452.0" width="13.0" height="4.0" rx="0" fill="#86b6c2" stroke="none" stroke-width="0"/><rect x="698.0" y="481.0" width="45.0" height="54.0" rx="2" fill="#e4d2bd" stroke="#213640" stroke-width="1"/><rect x="701.0" y="486.0" width="39.0" height="4.0" rx="0" fill="#86b6c2" stroke="none" stroke-width="0"/><rect x="161.0" y="494.0" width="21.0" height="44.0" rx="2" fill="#e4d2bd" stroke="#213640" stroke-width="1"/><rect x="164.0" y="499.0" width="15.0" height="4.0" rx="0" fill="#86b6c2" stroke="none" stroke-width="0"/><rect x="1084.0" y="569.0" width="36.0" height="37.0" rx="2" fill="#d7b987" stroke="#213640" stroke-width="1"/><circle cx="702.0" cy="443.0" r="30.0" fill="#e8d8bd"/><rect x="677.0" y="443.0" width="50.0" height="25.0" rx="0" fill="#d6c6a9" stroke="none" stroke-width="0"/><rect x="925.0" y="404.0" width="55.0" height="75.0" rx="0" fill="#bfcbd0" stroke="none" stroke-width="0"/><polygon points="919.0,404.0 952.0,374.0 986.0,404.0" fill="#6f8f9c" stroke="none" stroke-width="0"/><circle cx="918.0" cy="608.0" r="10.0" fill="#2d6b4b"/><rect x="916.0" y="608.0" width="4.0" height="10.0" rx="0" fill="#614a35" stroke="none" stroke-width="0"/><circle cx="545.0" cy="661.0" r="6.0" fill="#2d6b4b"/><rect x="543.0" y="661.0" width="4.0" height="10.0" rx="0" fill="#614a35" stroke="none" stroke-width="0"/><circle cx="359.0" cy="508.0" r="7.0" fill="#2d6b4b"/><rect x="357.0" y="508.0" width="4.0" height="10.0" rx="0" fill="#614a35" stroke="none" stroke-width="0"/><circle cx="986.0" cy="606.0" r="7.0" fill="#2d6b4b"/><rect x="984.0" y="606.0" width="4.0" height="10.0" rx="0" fill="#614a35" stroke="none" stroke-width="0"/><circle cx="887.0" cy="586.0" r="7.0" fill="#2d6b4b"/><rect x="885.0" y="586.0" width="4.0" height="10.0" rx="0" fill="#614a35" stroke="none" stroke-width="0"/><circle cx="367.0" cy="587.0" r="13.0" fill="#2d6b4b"/><rect x="365.0" y="587.0" width="4.0" height="10.0" rx="0" fill="#614a35" stroke="none" stroke-width="0"/><circle cx="287.0" cy="644.0" r="10.0" fill="#2d6b4b"/><rect x="285.0" y="644.0" width="4.0" height="10.0" rx="0" fill="#614a35" stroke="none" stroke-width="0"/><circle cx="812.0" cy="594.0" r="8.0" fill="#2d6b4b"/><rect x="810.0" y="594.0" width="4.0" height="10.0" rx="0" fill="#614a35" stroke="none" stroke-width="0"/><circle cx="1002.0" cy="556.0" r="5.0" fill="#2d6b4b"/><rect x="1000.0" y="556.0" width="4.0" height="10.0" rx="0" fill="#614a35" stroke="none" stroke-width="0"/><circle cx="1038.0" cy="565.0" r="8.0" fill="#2d6b4b"/><rect x="1036.0" y="565.0" width="4.0" height="10.0" rx="0" fill="#614a35" stroke="none" stroke-width="0"/><circle cx="293.0" cy="593.0" r="9.0" fill="#2d6b4b"/><rect x="291.0" y="593.0" width="4.0" height="10.0" rx="0" fill="#614a35" stroke="none" stroke-width="0"/><circle cx="346.0" cy="523.0" r="6.0" fill="#2d6b4b"/><rect x="344.0" y="523.0" width="4.0" height="10.0" rx="0" fill="#614a35" stroke="none" stroke-width="0"/><circle cx="959.0" cy="621.0" r="12.0" fill="#2d6b4b"/><rect x="957.0" y="621.0" width="4.0" height="10.0" rx="0" fill="#614a35" stroke="none" stroke-width="0"/><circle cx="723.0" cy="504.0" r="6.0" fill="#2d6b4b"/><rect x="721.0" y="504.0" width="4.0" height="10.0" rx="0" fill="#614a35" stroke="none" stroke-width="0"/><circle cx="607.0" cy="678.0" r="7.0" fill="#2d6b4b"/><rect x="605.0" y="678.0" width="4.0" height="10.0" rx="0" fill="#614a35" stroke="none" stroke-width="0"/><circle cx="148.0" cy="495.0" r="5.0" fill="#2d6b4b"/><rect x="146.0" y="495.0" width="4.0" height="10.0" rx="0" fill="#614a35" stroke="none" stroke-width="0"/><circle cx="120.0" cy="559.0" r="7.0" fill="#2d6b4b"/><rect x="118.0" y="559.0" width="4.0" height="10.0" rx="0" fill="#614a35" stroke="none" stroke-width="0"/><circle cx="502.0" cy="488.0" r="10.0" fill="#2d6b4b"/><rect x="500.0" y="488.0" width="4.0" height="10.0" rx="0" fill="#614a35" stroke="none" stroke-width="0"/><circle cx="862.0" cy="576.0" r="9.0" fill="#2d6b4b"/><rect x="860.0" y="576.0" width="4.0" height="10.0" rx="0" fill="#614a35" stroke="none" stroke-width="0"/><circle cx="1071.0" cy="483.0" r="9.0" fill="#2d6b4b"/><rect x="1069.0" y="483.0" width="4.0" height="10.0" rx="0" fill="#614a35" stroke="none" stroke-width="0"/><circle cx="569.0" cy="132.0" r="24.0" fill="#fff0b0"/></svg>