<svg xmlns="http://www.w3.org/2000/svg" viewBox="0 0 1200 700"><defs><linearGradient id="sky" x2="0" y2="1"><stop stop-color="#8fd0e8"/><stop offset="1" stop-color="#e7b07d"/></linearGradient><linearGradient id="ground" x2="0" y2="1"><stop stop-color="#789b62"/><stop offset="1" stop-color="#2d5640"/></linearGradient></defs><rect x="0.0" y="0.0" width="1200.0" height="700.0" rx="0" fill="url(#sky)" stroke="none" stroke-width="0"/><rect x="0.0" y="410.0" width="1200.0" height="290.0" rx="0" fill="url(#ground)" stroke="none" stroke-width="0"/><polygon points="-100.0,410.0 50.0,310.0 200.0,410.0" fill="#557060" stroke="none" stroke-width="0"/><polygon points="180.0,410.0 330.0,300.0 480.0,410.0" fill="#557060" stroke="none" stroke-width="0"/><polygon points="460.0,410.0 610.0,328.0 760.0,410.0" fill="#557060" stroke="none" stroke-width="0"/><polygon points="740.0,410.0 890.0,323.0 1040.0,410.0" fill="#557060" stroke="none" stroke-width="0"/><polygon points="1020.0,410.0 1170.0,227.0 1320.0,410.0" fill="#557060" stroke="none" stroke-width="0"/><polyline points="90.0,700.0 27.0,420.0" fill="none" stroke="#30383c" stroke-width="11" opacity="0.95" stroke-linecap="round" /><polyline points="220.0,700.0 214.0,420.0" fill="none" stroke="#30383c" stroke-width="7" opacity="0.95" stroke-linecap="round" /><polyline points="350.0,700.0 279.0,420.0" fill="none" stroke="#30383c" stroke-width="9" opacity="0.95" stroke-linecap="round" /><polyline points="480.0,700.0 499.0,420.0" fill="none" stroke="#30383c" stroke-width="11" opacity="0.95" stroke-linecap="round" /><polyline points="610.0,700.0 601.0,420.0" fill="none" stroke="#30383c" stroke-width="9" opacity="0.95" stroke-linecap="round" /><polyline points="740.0,700.0 740.0,420.0" fill="none" stroke="#30383c" stroke-width="9" opacity="0.95" stroke-linecap="round" /><polyline points="870.0,700.0 858.0,420.0" fill="none" stroke="#30383c" stroke-width="7" opacity="0.95" stroke-linecap="round" /><polyline points="1000.0,700.0 952.0,420.0" fill="none" stroke="#30383c" stroke-width="9" opacity="0.95" stroke-linecap="round" /><polyline points="1130.0,700.0 1110.0,420.0" fill="none" stroke="#30383c" stroke-width="7" opacity="0.95" stroke-linecap="round" /><polyline points="0.0,460.0 1200.0,481.0" fill="none" stroke="#30383c" stroke-width="10" opacity="0.95" stroke-linecap="round" /><polyline points="0.0,530.0 1200.0,531.0" fill="none" stroke="#30383c" stroke-width="6" opacity="0.95" stroke-linecap="round" /><polyline points="0.0,600.0 1200.0,611.0" fill="none" stroke="#30383c" stroke-width="8" opacity="0.95" stroke-linecap="round" /><polyline points="0.0,670.0 1200.0,671.0" fill="none" stroke="#30383c" stroke-width="8" opacity="0.95" stroke-linecap="round" /><rect x="201.0" y="512.0" width="36.0" height="61.0" rx="2" fill="#b9c8cc" stroke="#213640" stroke-width="1"/><rect x="204.0" y="517.0" width="30.0" height="4.0" rx="0" fill="#86b6c2" stroke="none" stroke-width="0"/><rect x="685.0" y="560.0" width="38.0" height="72.0" rx="2" fill="#b9c8cc" stroke="#213640" stroke-width="1"/><rect x="688.0" y="565.0" width="32.0" height="4.0" rx="0" fill="#86b6c2" stroke="none" stroke-width="0"/><rect x="174.0" y="563.0" width="48.0" height="17.0" rx="2" fill="#c8d8dd" stroke="#213640" stroke-width="1"/><rect x="327.0" y="574.0" width="23.0" height="17.0" rx="2" fill="#d7b987" stroke="#213640" stroke-width="1"/><rect x="1125.0" y="554.0" width="22.0" height="27.0" rx="2" fill="#e8e0cf" stroke="#213640" stroke-width="1"/><rect x="849.0" y="393.0" width="20.0" height="74.0" rx="2" fill="#e4d2bd" stroke="#213640" stroke-width="1"/><rect x="852.0" y="398.0" width="14.0" height="4.0" rx="0" fill="#86b6c2" stroke="none" stroke-width="0"/><rect x="645.0" y="478.0" width="47.0" height="79.0" rx="2" fill="#c8d8dd" stroke="#213640" stroke-width="1"/><rect x="648.0" y="483.0" width="41.0" height="4.0" rx="0" fill="#86b6c2" stroke="none" stroke-width="0"/><rect x="407.0" y="515.0" width="48.0" height="79.0" rx="2" fill="#d7b987" stroke="#213640" stroke-width="1"/><rect x="410.0" y="520.0" width="42.0" height="4.0" rx="0" fill="#86b6c2" stroke="none" stroke-width="0"/><rect x="200.0" y="461.0" width="27.0" height="54.0" rx="2" fill="#c8d8dd" stroke="#213640" stroke-width="1"/><rect x="203.0" y="466.0" width="21.0" height="4.0" rx="0" fill="#86b6c2" stroke="none" stroke-width="0"/><rect x="691.0" y="479.0" width="46.0" height="75.0" rx="2" fill="#d7b987" stroke="#213640" stroke-width="1"/><rect x="694.0" y="484.0" width="40.0" height="4.0" rx="0" fill="#86b6c2" stroke="none" stroke-width="0"/><rect x="944.0" y="424.0" width="42.0" height="49.0" rx="2" fill="#b9c8cc" stroke="#213640" stroke-width="1"/><rect x="947.0" y="429.0" width="36.0" height="4.0" rx="0" fill="#86b6c2" stroke="none" stroke-width="0"/><rect x="331.0" y="406.0" width="39.0" height="78.0" rx="2" fill="#b9c8cc" stroke="#213640" stroke-width="1"/><rect x="334.0" y="411.0" width="33.0" height="4.0" rx="0" fill="#86b6c2" stroke="none" stroke-width="0"/><rect x="810.0" y="410.0" width="44.0" height="48.0" rx="2" fill="#e8e0cf" stroke="#213640" stroke-width="1"/><rect x="813.0" y="415.0" width="38.0" height="4.0" rx="0" fill="#86b6c2" stroke="none" stroke-width="0"/><rect x="628.0" y="399.0" width="19.0" height="72.0" rx="2" fill="#e8e0cf" stroke="#213640" stroke-width="1"/><rect x="631.0" y="404.0" width="13.0" height="4.0" rx="0" fill="#86b6c2" stroke="none" stroke-width="0"/><rect x="562.0" y="417.0" width="44.0" height="78.0" rx="2" fill="#e4d2bd" stroke="#213640" stroke-width="1"/><rect x="565.0" y="422.0" width="38.0" height="4.0" rx="0" fill="#86b6c2" stroke="none" stroke-width="0"/><rect x="1025.0" y="503.0" width="19.0" height="79.0" rx="2" fill="#e8e0cf" stroke="#213640" stroke-width="1"/><rect x="1028.0" y="508.0" width="13.0" height="4.0" rx="0" fill="#86b6c2" stroke="none" stroke-width="0"/><rect x="1011.0" y="401.0" width="36.0" height="74.0" rx="2" fill="#c8d8dd" stroke="#213640" stroke-width="1"/><rect x="1014.0" y="406.0" width="30.0" height="4.0" rx="0" fill="#86b6c2" stroke="none" stroke-width="0"/><rect x="959.0" y="585.0" width="41.0" height="47.0" rx="2" fill="#e8e0cf" stroke="#213640" stroke-width="1"/><rect x="962.0" y="590.0" width="35.0" height="4.0" rx="0" fill="#86b6c2" stroke="none" stroke-width="0"/><rect x="58.0" y="406.0" width="28.0" height="63.0" rx="2" fill="#b9c8cc" stroke="#213640" stroke-width="1"/><rect x="61.0" y="411.0" width="22.0" height="4.0" rx="0" fill="#86b6c2" stroke="none" stroke-width="0"/><rect x="751.0" y="416.0" width="37.0" height="53.0" rx="2" fill="#e4d2bd" stroke="#213640" stroke-width="1"/><rect x="754.0" y="421.0" width="31.0" height="4.0" rx="0" fill="#86b6c2" stroke="none" stroke-width="0"/><rect x="952.0" y="516.0" width="35.0" height="18.0" rx="2" fill="#b9c8cc" stroke="#213640" stroke-width="1"/><rect x="828.0" y="399.0" width="46.0" height="59.0" rx="2" fill="#e4d2bd" stroke="#213640" stroke-width="1"/><rect x="831.0" y="404.0" width="40.0" height="4.0" rx="0" fill="#86b6c2" stroke="none" stroke-width="0"/><rect x="835.0" y="554.0" width="18.0" height="33.0" rx="2" fill="#d7b987" stroke="#213640" stroke-width="1"/><rect x="550.0" y="525.0" width="34.0" height="57.0" rx="2" fill="#d7b987" stroke="#213640" stroke-width="1"/><rect x="553.0" y="530.0" width="28.0" height="4.0" rx="0" fill="#86b6c2" stroke="none" stroke-width="0"/><rect x="539.0" y="575.0" width="36.0" height="55.0" rx="2" fill="#b9c8cc" stroke="#213640" stroke-width="1"/><rect x="542.0" y="580.0" width="30.0" height="4.0" rx="0" fill="#86b6c2" stroke="none" stroke-width="0"/><rect x="692.0" y="395.0" width="37.0" height="60.0" rx="2" fill="#c8d8dd" stroke="#213640" stroke-width="1"/><rect x="695.0" y="400.0" width="31.0" height="4.0" rx="0" fill="#86b6c2" stroke="none" stroke-width="0"/><rect x="736.0" y="433.0" width="45.0" height="37.0" rx="2" fill="#e4d2bd" stroke="#213640" stroke-width="1"/><rect x="261.0" y="574.0" width="36.0" height="66.0" rx="2" fill="#d7b987" stroke="#213640" stroke-width="1"/><rect x="264.0" y="579.0" width="30.0" height="4.0" rx="0" fill="#86b6c2" stroke="none" stroke-width="0"/><rect x="303.0" y="485.0" width="21.0" height="55.0" rx="2" fill="#d7b987" stroke="#213640" stroke-width="1"/><rect x="306.0" y="490.0" width="15.0" height="4.0" rx="0" fill="#86b6c2" stroke="none" stroke-width="0"/><rect x="978.0" y="558.0" width="37.0" height="85.0" rx="2" fill="#e4d2bd" stroke="#213640" stroke-width="1"/><rect x="981.0" y="563.0" width="31.0" height="4.0" rx="0" fill="#86b6c2" stroke="none" stroke-width="0"/><rect x="1031.0" y="571.0" width="47.0" height="30.0" rx="2" fill="#b9c8cc" stroke="#213640" stroke-width="1"/><rect x="49.0" y="446.0" width="43.0" height="34.0" rx="2" fill="#b9c8cc" stroke="#213640" stroke-width="1"/><rect x="367.0" y="533.0" width="24.0" height="89.0" rx="2" fill="#e4d2bd" stroke="#213640" stroke-width="1"/><rect x="370.0" y="538.0" width="18.0" height="4.0" rx="0" fill="#86b6c2" stroke="none" stroke-width="0"/><rect x="699.0" y="505.0" width="30.0" height="44.0" rx="2" fill="#e4d2bd" stroke="#213640" stroke-width="1"/><rect x="702.0" y="510.0" width="24.0" height="4.0" rx="0" fill="#86b6c2" stroke="none" stroke-width="0"/><rect x="1105.0" y="533.0" width="21.0" height="82.0" rx="2" fill="#b9c8cc" stroke="#213640" stroke-width="1"/><rect x="1108.0" y="538.0" width="15.0" height="4.0" rx="0" fill="#86b6c2" stroke="none" stroke-width="0"/><rect x="360.0" y="578.0" width="39.0" height="58.0" rx="2" fill="#b9c8cc" stroke="#213640" stroke-width="1"/><rect x="363.0" y="583.0" width="33.0" height="4.0" rx="0" fill="#86b6c2" stroke="none" stroke-width="0"/><rect x="875.0" y="404.0" width="26.0" height="58.0" rx="2" fill="#c8d8dd" stroke="#213640" stroke-width="1"/><rect x="878.0" y="409.0" width="20.0" height="4.0" rx="0" fill="#86b6c2" stroke="none" stroke-width="0"/><rect x="599.0" y="524.0" width="23.0" height="22.0" rx="2" fill="#b9c8cc" stroke="#213640" stroke-width="1"/><rect x="475.0" y="433.0" width="20.0" height="47.0" rx="2" fill="#c8d8dd" stroke="#213640" stroke-width="1"/><rect x="478.0" y="438.0" width="14.0" height="4.0" rx="0" fill="#86b6c2" stroke="none" stroke-width="0"/><rect x="184.0" y="556.0" width="32.0" height="83.0" rx="2" fill="#c8d8dd" stroke="#213640" stroke-width="1"/><rect x="187.0" y="561.0" width="26.0" height="4.0" rx="0" fill="#86b6c2" stroke="none" stroke-width="0"/><rect x="509.0" y="515.0" width="23.0" height="22.0" rx="2" fill="#d7b987" stroke="#213640" stroke-width="1"/><rect x="896.0" y="476.0" width="31.0" height="36.0" rx="2" fill="#d7b987" stroke="#213640" stroke-width="1"/><rect x="340.0" y="507.0" width="23.0" height="76.0" rx="2" fill="#b9c8cc" stroke="#213640" stroke-width="1"/><rect x="343.0" y="512.0" width="17.0" height="4.0" rx="0" fill="#86b6c2" stroke="none" stroke-width="0"/><rect x="998.0" y="538.0" width="37.0" height="36.0" rx="2" fill="#b9c8cc" stroke="#213640" stroke-width="1"/><rect x="180.0" y="492.0" width="26.0" height="71.0" rx="2" fill="#c8d8dd" stroke="#213640" stroke-width="1"/><rect x="183.0" y="497.0" width="20.0" height="4.0" rx="0" fill="#86b6c2" stroke="none" stroke-width="0"/><rect x="88.0" y="504.0" width="28.0" height="66.0" rx="2" fill="#c8d8dd" stroke="#213640" stroke-width="1"/><rect x="91.0" y="509.0" width="22.0" height="4.0" rx="0" fill="#86b6c2" stroke="none" stroke-width="0"/><rect x="109.0" y="611.0" width="36.0" height="15.0" rx="2" fill="#e4d2bd" stroke="#213640" stroke-width="1"/><rect x="981.0" y="510.0" width="18.0" height="58.0" rx="2" fill="#b9c8cc" stroke="#213640" stroke-width="1"/><rect x="984.0" y="515.0" width="12.0" height="4.0" rx="0" fill="#86b6c2" stroke="none" stroke-width="0"/><rect x="990.0" y="559.0" width="43.0" height="48.0" rx="2" fill="#b9c8cc" stroke="#213640" stroke-width="1"/><rect x="993.0" y="564.0" width="37.0" height="4.0" rx="0" fill="#86b6c2" stroke="none" stroke-width="0"/><rect x="970.0" y="489.0" width="30.0" height="79.0" rx="2" fill="#e8e0cf" stroke="#213640" stroke-width="1"/><rect x="973.0" y="494.0" width="24.0" height="4.0" rx="0" fill="#86b6c2" stroke="none" stroke-width="0"/><rect x="380.0" y="571.0" width="48.0" height="55.0" rx="2" fill="#b9c8cc" stroke="#213640" stroke-width="1"/><rect x="383.0" y="576.0" width="42.0" height="4.0" rx="0" fill="#86b6c2" stroke="none" stroke-width="0"/><rect x="1022.0" y="451.0" width="40.0" height="88.0" rx="2" fill="#b9c8cc" stroke="#213640" stroke-width="1"/><rect x="1025.0" y="456.0" width="34.0" height="4.0" rx="0" fill="#86b6c2" stroke="none" stroke-width="0"/><rect x="1104.0" y="433.0" width="24.0" height="43.0" rx="2" fill="#c8d8dd" stroke="#213640" stroke-width="1"/><rect x="1107.0" y="438.0" width="18.0" height="4.0" rx="0" fill="#86b6c2" stroke="none" stroke-width="0"/><rect x="1076.0" y="529.0" width="39.0" height="28.0" rx="2" fill="#b9c8cc" stroke="#213640" stroke-width="1"/><rect x="718.0" y="465.0" width="46.0" height="72.0" rx="2" fill="#d7b987" stroke="#213640" stroke-width="1"/><rect x="721.0" y="470.0" width="40.0" height="4.0" rx="0" fill="#86b6c2" stroke="none" stroke-width="0"/><rect x="1076.0" y="374.0" width="65.0" height="90.0" rx="0" fill="#6e7f86" stroke="none" stroke-width="0"/><rect x="1100.0" y="349.0" width="18.0" height="25.0" rx="0" fill="#d9b04d" stroke="none" stroke-width="0"/><rect x="1043.0" y="438.0" width="80.0" height="45.0" rx="0" fill="#bfc8c4" stroke="none" stroke-width="0"/><circle cx="1083.0" cy="438.0" r="28.0" fill="#5d7d6d"/><circle cx="261.0" cy="547.0" r="8.0" fill="#2d6b4b"/><rect x="259.0" y="547.0" width="4.0" height="10.0" rx="0" fill="#614a35" stroke="none" stroke-width="0"/><circle cx="567.0" cy="511.0" r="9.0" fill="#2d6b4b"/><rect x="565.0" y="511.0" width="4.0" height="10.0" rx="0" fill="#614a35" stroke="none" stroke-width="0"/><circle cx="609.0" cy="508.0" r="12.0" fill="#2d6b4b"/><rect x="607.0" y="508.0" width="4.0" height="10.0" rx="0" fill="#614a35" stroke="none" stroke-width="0"/><circle cx="1060.0" cy="531.0" r="7.0" fill="#2d6b4b"/><rect x="1058.0" y="531.0" width="4.0" height="10.0" rx="0" fill="#614a35" stroke="none" stroke-width="0"/><circle cx="1001.0" cy="602.0" r="6.0" fill="#2d6b4b"/><rect x="999.0" y="602.0" width="4.0" height="10.0" rx="0" fill="#614a35" stroke="none" stroke-width="0"/><circle cx="511.0" cy="672.0" r="8.0" fill="#2d6b4b"/><rect x="509.0" y="672.0" width="4.0" height="10.0" rx="0" fill="#614a35" stroke="none" stroke-width="0"/><circle cx="824.0" cy="579.0" r="8.0" fill="#2d6b4b"/><rect x="822.0" y="579.0" width="4.0" height="10.0" rx="0" fill="#614a35" stroke="none" stroke-width="0"/><circle cx="602.0" cy="678.0" r="11.0" fill="#2d6b4b"/><rect x="600.0" y="678.0" width="4.0" height="10.0" rx="0" fill="#614a35" stroke="none" stroke-width="0"/><circle cx="977.0" cy="636.0" r="11.0" fill="#2d6b4b"/><rect x="975.0" y="636.0" width="4.0" height="10.0" rx="0" fill="#614a35" stroke="none" stroke-width="0"/><circle cx="978.0" cy="668.0" r="8.0" fill="#2d6b4b"/><rect x="976.0" y="668.0" width="4.0" height="10.0" rx="0" fill="#614a35" stroke="none" stroke-width="0"/><circle cx="673.0" cy="675.0" r="11.0" fill="#2d6b4b"/><rect x="671.0" y="675.0" width="4.0" height="10.0" rx="0" fill="#614a35" stroke="none" stroke-width="0"/><circle cx="737.0" cy="557.0" r="11.0" fill="#2d6b4b"/><rect x="735.0" y="557.0" width="4.0" height="10.0" rx="0" fill="#614a35" stroke="none" stroke-width="0"/><circle cx="688.0" cy="640.0" r="10.0" fill="#2d6b4b"/><rect x="686.0" y="640.0" width="4.0" height="10.0" rx="0" fill="#614a35" stroke="none" stroke-width="0"/><circle cx="212.0" cy="668.0" r="7.0" fill="#2d6b4b"/><rect x="210.0" y="668.0" width="4.0" height="10.0" rx="0" fill="#614a35" stroke="none" stroke-width="0"/><circle cx="1031.0" cy="527.0" r="8.0" fill="#2d6b4b"/><rect x="1029.0" y="527.0" width="4.0" height="10.0" rx="0" fill="#614a35" stroke="none" stroke-width="0"/><circle cx="164.0" cy="515.0" r="13.0" fill="#2d6b4b"/><rect x="162.0" y="515.0" width="4.0" height="10.0" rx="0" fill="#614a35" stroke="none" stroke-width="0"/><circle cx="642.0" cy="535.0" r="8.0" fill="#2d6b4b"/><rect x="640.0" y="535.0" width="4.0" height="10.0" rx="0" fill="#614a35" stroke="none" stroke-width="0"/><circle cx="504.0" cy="597.0" r="9.0" fill="#2d6b4b"/><rect x="502.0" y="597.0" width="4.0" height="10.0" rx="0" fill="#614a35" stroke="none" stroke-width="0"/><circle cx="1026.0" cy="517.0" r="8.0" fill="#2d6b4b"/><rect x="1024.0" y="517.0" width="4.0" height="10.0" rx="0" fill="#614a35" stroke="none" stroke-width="0"/><circle cx="1009.0" cy="564.0" r="7.0" fill="#2d6b4b"/><rect x="1007.0" y="564.0" width="4.0" height="10.0" rx="0" fill="#614a35" stroke="none" stroke-width="0"/><circle cx="1078.0" cy="635.0" r="8.0" fill="#2d6b4b"/><rect x="1076.0" y="635.0" width="4.0" height="10.0" rx="0" fill="#614a35" stroke="none" stroke-width="0"/><circle cx="1161.0" cy="606.0" r="10.0" fill="#2d6b4b"/><rect x="1159.0" y="606.0" width="4.0" height="10.0" rx="0" fill="#614a35" stroke="none" stroke-width="0"/><circle cx="245.0" cy="677.0" r="5.0" fill="#2d6b4b"/><rect x="243.0" y="677.0" width="4.0" height="10.0" rx="0" fill="#614a35" stroke="none" stroke-width="0"/><circle cx="550.0" cy="666.0" r="5.0" fill="#2d6b4b"/><rect x="548.0" y="666.0" width="4.0" height="10.0" rx="0" fill="#614a35" stroke="none" stroke-width="0"/><circle cx="470.0" cy="479.0" r="10.0" fill="#2d6b4b"/><rect x="468.0" y="479.0" width="4.0" height="10.0" rx="0" fill="#614a35" stroke="none" stroke-width="0"/><circle cx="821.0" cy="554.0" r="13.0" fill="#2d6b4b"/><rect x="819.0" y="554.0" width="4.0" height="10.0" rx="0" fill="#614a35" stroke="none" stroke-width="0"/><circle cx="621.0" cy="621.0" r="10.0" fill="#2d6b4b"/><rect x="619.0" y="621.0" width="4.0" height="10.0" rx="0" fill="#614a35" stroke="none" stroke-width="0"/><circle cx="675.0" cy="562.0" r="11.0" fill="#2d6b4b"/><rect x="673.0" y="562.0" width="4.0" height="10.0" rx="0" fill="#614a35" stroke="none" stroke-width="0"/><circle cx="1149.0" cy="630.0" r="11.0" fill="#2d6b4b"/><rect x="1147.0" y="630.0" width="4.0" height="10.0" rx="0" fill="#614a35" stroke="none" stroke-width="0"/><circle cx="31.0" cy="591.0" r="8.0" fill="#2d6b4b"/><rect x="29.0" y="591.0" width="4.0" height="10.0" rx="0" fill="#614a35" stroke="none" stroke-width="0"/><circle cx="869.0" cy="648.0" r="6.0" fill="#2d6b4b"/><rect x="867.0" y="648.0" width="4.0" height="10.0" rx="0" fill="#614a35" stroke="none" stroke-width="0"/><circle cx="358.0" cy="581.0" r="7.0" fill="#2d6b4b"/><rect x="356.0" y="581.0" width="4.0" height="10.0" rx="0" fill="#614a35" stroke="none" stroke-width="0"/><circle cx="266.0" cy="485.0" r="6.0" fill="#2d6b4b"/><rect x="264.0" y="485.0" width="4.0" height="10.0" rx="0" fill="#614a35" stroke="none" stroke-width="0"/><circle cx="105.0" cy="631.0" r="11.0" fill="#2d6b4b"/><rect x="103.0" y="631.0" width="4.0" height="10.0" rx="0" fill="#614a35" stroke="none" stroke-width="0"/><circle cx="1112.0" cy="675.0" r="11.0" fill="#2d6b4b"/><rect x="1110.0" y="675.0" width="4.0" height="10.0" rx="0" fill="#614a35" stroke="none" stroke-width="0"/><circle cx="527.0" cy="139.0" r="24.0" fill="#fff0b0"/></svg>