<svg xmlns="http://www.w3.org/2000/svg" viewBox="0 0 1200 700"><defs><linearGradient id="sky" x2="0" y2="1"><stop stop-color="#9bc3d4"/><stop offset="1" stop-color="#e7b07d"/></linearGradient><linearGradient id="ground" x2="0" y2="1"><stop stop-color="#567f62"/><stop offset="1" stop-color="#2d5640"/></linearGradient></defs><rect x="0.0" y="0.0" width="1200.0" height="700.0" rx="0" fill="url(#sky)" stroke="none" stroke-width="0"/><rect x="0.0" y="410.0" width="1200.0" height="290.0" rx="0" fill="url(#ground)" stroke="none" stroke-width="0"/><polygon points="-100.0,410.0 50.0,322.0 200.0,410.0" fill="#557060" stroke="none" stroke-width="0"/><polygon points="180.0,410.0 330.0,284.0 480.0,410.0" fill="#557060" stroke="none" stroke-width="0"/><polygon points="460.0,410.0 610.0,241.0 760.0,410.0" fill="#557060" stroke="none" stroke-width="0"/><polygon points="740.0,410.0 890.0,271.0 1040.0,410.0" fill="#557060" stroke="none" stroke-width="0"/><polygon points="1020.0,410.0 1170.0,283.0 1320.0,410.0" fill="#557060" stroke="none" stroke-width="0"/><polyline points="149.0,700.0 514.0,475.0" fill="none" stroke="#30383c" stroke-width="7" opacity="0.9" stroke-linecap="round" /><polyline points="731.0,700.0 613.0,490.0" fill="none" stroke="#30383c" stroke-width="7" opacity="0.9" stroke-linecap="round" /><polyline points="690.0,700.0 824.0,497.0" fill="none" stroke="#30383c" stroke-width="7" opacity="0.9" stroke-linecap="round" /><polyline points="517.0,700.0 426.0,467.0" fill="none" stroke="#30383c" stroke-width="7" opacity="0.9" stroke-linecap="round" /><polyline points="348.0,700.0 787.0,467.0" fill="none" stroke="#30383c" stroke-width="5" opacity="0.9" stroke-linecap="round" /><polyline points="83.0,700.0 729.0,447.0" fill="none" stroke="#30383c" stroke-width="5" opacity="0.9" stroke-linecap="round" /><polyline points="359.0,700.0 826.0,413.0" fill="none" stroke="#30383c" stroke-width="7" opacity="0.9" stroke-linecap="round" /><rect x="274.0" y="573.0" width="22.0" height="73.0" rx="2" fill="#e8e0cf" stroke="#213640" stroke-width="1"/><rect x="277.0" y="578.0" width="16.0" height="4.0" rx="0" fill="#86b6c2" stroke="none" stroke-width="0"/><rect x="280.0" y="517.0" width="27.0" height="38.0" rx="2" fill="#d7b987" stroke="#213640" stroke-width="1"/><rect x="968.0" y="511.0" width="33.0" height="51.0" rx="2" fill="#d7b987" stroke="#213640" stroke-width="1"/><rect x="971.0" y="516.0" width="27.0" height="4.0" rx="0" fill="#86b6c2" stroke="none" stroke-width="0"/><rect x="406.0" y="530.0" width="26.0" height="35.0" rx="2" fill="#d7b987" stroke="#213640" stroke-width="1"/><rect x="200.0" y="429.0" width="34.0" height="87.0" rx="2" fill="#c8d8dd" stroke="#213640" stroke-width="1"/><rect x="203.0" y="434.0" width="28.0" height="4.0" rx="0" fill="#86b6c2" stroke="none" stroke-width="0"/><rect x="663.0" y="611.0" width="18.0" height="33.0" rx="2" fill="#b9c8cc" stroke="#213640" stroke-width="1"/><rect x="530.0" y="525.0" width="44.0" height="23.0" rx="2" fill="#e8e0cf" stroke="#213640" stroke-width="1"/><rect x="1115.0" y="584.0" width="36.0" height="59.0" rx="2" fill="#e4d2bd" stroke="#213640" stroke-width="1"/><rect x="1118.0" y="589.0" width="30.0" height="4.0" rx="0" fill="#86b6c2" stroke="none" stroke-width="0"/><rect x="115.0" y="478.0" width="30.0" height="33.0" rx="2" fill="#b9c8cc" stroke="#213640" stroke-width="1"/><rect x="172.0" y="407.0" width="37.0" height="89.0" rx="2" fill="#e8e0cf" stroke="#213640" stroke-width="1"/><rect x="175.0" y="412.0" width="31.0" height="4.0" rx="0" fill="#86b6c2" stroke="none" stroke-width="0"/><rect x="947.0" y="393.0" width="22.0" height="63.0" rx="2" fill="#c8d8dd" stroke="#213640" stroke-width="1"/><rect x="950.0" y="398.0" width="16.0" height="4.0" rx="0" fill="#86b6c2" stroke="none" stroke-width="0"/><rect x="1101.0" y="557.0" width="45.0" height="90.0" rx="2" fill="#d7b987" stroke="#213640" stroke-width="1"/><rect x="1104.0" y="562.0" width="39.0" height="4.0" rx="0" fill="#86b6c2" stroke="none" stroke-width="0"/><rect x="441.0" y="416.0" width="28.0" height="47.0" rx="2" fill="#e8e0cf" stroke="#213640" stroke-width="1"/><rect x="444.0" y="421.0" width="22.0" height="4.0" rx="0" fill="#86b6c2" stroke="none" stroke-width="0"/><rect x="215.0" y="489.0" width="40.0" height="84.0" rx="2" fill="#c8d8dd" stroke="#213640" stroke-width="1"/><rect x="218.0" y="494.0" width="34.0" height="4.0" rx="0" fill="#86b6c2" stroke="none" stroke-width="0"/><rect x="619.0" y="453.0" width="22.0" height="68.0" rx="2" fill="#c8d8dd" stroke="#213640" stroke-width="1"/><rect x="622.0" y="458.0" width="16.0" height="4.0" rx="0" fill="#86b6c2" stroke="none" stroke-width="0"/><rect x="82.0" y="545.0" width="27.0" height="45.0" rx="2" fill="#b9c8cc" stroke="#213640" stroke-width="1"/><rect x="85.0" y="550.0" width="21.0" height="4.0" rx="0" fill="#86b6c2" stroke="none" stroke-width="0"/><rect x="125.0" y="394.0" width="34.0" height="85.0" rx="2" fill="#e8e0cf" stroke="#213640" stroke-width="1"/><rect x="128.0" y="399.0" width="28.0" height="4.0" rx="0" fill="#86b6c2" stroke="none" stroke-width="0"/><rect x="1136.0" y="568.0" width="32.0" height="64.0" rx="2" fill="#d7b987" stroke="#213640" stroke-width="1"/><rect x="1139.0" y="573.0" width="26.0" height="4.0" rx="0" fill="#86b6c2" stroke="none" stroke-width="0"/><rect x="778.0" y="355.0" width="55.0" height="75.0" rx="0" fill="#bfcbd0" stroke="none" stroke-width="0"/><polygon points="772.0,355.0 805.0,325.0 839.0,355.0" fill="#6f8f9c" stroke="none" stroke-width="0"/><rect x="911.0" y="392.0" width="65.0" height="90.0" rx="0" fill="#6e7f86" stroke="none" stroke-width="0"/><rect x="935.0" y="367.0" width="18.0" height="25.0" rx="0" fill="#d9b04d" stroke="none" stroke-width="0"/><rect x="386.0" y="437.0" width="80.0" height="45.0" rx="0" fill="#bfc8c4" stroke="none" stroke-width="0"/><circle cx="426.0" cy="437.0" r="28.0" fill="#5d7d6d"/><rect x="1039.0" y="455.0" width="90.0" height="55.0" rx="0" fill="#b8c8cb" stroke="none" stroke-width="0"/><rect x="1071.0" y="415.0" width="26.0" height="40.0" rx="0" fill="#59798b" stroke="none" stroke-width="0"/><circle cx="982.0" cy="582.0" r="10.0" fill="#2d6b4b"/><rect x="980.0" y="582.0" width="4.0" height="10.0" rx="0" fill="#614a35" stroke="none" stroke-width="0"/><circle cx="395.0" cy="525.0" r="11.0" fill="#2d6b4b"/><rect x="393.0" y="525.0" width="4.0" height="10.0" rx="0" fill="#614a35" stroke="none" stroke-width="0"/><circle cx="1175.0" cy="651.0" r="6.0" fill="#2d6b4b"/><rect x="1173.0" y="651.0" width="4.0" height="10.0" rx="0" fill="#614a35" stroke="none" stroke-width="0"/><circle cx="678.0" cy="629.0" r="9.0" fill="#2d6b4b"/><rect x="676.0" y="629.0" width="4.0" height="10.0" rx="0" fill="#614a35" stroke="none" stroke-width="0"/><circle cx="361.0" cy="475.0" r="8.0" fill="#2d6b4b"/><rect x="359.0" y="475.0" width="4.0" height="10.0" rx="0" fill="#614a35" stroke="none" stroke-width="0"/><circle cx="447.0" cy="629.0" r="9.0" fill="#2d6b4b"/><rect x="445.0" y="629.0" width="4.0" height="10.0" rx="0" fill="#614a35" stroke="none" stroke-width="0"/><circle cx="155.0" cy="515.0" r="6.0" fill="#2d6b4b"/><rect x="153.0" y="515.0" width="4.0" height="10.0" rx="0" fill="#614a35" stroke="none" stroke-width="0"/><circle cx="766.0" cy="482.0" r="11.0" fill="#2d6b4b"/><rect x="764.0" y="482.0" width="4.0" height="10.0" rx="0" fill="#614a35" stroke="none" stroke-width="0"/><circle cx="953.0" cy="484.0" r="13.0" fill="#2d6b4b"/><rect x="951.0" y="484.0" width="4.0" height="10.0" rx="0" fill="#614a35" stroke="none" stroke-width="0"/><circle cx="837.0" cy="591.0" r="8.0" fill="#2d6b4b"/><rect x="835.0" y="591.0" width="4.0" height="10.0" rx="0" fill="#614a35" stroke="none" stroke-width="0"/><circle cx="425.0" cy="527.0" r="10.0" fill="#2d6b4b"/><rect x="423.0" y="527.0" width="4.0" height="10.0" rx="0" fill="#614a35" stroke="none" stroke-width="0"/><circle cx="570.0" cy="497.0" r="7.0" fill="#2d6b4b"/><rect x="568.0" y="497.0" width="4.0" height="10.0" rx="0" fill="#614a35" stroke="none" stroke-width="0"/><circle cx="1158.0" cy="619.0" r="9.0" fill="#2d6b4b"/><rect x="1156.0" y="619.0" width="4.0" height="10.0" rx="0" fill="#614a35" stroke="none" stroke-width="0"/><circle cx="717.0" cy="668.0" r="6.0" fill="#2d6b4b"/><rect x="715.0" y="668.0" width="4.0" height="10.0" rx="0" fill="#614a35" stroke="none" stroke-width="0"/><circle cx="108.0" cy="484.0" r="13.0" fill="#2d6b4b"/><rect x="106.0" y="484.0" width="4.0" height="10.0" rx="0" fill="#614a35" stroke="none" stroke-width="0"/><circle cx="802.0" cy="553.0" r="9.0" fill="#2d6b4b"/><rect x="800.0" y="553.0" width="4.0" height="10.0" rx="0" fill="#614a35" stroke="none" stroke-width="0"/><circle cx="776.0" cy="541.0" r="11.0" fill="#2d6b4b"/><rect x="774.0" y="541.0" width="4.0" height="10.0" rx="0" fill="#614a35" stroke="none" stroke-width="0"/><circle cx="270.0" cy="576.0" r="11.0" fill="#2d6b4b"/><rect x="268.0" y="576.0" width="4.0" height="10.0" rx="0" fill="#614a35" stroke="none" stroke-width="0"/><circle cx="923.0" cy="645.0" r="12.0" fill="#2d6b4b"/><rect x="921.0" y="645.0" width="4.0" height="10.0" rx="0" fill="#614a35" stroke="none" stroke-width="0"/><circle cx="496.0" cy="516.0" r="10.0" fill="#2d6b4b"/><rect x="494.0" y="516.0" width="4.0" height="10.0" rx="0" fill="#614a35" stroke="none" stroke-width="0"/><circle cx="1102.0" cy="504.0" r="12.0" fill="#2d6b4b"/><rect x="1100.0" y="504.0" width="4.0" height="10.0" rx="0" fill="#614a35" stroke="none" stroke-width="0"/><circle cx="555.0" cy="534.0" r="9.0" fill="#2d6b4b"/><rect x="553.0" y="534.0" width="4.0" height="10.0" rx="0" fill="#614a35" stroke="none" stroke-width="0"/><circle cx="484.0" cy="574.0" r="6.0" fill="#2d6b4b"/><rect x="482.0" y="574.0" width="4.0" height="10.0" rx="0" fill="#614a35" stroke="none" stroke-width="0"/><circle cx="170.0" cy="677.0" r="10.0" fill="#2d6b4b"/><rect x="168.0" y="677.0" width="4.0" height="10.0" rx="0" fill="#614a35" stroke="none" stroke-width="0"/><circle cx="1010.0" cy="622.0" r="9.0" fill="#2d6b4b"/><rect x="1008.0" y="622.0" width="4.0" height="10.0" rx="0" fill="#614a35" stroke="none" stroke-width="0"/><circle cx="562.0" cy="614.0" r="7.0" fill="#2d6b4b"/><rect x="560.0" y="614.0" width="4.0" height="10.0" rx="0" fill="#614a35" stroke="none" stroke-width="0"/><circle cx="1099.0" cy="546.0" r="5.0" fill="#2d6b4b"/><rect x="1097.0" y="546.0" width="4.0" height="10.0" rx="0" fill="#614a35" stroke="none" stroke-width="0"/><circle cx="92.0" cy="471.0" r="8.0" fill="#2d6b4b"/><rect x="90.0" y="471.0" width="4.0" height="10.0" rx="0" fill="#614a35" stroke="none" stroke-width="0"/><circle cx="1051.0" cy="555.0" r="9.0" fill="#2d6b4b"/><rect x="1049.0" y="555.0" width="4.0" height="10.0" rx="0" fill="#614a35" stroke="none" stroke-width="0"/><circle cx="269.0" cy="506.0" r="12.0" fill="#2d6b4b"/><rect x="267.0" y="506.0" width="4.0" height="10.0" rx="0" fill="#614a35" stroke="none" stroke-width="0"/><circle cx="102.0" cy="659.0" r="9.0" fill="#2d6b4b"/><rect x="100.0" y="659.0" width="4.0" height="10.0" rx="0" fill="#614a35" stroke="none" stroke-width="0"/><circle cx="82.0" cy="659.0" r="6.0" fill="#2d6b4b"/><rect x="80.0" y="659.0" width="4.0" height="10.0" rx="0" fill="#614a35" stroke="none" stroke-width="0"/><circle cx="1133.0" cy="645.0" r="11.0" fill="#2d6b4b"/><rect x="1131.0" y="645.0" width="4.0" height="10.0" rx="0" fill="#614a35" stroke="none" stroke-width="0"/><circle cx="496.0" cy="576.0" r="5.0" fill="#2d6b4b"/><rect x="494.0" y="576.0" width="4.0" height="10.0" rx="0" fill="#614a35" stroke="none" stroke-width="0"/><circle cx="374.0" cy="513.0" r="7.0" fill="#2d6b4b"/><rect x="372.0" y="513.0" width="4.0" height="10.0" rx="0" fill="#614a35" stroke="none" stroke-width="0"/><circle cx="541.0" cy="173.0" r="24.0" fill="#fff0b0"/></svg>