<svg xmlns="http://www.w3.org/2000/svg" viewBox="0 0 1200 700"><defs><linearGradient id="sky" x2="0" y2="1"><stop stop-color="#f2c48e"/><stop offset="1" stop-color="#e7b07d"/></linearGradient><linearGradient id="ground" x2="0" y2="1"><stop stop-color="#567f62"/><stop offset="1" stop-color="#2d5640"/></linearGradient></defs><rect x="0.0" y="0.0" width="1200.0" height="700.0" rx="0" fill="url(#sky)" stroke="none" stroke-width="0"/><rect x="0.0" y="410.0" width="1200.0" height="290.0" rx="0" fill="url(#ground)" stroke="none" stroke-width="0"/><polygon points="-100.0,410.0 50.0,312.0 200.0,410.0" fill="#557060" stroke="none" stroke-width="0"/><polygon points="180.0,410.0 330.0,282.0 480.0,410.0" fill="#557060" stroke="none" stroke-width="0"/><polygon points="460.0,410.0 610.0,329.0 760.0,410.0" fill="#557060" stroke="none" stroke-width="0"/><polygon points="740.0,410.0 890.0,283.0 1040.0,410.0" fill="#557060" stroke="none" stroke-width="0"/><polygon points="1020.0,410.0 1170.0,269.0 1320.0,410.0" fill="#557060" stroke="none" stroke-width="0"/><polyline points="520.0,400.0 594.0,500.0 585.0,700.0" fill="none" stroke="#4a9bb4" stroke-width="34" opacity="0.95" stroke-linecap="round" /><polyline points="520.0,400.0 594.0,500.0 585.0,700.0" fill="none" stroke="#7cc6d3" stroke-width="17" opacity="0.8" stroke-linecap="round" /><polyline points="526.0,700.0 341.0,484.0" fill="none" stroke="#30383c" stroke-width="5" opacity="0.9" stroke-linecap="round" /><polyline points="961.0,700.0 716.0,420.0" fill="none" stroke="#30383c" stroke-width="7" opacity="0.9" stroke-linecap="round" /><polyline points="490.0,700.0 400.0,473.0" fill="none" stroke="#30383c" stroke-width="5" opacity="0.9" stroke-linecap="round" /><polyline points="212.0,700.0 685.0,487.0" fill="none" stroke="#30383c" stroke-width="7" opacity="0.9" stroke-linecap="round" /><polyline points="238.0,700.0 359.0,407.0" fill="none" stroke="#30383c" stroke-width="5" opacity="0.9" stroke-linecap="round" /><polyline points="246.0,700.0 773.0,456.0" fill="none" stroke="#30383c" stroke-width="5" opacity="0.9" stroke-linecap="round" /><polyline points="926.0,700.0 478.0,469.0" fill="none" stroke="#30383c" stroke-width="7" opacity="0.9" stroke-linecap="round" /><rect x="374.0" y="612.0" width="46.0" height="21.0" rx="2" fill="#e4d2bd" stroke="#213640" stroke-width="1"/><rect x="390.0" y="559.0" width="44.0" height="25.0" rx="2" fill="#b9c8cc" stroke="#213640" stroke-width="1"/><rect x="897.0" y="551.0" width="37.0" height="75.0" rx="2" fill="#b9c8cc" stroke="#213640" stroke-width="1"/><rect x="900.0" y="556.0" width="31.0" height="4.0" rx="0" fill="#86b6c2" stroke="none" stroke-width="0"/><rect x="827.0" y="568.0" width="18.0" height="25.0" rx="2" fill="#c8d8dd" stroke="#213640" stroke-width="1"/><rect x="575.0" y="485.0" width="48.0" height="61.0" rx="2" fill="#b9c8cc" stroke="#213640" stroke-width="1"/><rect x="578.0" y="490.0" width="42.0" height="4.0" rx="0" fill="#86b6c2" stroke="none" stroke-width="0"/><rect x="674.0" y="439.0" width="26.0" height="45.0" rx="2" fill="#d7b987" stroke="#213640" stroke-width="1"/><rect x="677.0" y="444.0" width="20.0" height="4.0" rx="0" fill="#86b6c2" stroke="none" stroke-width="0"/><rect x="784.0" y="462.0" width="34.0" height="88.0" rx="2" fill="#e4d2bd" stroke="#213640" stroke-width="1"/><rect x="787.0" y="467.0" width="28.0" height="4.0" rx="0" fill="#86b6c2" stroke="none" stroke-width="0"/><rect x="407.0" y="392.0" width="30.0" height="70.0" rx="2" fill="#e8e0cf" stroke="#213640" stroke-width="1"/><rect x="410.0" y="397.0" width="24.0" height="4.0" rx="0" fill="#86b6c2" stroke="none" stroke-width="0"/><rect x="1102.0" y="392.0" width="25.0" height="69.0" rx="2" fill="#e8e0cf" stroke="#213640" stroke-width="1"/><rect x="1105.0" y="397.0" width="19.0" height="4.0" rx="0" fill="#86b6c2" stroke="none" stroke-width="0"/><rect x="835.0" y="479.0" width="42.0" height="28.0" rx="2" fill="#e4d2bd" stroke="#213640" stroke-width="1"/><rect x="491.0" y="450.0" width="20.0" height="50.0" rx="2" fill="#e8e0cf" stroke="#213640" stroke-width="1"/><rect x="494.0" y="455.0" width="14.0" height="4.0" rx="0" fill="#86b6c2" stroke="none" stroke-width="0"/><rect x="927.0" y="466.0" width="33.0" height="59.0" rx="2" fill="#e4d2bd" stroke="#213640" stroke-width="1"/><rect x="930.0" y="471.0" width="27.0" height="4.0" rx="0" fill="#86b6c2" stroke="none" stroke-width="0"/><rect x="146.0" y="524.0" width="32.0" height="62.0" rx="2" fill="#c8d8dd" stroke="#213640" stroke-width="1"/><rect x="149.0" y="529.0" width="26.0" height="4.0" rx="0" fill="#86b6c2" stroke="none" stroke-width="0"/><rect x="735.0" y="452.0" width="32.0" height="75.0" rx="2" fill="#b9c8cc" stroke="#213640" stroke-width="1"/><rect x="738.0" y="457.0" width="26.0" height="4.0" rx="0" fill="#86b6c2" stroke="none" stroke-width="0"/><rect x="531.0" y="412.0" width="32.0" height="85.0" rx="2" fill="#d7b987" stroke="#213640" stroke-width="1"/><rect x="534.0" y="417.0" width="26.0" height="4.0" rx="0" fill="#86b6c2" stroke="none" stroke-width="0"/><rect x="412.0" y="460.0" width="42.0" height="43.0" rx="2" fill="#e4d2bd" stroke="#213640" stroke-width="1"/><rect x="415.0" y="465.0" width="36.0" height="4.0" rx="0" fill="#86b6c2" stroke="none" stroke-width="0"/><rect x="53.0" y="465.0" width="47.0" height="58.0" rx="2" fill="#c8d8dd" stroke="#213640" stroke-width="1"/><rect x="56.0" y="470.0" width="41.0" height="4.0" rx="0" fill="#86b6c2" stroke="none" stroke-width="0"/><rect x="534.0" y="437.0" width="34.0" height="20.0" rx="2" fill="#c8d8dd" stroke="#213640" stroke-width="1"/><rect x="277.0" y="468.0" width="35.0" height="79.0" rx="2" fill="#c8d8dd" stroke="#213640" stroke-width="1"/><rect x="280.0" y="473.0" width="29.0" height="4.0" rx="0" fill="#86b6c2" stroke="none" stroke-width="0"/><rect x="88.0" y="487.0" width="46.0" height="50.0" rx="2" fill="#e8e0cf" stroke="#213640" stroke-width="1"/><rect x="91.0" y="492.0" width="40.0" height="4.0" rx="0" fill="#86b6c2" stroke="none" stroke-width="0"/><rect x="510.0" y="513.0" width="34.0" height="76.0" rx="2" fill="#b9c8cc" stroke="#213640" stroke-width="1"/><rect x="513.0" y="518.0" width="28.0" height="4.0" rx="0" fill="#86b6c2" stroke="none" stroke-width="0"/><rect x="764.0" y="451.0" width="39.0" height="71.0" rx="2" fill="#c8d8dd" stroke="#213640" stroke-width="1"/><rect x="767.0" y="456.0" width="33.0" height="4.0" rx="0" fill="#86b6c2" stroke="none" stroke-width="0"/><rect x="959.0" y="509.0" width="37.0" height="20.0" rx="2" fill="#d7b987" stroke="#213640" stroke-width="1"/><rect x="715.0" y="515.0" width="38.0" height="71.0" rx="2" fill="#c8d8dd" stroke="#213640" stroke-width="1"/><rect x="718.0" y="520.0" width="32.0" height="4.0" rx="0" fill="#86b6c2" stroke="none" stroke-width="0"/><rect x="623.0" y="570.0" width="26.0" height="18.0" rx="2" fill="#e8e0cf" stroke="#213640" stroke-width="1"/><rect x="95.0" y="439.0" width="35.0" height="49.0" rx="2" fill="#b9c8cc" stroke="#213640" stroke-width="1"/><rect x="98.0" y="444.0" width="29.0" height="4.0" rx="0" fill="#86b6c2" stroke="none" stroke-width="0"/><rect x="323.0" y="446.0" width="24.0" height="70.0" rx="2" fill="#b9c8cc" stroke="#213640" stroke-width="1"/><rect x="326.0" y="451.0" width="18.0" height="4.0" rx="0" fill="#86b6c2" stroke="none" stroke-width="0"/><rect x="160.0" y="550.0" width="36.0" height="48.0" rx="2" fill="#e8e0cf" stroke="#213640" stroke-width="1"/><rect x="163.0" y="555.0" width="30.0" height="4.0" rx="0" fill="#86b6c2" stroke="none" stroke-width="0"/><rect x="895.0" y="539.0" width="36.0" height="26.0" rx="2" fill="#b9c8cc" stroke="#213640" stroke-width="1"/><rect x="447.0" y="544.0" width="35.0" height="59.0" rx="2" fill="#d7b987" stroke="#213640" stroke-width="1"/><rect x="450.0" y="549.0" width="29.0" height="4.0" rx="0" fill="#86b6c2" stroke="none" stroke-width="0"/><rect x="828.0" y="582.0" width="23.0" height="17.0" rx="2" fill="#c8d8dd" stroke="#213640" stroke-width="1"/><rect x="103.0" y="440.0" width="46.0" height="24.0" rx="2" fill="#b9c8cc" stroke="#213640" stroke-width="1"/><rect x="1135.0" y="443.0" width="43.0" height="63.0" rx="2" fill="#e8e0cf" stroke="#213640" stroke-width="1"/><rect x="1138.0" y="448.0" width="37.0" height="4.0" rx="0" fill="#86b6c2" stroke="none" stroke-width="0"/><rect x="763.0" y="454.0" width="27.0" height="49.0" rx="2" fill="#e4d2bd" stroke="#213640" stroke-width="1"/><rect x="766.0" y="459.0" width="21.0" height="4.0" rx="0" fill="#86b6c2" stroke="none" stroke-width="0"/><rect x="1047.0" y="584.0" width="37.0" height="30.0" rx="2" fill="#c8d8dd" stroke="#213640" stroke-width="1"/><rect x="1134.0" y="543.0" width="40.0" height="65.0" rx="2" fill="#e4d2bd" stroke="#213640" stroke-width="1"/><rect x="1137.0" y="548.0" width="34.0" height="4.0" rx="0" fill="#86b6c2" stroke="none" stroke-width="0"/><rect x="543.0" y="413.0" width="31.0" height="60.0" rx="2" fill="#d7b987" stroke="#213640" stroke-width="1"/><rect x="546.0" y="418.0" width="25.0" height="4.0" rx="0" fill="#86b6c2" stroke="none" stroke-width="0"/><rect x="208.0" y="597.0" width="28.0" height="33.0" rx="2" fill="#e8e0cf" stroke="#213640" stroke-width="1"/><rect x="679.0" y="496.0" width="40.0" height="38.0" rx="2" fill="#b9c8cc" stroke="#213640" stroke-width="1"/><rect x="788.0" y="459.0" width="18.0" height="41.0" rx="2" fill="#b9c8cc" stroke="#213640" stroke-width="1"/><rect x="791.0" y="464.0" width="12.0" height="4.0" rx="0" fill="#86b6c2" stroke="none" stroke-width="0"/><rect x="948.0" y="557.0" width="23.0" height="22.0" rx="2" fill="#e4d2bd" stroke="#213640" stroke-width="1"/><rect x="738.0" y="515.0" width="25.0" height="56.0" rx="2" fill="#e8e0cf" stroke="#213640" stroke-width="1"/><rect x="741.0" y="520.0" width="19.0" height="4.0" rx="0" fill="#86b6c2" stroke="none" stroke-width="0"/><rect x="499.0" y="395.0" width="48.0" height="61.0" rx="2" fill="#d7b987" stroke="#213640" stroke-width="1"/><rect x="502.0" y="400.0" width="42.0" height="4.0" rx="0" fill="#86b6c2" stroke="none" stroke-width="0"/><rect x="612.0" y="436.0" width="40.0" height="70.0" rx="2" fill="#d7b987" stroke="#213640" stroke-width="1"/><rect x="615.0" y="441.0" width="34.0" height="4.0" rx="0" fill="#86b6c2" stroke="none" stroke-width="0"/><rect x="491.0" y="554.0" width="47.0" height="33.0" rx="2" fill="#e4d2bd" stroke="#213640" stroke-width="1"/><rect x="460.0" y="320.0" width="24.0" height="130.0" rx="0" fill="#4d6771" stroke="none" stroke-width="0"/><rect x="453.0" y="305.0" width="38.0" height="15.0" rx="0" fill="#d4b15d" stroke="none" stroke-width="0"/><circle cx="657.0" cy="464.0" r="30.0" fill="#e8d8bd"/><rect x="632.0" y="464.0" width="50.0" height="25.0" rx="0" fill="#d6c6a9" stroke="none" stroke-width="0"/><rect x="518.0" y="432.0" width="55.0" height="75.0" rx="0" fill="#bfcbd0" stroke="none" stroke-width="0"/><polygon points="512.0,432.0 545.0,402.0 579.0,432.0" fill="#6f8f9c" stroke="none" stroke-width="0"/><rect x="632.0" y="447.0" width="65.0" height="90.0" rx="0" fill="#6e7f86" stroke="none" stroke-width="0"/><rect x="656.0" y="422.0" width="18.0" height="25.0" rx="0" fill="#d9b04d" stroke="none" stroke-width="0"/><circle cx="526.0" cy="587.0" r="12.0" fill="#2d6b4b"/><rect x="524.0" y="587.0" width="4.0" height="10.0" rx="0" fill="#614a35" stroke="none" stroke-width="0"/><circle cx="115.0" cy="667.0" r="8.0" fill="#2d6b4b"/><rect x="113.0" y="667.0" width="4.0" height="10.0" rx="0" fill="#614a35" stroke="none" stroke-width="0"/><circle cx="849.0" cy="607.0" r="11.0" fill="#2d6b4b"/><rect x="847.0" y="607.0" width="4.0" height="10.0" rx="0" fill="#614a35" stroke="none" stroke-width="0"/><circle cx="1082.0" cy="642.0" r="12.0" fill="#2d6b4b"/><rect x="1080.0" y="642.0" width="4.0" height="10.0" rx="0" fill="#614a35" stroke="none" stroke-width="0"/><circle cx="122.0" cy="497.0" r="13.0" fill="#2d6b4b"/><rect x="120.0" y="497.0" width="4.0" height="10.0" rx="0" fill="#614a35" stroke="none" stroke-width="0"/><circle cx="654.0" cy="559.0" r="5.0" fill="#2d6b4b"/><rect x="652.0" y="559.0" width="4.0" height="10.0" rx="0" fill="#614a35" stroke="none" stroke-width="0"/><circle cx="674.0" cy="668.0" r="12.0" fill="#2d6b4b"/><rect x="672.0" y="668.0" width="4.0" height="10.0" rx="0" fill="#614a35" stroke="none" stroke-width="0"/><circle cx="754.0" cy="631.0" r="9.0" fill="#2d6b4b"/><rect x="752.0" y="631.0" width="4.0" height="10.0" rx="0" fill="#614a35" stroke="none" stroke-width="0"/><circle cx="363.0" cy="504.0" r="12.0" fill="#2d6b4b"/><rect x="361.0" y="504.0" width="4.0" height="10.0" rx="0" fill="#614a35" stroke="none" stroke-width="0"/><circle cx="477.0" cy="675.0" r="13.0" fill="#2d6b4b"/><rect x="475.0" y="675.0" width="4.0" height="10.0" rx="0" fill="#614a35" stroke="none" stroke-width="0"/><circle cx="290.0" cy="534.0" r="12.0" fill="#2d6b4b"/><rect x="288.0" y="534.0" width="4.0" height="10.0" rx="0" fill="#614a35" stroke="none" stroke-width="0"/><circle cx="109.0" cy="579.0" r="10.0" fill="#2d6b4b"/><rect x="107.0" y="579.0" width="4.0" height="10.0" rx="0" fill="#614a35" stroke="none" stroke-width="0"/><circle cx="599.0" cy="574.0" r="9.0" fill="#2d6b4b"/><rect x="597.0" y="574.0" width="4.0" height="10.0" rx="0" fill="#614a35" stroke="none" stroke-width="0"/><circle cx="811.0" cy="678.0" r="10.0" fill="#2d6b4b"/><rect x="809.0" y="678.0" width="4.0" height="10.0" rx="0" fill="#614a35" stroke="none" stroke-width="0"/><circle cx="318.0" cy="502.0" r="9.0" fill="#2d6b4b"/><rect x="316.0" y="502.0" width="4.0" height="10.0" rx="0" fill="#614a35" stroke="none" stroke-width="0"/><circle cx="81.0" cy="638.0" r="11.0" fill="#2d6b4b"/><rect x="79.0" y="638.0" width="4.0" height="10.0" rx="0" fill="#614a35" stroke="none" stroke-width="0"/><circle cx="859.0" cy="578.0" r="9.0" fill="#2d6b4b"/><rect x="857.0" y="578.0" width="4.0" height="10.0" rx="0" fill="#614a35" stroke="none" stroke-width="0"/><circle cx="710.0" cy="574.0" r="11.0" fill="#2d6b4b"/><rect x="708.0" y="574.0" width="4.0" height="10.0" rx="0" fill="#614a35" stroke="none" stroke-width="0"/><circle cx="1023.0" cy="568.0" r="11.0" fill="#2d6b4b"/><rect x="1021.0" y="568.0" width="4.0" height="10.0" rx="0" fill="#614a35" stroke="none" stroke-width="0"/><circle cx="389.0" cy="513.0" r="8.0" fill="#2d6b4b"/><rect x="387.0" y="513.0" width="4.0" height="10.0" rx="0" fill="#614a35" stroke="none" stroke-width="0"/><circle cx="536.0" cy="498.0" r="9.0" fill="#2d6b4b"/><rect x="534.0" y="498.0" width="4.0" height="10.0" rx="0" fill="#614a35" stroke="none" stroke-width="0"/><circle cx="1085.0" cy="483.0" r="10.0" fill="#2d6b4b"/><rect x="1083.0" y="483.0" width="4.0" height="10.0" rx="0" fill="#614a35" stroke="none" stroke-width="0"/><circle cx="640.0" cy="667.0" r="7.0" fill="#2d6b4b"/><rect x="638.0" y="667.0" width="4.0" height="10.0" rx="0" fill="#614a35" stroke="none" stroke-width="0"/><circle cx="652.0" cy="524.0" r="5.0" fill="#2d6b4b"/><rect x="650.0" y="524.0" width="4.0" height="10.0" rx="0" fill="#614a35" stroke="none" stroke-width="0"/><circle cx="1152.0" cy="548.0" r="5.0" fill="#2d6b4b"/><rect x="1150.0" y="548.0" width="4.0" height="10.0" rx="0" fill="#614a35" stroke="none" stroke-width="0"/><circle cx="41.0" cy="677.0" r="7.0" fill="#2d6b4b"/><rect x="39.0" y="677.0" width="4.0" height="10.0" rx="0" fill="#614a35" stroke="none" stroke-width="0"/><circle cx="415.0" cy="511.0" r="8.0" fill="#2d6b4b"/><rect x="413.0" y="511.0" width="4.0" height="10.0" rx="0" fill="#614a35" stroke="none" stroke-width="0"/><circle cx="622.0" cy="518.0" r="7.0" fill="#2d6b4b"/><rect x="620.0" y="518.0" width="4.0" height="10.0" rx="0" fill="#614a35" stroke="none" stroke-width="0"/><circle cx="653.0" cy="609.0" r="5.0" fill="#2d6b4b"/><rect x="651.0" y="609.0" width="4.0" height="10.0" rx="0" fill="#614a35" stroke="none" stroke-width="0"/><circle cx="224.0" cy="563.0" r="12.0" fill="#2d6b4b"/><rect x="222.0" y="563.0" width="4.0" height="10.0" rx="0" fill="#614a35" stroke="none" stroke-width="0"/><circle cx="1113.0" cy="521.0" r="12.0" fill="#2d6b4b"/><rect x="1111.0" y="521.0" width="4.0" height="10.0" rx="0" fill="#614a35" stroke="none" stroke-width="0"/><circle cx="215.0" cy="605.0" r="5.0" fill="#2d6b4b"/><rect x="213.0" y="605.0" width="4.0" height="10.0" rx="0" fill="#614a35" stroke="none" stroke-width="0"/><circle cx="274.0" cy="674.0" r="11.0" fill="#2d6b4b"/><rect x="272.0" y="674.0" width="4.0" height="10.0" rx="0" fill="#614a35" stroke="none" stroke-width="0"/><circle cx="1049.0" cy="594.0" r="9.0" fill="#2d6b4b"/><rect x="1047.0" y="594.0" width="4.0" height="10.0" rx="0" fill="#614a35" stroke="none" stroke-width="0"/><circle cx="972.0" cy="561.0" r="11.0" fill="#2d6b4b"/><rect x="970.0" y="561.0" width="4.0" height="10.0" rx="0" fill="#614a35" stroke="none" stroke-width="0"/><polyline points="574.0,614.0 834.0,594.0" fill="none" stroke="#c8b07a" stroke-width="12" opacity="0.9" stroke-linecap="round" /><polyline points="574.0,614.0 574.0,569.0" fill="none" stroke="#a98e61" stroke-width="3" opacity="0.8" stroke-linecap="round" /><polyline points="626.0,614.0 626.0,569.0" fill="none" stroke="#a98e61" stroke-width="3" opacity="0.8" stroke-linecap="round" /><polyline points="678.0,614.0 678.0,569.0" fill="none" stroke="#a98e61" stroke-width="3" opacity="0.8" stroke-linecap="round" /><polyline points="730.0,614.0 730.0,569.0" fill="none" stroke="#a98e61" stroke-width="3" opacity="0.8" stroke-linecap="round" /><polyline points="782.0,614.0 782.0,569.0" fill="none" stroke="#a98e61" stroke-width="3" opacity="0.8" stroke-linecap="round" /><circle cx="689.0" cy="123.0" r="24.0" fill="#fff0b0"/></svg>