<svg xmlns="http://www.w3.org/2000/svg" viewBox="0 0 1200 700"><defs><linearGradient id="sky" x2="0" y2="1"><stop stop-color="#b6d8e8"/><stop offset="1" stop-color="#e7b07d"/></linearGradient><linearGradient id="ground" x2="0" y2="1"><stop stop-color="#9a9a78"/><stop offset="1" stop-color="#2d5640"/></linearGradient></defs><rect x="0.0" y="0.0" width="1200.0" height="700.0" rx="0" fill="url(#sky)" stroke="none" stroke-width="0"/><rect x="0.0" y="410.0" width="1200.0" height="290.0" rx="0" fill="url(#ground)" stroke="none" stroke-width="0"/><polygon points="-100.0,410.0 50.0,311.0 200.0,410.0" fill="#557060" stroke="none" stroke-width="0"/><polygon points="180.0,410.0 330.0,225.0 480.0,410.0" fill="#557060" stroke="none" stroke-width="0"/><polygon points="460.0,410.0 610.0,234.0 760.0,410.0" fill="#557060" stroke="none" stroke-width="0"/><polygon points="740.0,410.0 890.0,305.0 1040.0,410.0" fill="#557060" stroke="none" stroke-width="0"/><polygon points="1020.0,410.0 1170.0,297.0 1320.0,410.0" fill="#557060" stroke="none" stroke-width="0"/><polyline points="90.0,700.0 41.0,420.0" fill="none" stroke="#30383c" stroke-width="11" opacity="0.95" stroke-linecap="round" /><polyline points="180.0,700.0 94.0,420.0" fill="none" stroke="#30383c" stroke-width="11" opacity="0.95" stroke-linecap="round" /><polyline points="270.0,700.0 219.0,420.0" fill="none" stroke="#30383c" stroke-width="11" opacity="0.95" stroke-linecap="round" /><polyline points="360.0,700.0 266.0,420.0" fill="none" stroke="#30383c" stroke-width="11" opacity="0.95" stroke-linecap="round" /><polyline points="450.0,700.0 484.0,420.0" fill="none" stroke="#30383c" stroke-width="9" opacity="0.95" stroke-linecap="round" /><polyline points="540.0,700.0 557.0,420.0" fill="none" stroke="#30383c" stroke-width="7" opacity="0.95" stroke-linecap="round" /><polyline points="630.0,700.0 619.0,420.0" fill="none" stroke="#30383c" stroke-width="11" opacity="0.95" stroke-linecap="round" /><polyline points="720.0,700.0 662.0,420.0" fill="none" stroke="#30383c" stroke-width="7" opacity="0.95" stroke-linecap="round" /><polyline points="810.0,700.0 799.0,420.0" fill="none" stroke="#30383c" stroke-width="11" opacity="0.95" stroke-linecap="round" /><polyline points="900.0,700.0 807.0,420.0" fill="none" stroke="#30383c" stroke-width="9" opacity="0.95" stroke-linecap="round" /><polyline points="990.0,700.0 1055.0,420.0" fill="none" stroke="#30383c" stroke-width="11" opacity="0.95" stroke-linecap="round" /><polyline points="1080.0,700.0 1028.0,420.0" fill="none" stroke="#30383c" stroke-width="7" opacity="0.95" stroke-linecap="round" /><polyline points="1170.0,700.0 1152.0,420.0" fill="none" stroke="#30383c" stroke-width="9" opacity="0.95" stroke-linecap="round" /><polyline points="0.0,460.0 1200.0,441.0" fill="none" stroke="#30383c" stroke-width="10" opacity="0.95" stroke-linecap="round" /><polyline points="0.0,530.0 1200.0,506.0" fill="none" stroke="#30383c" stroke-width="6" opacity="0.95" stroke-linecap="round" /><polyline points="0.0,600.0 1200.0,613.0" fill="none" stroke="#30383c" stroke-width="6" opacity="0.95" stroke-linecap="round" /><polyline points="0.0,670.0 1200.0,654.0" fill="none" stroke="#30383c" stroke-width="6" opacity="0.95" stroke-linecap="round" /><rect x="1088.0" y="456.0" width="27.0" height="89.0" rx="2" fill="#e8e0cf" stroke="#213640" stroke-width="1"/><rect x="1091.0" y="461.0" width="21.0" height="4.0" rx="0" fill="#86b6c2" stroke="none" stroke-width="0"/><rect x="554.0" y="479.0" width="24.0" height="65.0" rx="2" fill="#e8e0cf" stroke="#213640" stroke-width="1"/><rect x="557.0" y="484.0" width="18.0" height="4.0" rx="0" fill="#86b6c2" stroke="none" stroke-width="0"/><rect x="181.0" y="452.0" width="25.0" height="27.0" rx="2" fill="#d7b987" stroke="#213640" stroke-width="1"/><rect x="324.0" y="483.0" width="33.0" height="78.0" rx="2" fill="#e4d2bd" stroke="#213640" stroke-width="1"/><rect x="327.0" y="488.0" width="27.0" height="4.0" rx="0" fill="#86b6c2" stroke="none" stroke-width="0"/><rect x="773.0" y="503.0" width="48.0" height="27.0" rx="2" fill="#c8d8dd" stroke="#213640" stroke-width="1"/><rect x="660.0" y="579.0" width="24.0" height="35.0" rx="2" fill="#e4d2bd" stroke="#213640" stroke-width="1"/><rect x="943.0" y="520.0" width="35.0" height="56.0" rx="2" fill="#d7b987" stroke="#213640" stroke-width="1"/><rect x="946.0" y="525.0" width="29.0" height="4.0" rx="0" fill="#86b6c2" stroke="none" stroke-width="0"/><rect x="234.0" y="579.0" width="42.0" height="48.0" rx="2" fill="#e8e0cf" stroke="#213640" stroke-width="1"/><rect x="237.0" y="584.0" width="36.0" height="4.0" rx="0" fill="#86b6c2" stroke="none" stroke-width="0"/><rect x="111.0" y="428.0" width="25.0" height="75.0" rx="2" fill="#d7b987" stroke="#213640" stroke-width="1"/><rect x="114.0" y="433.0" width="19.0" height="4.0" rx="0" fill="#86b6c2" stroke="none" stroke-width="0"/><rect x="1072.0" y="530.0" width="45.0" height="54.0" rx="2" fill="#c8d8dd" stroke="#213640" stroke-width="1"/><rect x="1075.0" y="535.0" width="39.0" height="4.0" rx="0" fill="#86b6c2" stroke="none" stroke-width="0"/><rect x="592.0" y="413.0" width="19.0" height="78.0" rx="2" fill="#e4d2bd" stroke="#213640" stroke-width="1"/><rect x="595.0" y="418.0" width="13.0" height="4.0" rx="0" fill="#86b6c2" stroke="none" stroke-width="0"/><rect x="997.0" y="490.0" width="22.0" height="26.0" rx="2" fill="#c8d8dd" stroke="#213640" stroke-width="1"/><rect x="942.0" y="452.0" width="44.0" height="74.0" rx="2" fill="#b9c8cc" stroke="#213640" stroke-width="1"/><rect x="945.0" y="457.0" width="38.0" height="4.0" rx="0" fill="#86b6c2" stroke="none" stroke-width="0"/><rect x="569.0" y="451.0" width="30.0" height="83.0" rx="2" fill="#d7b987" stroke="#213640" stroke-width="1"/><rect x="572.0" y="456.0" width="24.0" height="4.0" rx="0" fill="#86b6c2" stroke="none" stroke-width="0"/><rect x="1034.0" y="517.0" width="45.0" height="78.0" rx="2" fill="#e8e0cf" stroke="#213640" stroke-width="1"/><rect x="1037.0" y="522.0" width="39.0" height="4.0" rx="0" fill="#86b6c2" stroke="none" stroke-width="0"/><rect x="875.0" y="457.0" width="32.0" height="53.0" rx="2" fill="#e4d2bd" stroke="#213640" stroke-width="1"/><rect x="878.0" y="462.0" width="26.0" height="4.0" rx="0" fill="#86b6c2" stroke="none" stroke-width="0"/><rect x="1066.0" y="575.0" width="48.0" height="52.0" rx="2" fill="#e8e0cf" stroke="#213640" stroke-width="1"/><rect x="1069.0" y="580.0" width="42.0" height="4.0" rx="0" fill="#86b6c2" stroke="none" stroke-width="0"/><rect x="142.0" y="540.0" width="31.0" height="23.0" rx="2" fill="#d7b987" stroke="#213640" stroke-width="1"/><rect x="548.0" y="508.0" width="37.0" height="34.0" rx="2" fill="#b9c8cc" stroke="#213640" stroke-width="1"/><rect x="745.0" y="585.0" width="33.0" height="21.0" rx="2" fill="#d7b987" stroke="#213640" stroke-width="1"/><rect x="820.0" y="398.0" width="36.0" height="83.0" rx="2" fill="#d7b987" stroke="#213640" stroke-width="1"/><rect x="823.0" y="403.0" width="30.0" height="4.0" rx="0" fill="#86b6c2" stroke="none" stroke-width="0"/><rect x="669.0" y="562.0" width="35.0" height="82.0" rx="2" fill="#d7b987" stroke="#213640" stroke-width="1"/><rect x="672.0" y="567.0" width="29.0" height="4.0" rx="0" fill="#86b6c2" stroke="none" stroke-width="0"/><rect x="85.0" y="467.0" width="30.0" height="56.0" rx="2" fill="#b9c8cc" stroke="#213640" stroke-width="1"/><rect x="88.0" y="472.0" width="24.0" height="4.0" rx="0" fill="#86b6c2" stroke="none" stroke-width="0"/><rect x="557.0" y="520.0" width="36.0" height="28.0" rx="2" fill="#e4d2bd" stroke="#213640" stroke-width="1"/><rect x="961.0" y="586.0" width="33.0" height="24.0" rx="2" fill="#d7b987" stroke="#213640" stroke-width="1"/><rect x="1059.0" y="408.0" width="33.0" height="88.0" rx="2" fill="#b9c8cc" stroke="#213640" stroke-width="1"/><rect x="1062.0" y="413.0" width="27.0" height="4.0" rx="0" fill="#86b6c2" stroke="none" stroke-width="0"/><rect x="848.0" y="423.0" width="32.0" height="78.0" rx="2" fill="#b9c8cc" stroke="#213640" stroke-width="1"/><rect x="851.0" y="428.0" width="26.0" height="4.0" rx="0" fill="#86b6c2" stroke="none" stroke-width="0"/><rect x="300.0" y="581.0" width="44.0" height="31.0" rx="2" fill="#e8e0cf" stroke="#213640" stroke-width="1"/><rect x="198.0" y="519.0" width="47.0" height="72.0" rx="2" fill="#c8d8dd" stroke="#213640" stroke-width="1"/><rect x="201.0" y="524.0" width="41.0" height="4.0" rx="0" fill="#86b6c2" stroke="none" stroke-width="0"/><rect x="338.0" y="585.0" width="46.0" height="36.0" rx="2" fill="#c8d8dd" stroke="#213640" stroke-width="1"/><rect x="968.0" y="586.0" width="18.0" height="61.0" rx="2" fill="#c8d8dd" stroke="#213640" stroke-width="1"/><rect x="971.0" y="591.0" width="12.0" height="4.0" rx="0" fill="#86b6c2" stroke="none" stroke-width="0"/><rect x="62.0" y="546.0" width="46.0" height="32.0" rx="2" fill="#c8d8dd" stroke="#213640" stroke-width="1"/><rect x="356.0" y="603.0" width="42.0" height="16.0" rx="2" fill="#b9c8cc" stroke="#213640" stroke-width="1"/><rect x="1071.0" y="434.0" width="18.0" height="22.0" rx="2" fill="#d7b987" stroke="#213640" stroke-width="1"/><rect x="856.0" y="433.0" width="38.0" height="49.0" rx="2" fill="#d7b987" stroke="#213640" stroke-width="1"/><rect x="859.0" y="438.0" width="32.0" height="4.0" rx="0" fill="#86b6c2" stroke="none" stroke-width="0"/><rect x="709.0" y="412.0" width="40.0" height="47.0" rx="2" fill="#d7b987" stroke="#213640" stroke-width="1"/><rect x="712.0" y="417.0" width="34.0" height="4.0" rx="0" fill="#86b6c2" stroke="none" stroke-width="0"/><rect x="611.0" y="420.0" width="46.0" height="83.0" rx="2" fill="#b9c8cc" stroke="#213640" stroke-width="1"/><rect x="614.0" y="425.0" width="40.0" height="4.0" rx="0" fill="#86b6c2" stroke="none" stroke-width="0"/><rect x="636.0" y="420.0" width="19.0" height="51.0" rx="2" fill="#b9c8cc" stroke="#213640" stroke-width="1"/><rect x="639.0" y="425.0" width="13.0" height="4.0" rx="0" fill="#86b6c2" stroke="none" stroke-width="0"/><rect x="641.0" y="521.0" width="19.0" height="87.0" rx="2" fill="#d7b987" stroke="#213640" stroke-width="1"/><rect x="644.0" y="526.0" width="13.0" height="4.0" rx="0" fill="#86b6c2" stroke="none" stroke-width="0"/><rect x="510.0" y="471.0" width="27.0" height="70.0" rx="2" fill="#d7b987" stroke="#213640" stroke-width="1"/><rect x="513.0" y="476.0" width="21.0" height="4.0" rx="0" fill="#86b6c2" stroke="none" stroke-width="0"/><rect x="667.0" y="430.0" width="28.0" height="77.0" rx="2" fill="#e8e0cf" stroke="#213640" stroke-width="1"/><rect x="670.0" y="435.0" width="22.0" height="4.0" rx="0" fill="#86b6c2" stroke="none" stroke-width="0"/><rect x="580.0" y="443.0" width="34.0" height="73.0" rx="2" fill="#c8d8dd" stroke="#213640" stroke-width="1"/><rect x="583.0" y="448.0" width="28.0" height="4.0" rx="0" fill="#86b6c2" stroke="none" stroke-width="0"/><rect x="855.0" y="567.0" width="28.0" height="29.0" rx="2" fill="#e4d2bd" stroke="#213640" stroke-width="1"/><rect x="637.0" y="481.0" width="43.0" height="87.0" rx="2" fill="#e4d2bd" stroke="#213640" stroke-width="1"/><rect x="640.0" y="486.0" width="37.0" height="4.0" rx="0" fill="#86b6c2" stroke="none" stroke-width="0"/><rect x="655.0" y="498.0" width="35.0" height="81.0" rx="2" fill="#e4d2bd" stroke="#213640" stroke-width="1"/><rect x="658.0" y="503.0" width="29.0" height="4.0" rx="0" fill="#86b6c2" stroke="none" stroke-width="0"/><rect x="917.0" y="588.0" width="26.0" height="50.0" rx="2" fill="#e8e0cf" stroke="#213640" stroke-width="1"/><rect x="920.0" y="593.0" width="20.0" height="4.0" rx="0" fill="#86b6c2" stroke="none" stroke-width="0"/><rect x="372.0" y="500.0" width="30.0" height="26.0" rx="2" fill="#e8e0cf" stroke="#213640" stroke-width="1"/><rect x="432.0" y="547.0" width="20.0" height="45.0" rx="2" fill="#e8e0cf" stroke="#213640" stroke-width="1"/><rect x="435.0" y="552.0" width="14.0" height="4.0" rx="0" fill="#86b6c2" stroke="none" stroke-width="0"/><rect x="903.0" y="621.0" width="39.0" height="26.0" rx="2" fill="#c8d8dd" stroke="#213640" stroke-width="1"/><rect x="378.0" y="551.0" width="42.0" height="39.0" rx="2" fill="#c8d8dd" stroke="#213640" stroke-width="1"/><rect x="494.0" y="572.0" width="20.0" height="40.0" rx="2" fill="#b9c8cc" stroke="#213640" stroke-width="1"/><rect x="757.0" y="433.0" width="42.0" height="76.0" rx="2" fill="#e8e0cf" stroke="#213640" stroke-width="1"/><rect x="760.0" y="438.0" width="36.0" height="4.0" rx="0" fill="#86b6c2" stroke="none" stroke-width="0"/><rect x="419.0" y="532.0" width="43.0" height="22.0" rx="2" fill="#b9c8cc" stroke="#213640" stroke-width="1"/><rect x="834.0" y="463.0" width="35.0" height="50.0" rx="2" fill="#c8d8dd" stroke="#213640" stroke-width="1"/><rect x="837.0" y="468.0" width="29.0" height="4.0" rx="0" fill="#86b6c2" stroke="none" stroke-width="0"/><rect x="506.0" y="496.0" width="41.0" height="76.0" rx="2" fill="#e4d2bd" stroke="#213640" stroke-width="1"/><rect x="509.0" y="501.0" width="35.0" height="4.0" rx="0" fill="#86b6c2" stroke="none" stroke-width="0"/><rect x="654.0" y="423.0" width="24.0" height="57.0" rx="2" fill="#c8d8dd" stroke="#213640" stroke-width="1"/><rect x="657.0" y="428.0" width="18.0" height="4.0" rx="0" fill="#86b6c2" stroke="none" stroke-width="0"/><rect x="389.0" y="481.0" width="39.0" height="36.0" rx="2" fill="#d7b987" stroke="#213640" stroke-width="1"/><rect x="402.0" y="524.0" width="28.0" height="71.0" rx="2" fill="#b9c8cc" stroke="#213640" stroke-width="1"/><rect x="405.0" y="529.0" width="22.0" height="4.0" rx="0" fill="#86b6c2" stroke="none" stroke-width="0"/><rect x="779.0" y="531.0" width="34.0" height="88.0" rx="2" fill="#b9c8cc" stroke="#213640" stroke-width="1"/><rect x="782.0" y="536.0" width="28.0" height="4.0" rx="0" fill="#86b6c2" stroke="none" stroke-width="0"/><rect x="190.0" y="428.0" width="45.0" height="37.0" rx="2" fill="#c8d8dd" stroke="#213640" stroke-width="1"/><rect x="595.0" y="480.0" width="39.0" height="58.0" rx="2" fill="#d7b987" stroke="#213640" stroke-width="1"/><rect x="598.0" y="485.0" width="33.0" height="4.0" rx="0" fill="#86b6c2" stroke="none" stroke-width="0"/><rect x="1129.0" y="495.0" width="38.0" height="36.0" rx="2" fill="#d7b987" stroke="#213640" stroke-width="1"/><rect x="617.0" y="417.0" width="41.0" height="47.0" rx="2" fill="#e8e0cf" stroke="#213640" stroke-width="1"/><rect x="620.0" y="422.0" width="35.0" height="4.0" rx="0" fill="#86b6c2" stroke="none" stroke-width="0"/><rect x="602.0" y="583.0" width="45.0" height="50.0" rx="2" fill="#e4d2bd" stroke="#213640" stroke-width="1"/><rect x="605.0" y="588.0" width="39.0" height="4.0" rx="0" fill="#86b6c2" stroke="none" stroke-width="0"/><rect x="204.0" y="493.0" width="35.0" height="71.0" rx="2" fill="#c8d8dd" stroke="#213640" stroke-width="1"/><rect x="207.0" y="498.0" width="29.0" height="4.0" rx="0" fill="#86b6c2" stroke="none" stroke-width="0"/><rect x="1101.0" y="377.0" width="48.0" height="85.0" rx="2" fill="#e8e0cf" stroke="#213640" stroke-width="1"/><rect x="1104.0" y="382.0" width="42.0" height="4.0" rx="0" fill="#86b6c2" stroke="none" stroke-width="0"/><rect x="772.0" y="481.0" width="35.0" height="22.0" rx="2" fill="#b9c8cc" stroke="#213640" stroke-width="1"/><rect x="954.0" y="561.0" width="37.0" height="15.0" rx="2" fill="#e4d2bd" stroke="#213640" stroke-width="1"/><rect x="393.0" y="501.0" width="45.0" height="68.0" rx="2" fill="#c8d8dd" stroke="#213640" stroke-width="1"/><rect x="396.0" y="506.0" width="39.0" height="4.0" rx="0" fill="#86b6c2" stroke="none" stroke-width="0"/><rect x="196.0" y="507.0" width="43.0" height="62.0" rx="2" fill="#e8e0cf" stroke="#213640" stroke-width="1"/><rect x="199.0" y="512.0" width="37.0" height="4.0" rx="0" fill="#86b6c2" stroke="none" stroke-width="0"/><rect x="707.0" y="482.0" width="20.0" height="28.0" rx="2" fill="#e8e0cf" stroke="#213640" stroke-width="1"/><rect x="58.0" y="447.0" width="41.0" height="28.0" rx="2" fill="#c8d8dd" stroke="#213640" stroke-width="1"/><rect x="658.0" y="590.0" width="30.0" height="34.0" rx="2" fill="#c8d8dd" stroke="#213640" stroke-width="1"/><rect x="788.0" y="453.0" width="33.0" height="31.0" rx="2" fill="#c8d8dd" stroke="#213640" stroke-width="1"/><rect x="87.0" y="557.0" width="22.0" height="38.0" rx="2" fill="#d7b987" stroke="#213640" stroke-width="1"/><rect x="818.0" y="445.0" width="90.0" height="55.0" rx="0" fill="#b8c8cb" stroke="none" stroke-width="0"/><rect x="850.0" y="405.0" width="26.0" height="40.0" rx="0" fill="#59798b" stroke="none" stroke-width="0"/><rect x="374.0" y="308.0" width="24.0" height="130.0" rx="0" fill="#4d6771" stroke="none" stroke-width="0"/><rect x="367.0" y="293.0" width="38.0" height="15.0" rx="0" fill="#d4b15d" stroke="none" stroke-width="0"/><circle cx="899.0" cy="487.0" r="30.0" fill="#e8d8bd"/><rect x="874.0" y="487.0" width="50.0" height="25.0" rx="0" fill="#d6c6a9" stroke="none" stroke-width="0"/><circle cx="190.0" cy="666.0" r="9.0" fill="#2d6b4b"/><rect x="188.0" y="666.0" width="4.0" height="10.0" rx="0" fill="#614a35" stroke="none" stroke-width="0"/><circle cx="435.0" cy="630.0" r="12.0" fill="#2d6b4b"/><rect x="433.0" y="630.0" width="4.0" height="10.0" rx="0" fill="#614a35" stroke="none" stroke-width="0"/><circle cx="1094.0" cy="488.0" r="6.0" fill="#2d6b4b"/><rect x="1092.0" y="488.0" width="4.0" height="10.0" rx="0" fill="#614a35" stroke="none" stroke-width="0"/><circle cx="358.0" cy="490.0" r="10.0" fill="#2d6b4b"/><rect x="356.0" y="490.0" width="4.0" height="10.0" rx="0" fill="#614a35" stroke="none" stroke-width="0"/><circle cx="1085.0" cy="613.0" r="7.0" fill="#2d6b4b"/><rect x="1083.0" y="613.0" width="4.0" height="10.0" rx="0" fill="#614a35" stroke="none" stroke-width="0"/><circle cx="752.0" cy="544.0" r="10.0" fill="#2d6b4b"/><rect x="750.0" y="544.0" width="4.0" height="10.0" rx="0" fill="#614a35" stroke="none" stroke-width="0"/><circle cx="1051.0" cy="499.0" r="12.0" fill="#2d6b4b"/><rect x="1049.0" y="499.0" width="4.0" height="10.0" rx="0" fill="#614a35" stroke="none" stroke-width="0"/><circle cx="348.0" cy="551.0" r="12.0" fill="#2d6b4b"/><rect x="346.0" y="551.0" width="4.0" height="10.0" rx="0" fill="#614a35" stroke="none" stroke-width="0"/><circle cx="201.0" cy="479.0" r="13.0" fill="#2d6b4b"/><rect x="199.0" y="479.0" width="4.0" height="10.0" rx="0" fill="#614a35" stroke="none" stroke-width="0"/><circle cx="148.0" cy="671.0" r="5.0" fill="#2d6b4b"/><rect x="146.0" y="671.0" width="4.0" height="10.0" rx="0" fill="#614a35" stroke="none" stroke-width="0"/><circle cx="465.0" cy="566.0" r="5.0" fill="#2d6b4b"/><rect x="463.0" y="566.0" width="4.0" height="10.0" rx="0" fill="#614a35" stroke="none" stroke-width="0"/><circle cx="1069.0" cy="508.0" r="5.0" fill="#2d6b4b"/><rect x="1067.0" y="508.0" width="4.0" height="10.0" rx="0" fill="#614a35" stroke="none" stroke-width="0"/><circle cx="170.0" cy="518.0" r="8.0" fill="#2d6b4b"/><rect x="168.0" y="518.0" width="4.0" height="10.0" rx="0" fill="#614a35" stroke="none" stroke-width="0"/><circle cx="760.0" cy="676.0" r="7.0" fill="#2d6b4b"/><rect x="758.0" y="676.0" width="4.0" height="10.0" rx="0" fill="#614a35" stroke="none" stroke-width="0"/><circle cx="719.0" cy="639.0" r="9.0" fill="#2d6b4b"/><rect x="717.0" y="639.0" width="4.0" height="10.0" rx="0" fill="#614a35" stroke="none" stroke-width="0"/><circle cx="821.0" cy="505.0" r="9.0" fill="#2d6b4b"/><rect x="819.0" y="505.0" width="4.0" height="10.0" rx="0" fill="#614a35" stroke="none" stroke-width="0"/><circle cx="412.0" cy="665.0" r="11.0" fill="#2d6b4b"/><rect x="410.0" y="665.0" width="4.0" height="10.0" rx="0" fill="#614a35" stroke="none" stroke-width="0"/><circle cx="891.0" cy="516.0" r="7.0" fill="#2d6b4b"/><rect x="889.0" y="516.0" width="4.0" height="10.0" rx="0" fill="#614a35" stroke="none" stroke-width="0"/><circle cx="922.0" cy="575.0" r="13.0" fill="#2d6b4b"/><rect x="920.0" y="575.0" width="4.0" height="10.0" rx="0" fill="#614a35" stroke="none" stroke-width="0"/><circle cx="366.0" cy="547.0" r="10.0" fill="#2d6b4b"/><rect x="364.0" y="547.0" width="4.0" height="10.0" rx="0" fill="#614a35" stroke="none" stroke-width="0"/><circle cx="179.0" cy="184.0" r="24.0" fill="#fff0b0"/></svg>